<svg width="423" height="230" viewBox="0 0 423 230" fill="none" xmlns="http://www.w3.org/2000/svg">
<path fill-rule="evenodd" clip-rule="evenodd" d="M163.657 25.875C155.282 23.125 150.157 16.3125 150.157 8.9375V2.9375H144.282V8.4375C144.22 16.8125 139.157 24.25 130.407 27.375L133.595 32.125C140.126 29.6875 144.876 24.7812 147.345 18.5C149.751 24.0312 154.345 28.4062 160.47 30.5625L163.657 25.875ZM174.845 14.0625V0H168.907V33.8125H174.845V19.0625H182.97V14.0625H174.845ZM175.345 45.5C175.345 38.9375 168.282 35.125 156.782 35.125C145.157 35.125 137.97 38.9375 137.97 45.5C137.97 52.125 145.157 55.9375 156.782 55.875C168.282 55.9375 175.345 52.125 175.345 45.5ZM143.907 45.5C143.845 41.9375 148.657 39.8125 156.782 39.8125C164.845 39.8125 169.532 41.9375 169.532 45.5C169.532 49.1875 164.845 51.1875 156.782 51.25C148.657 51.1875 143.845 49.1875 143.907 45.5ZM233.812 0V28.8125H227.937V0H233.812ZM233.875 31.5V45.5H203V50.6875H235.75V55.4375H197.25V41H228V36.1875H197.062V31.5H233.875ZM207.812 5.8125C207.75 13.3125 213.187 20.125 221.75 22.8125L218.812 27.4375C212.281 25.3125 207.375 20.875 204.875 15.1875C202.312 21.3125 197.312 26.1875 190.625 28.5L187.625 23.8125C196.375 20.875 201.75 13.5625 201.75 5.8125V1.5H207.812V5.8125ZM277.53 17.3125C277.468 9.4375 271.155 3.9375 262.28 4C253.468 3.9375 246.968 9.4375 247.03 17.3125C246.968 25.1875 253.468 30.6875 262.28 30.6875C271.155 30.6875 277.468 25.1875 277.53 17.3125ZM252.905 17.3125C252.843 12.375 256.843 9.125 262.28 9.125C267.718 9.125 271.718 12.375 271.718 17.3125C271.718 22.25 267.718 25.5 262.28 25.5C256.843 25.5 252.843 22.25 252.905 17.3125ZM290.343 56.125V0H284.405V56.125H290.343ZM280.905 37.25C268.655 39 254.53 39.125 244.343 39.125L245.093 44.0625C255.093 44.0625 268.655 44 281.343 41.5625L280.905 37.25ZM338.09 14.25C338.027 24.5 344.215 34.75 352.902 38.625L349.34 43.3125C342.902 40.25 337.809 33.9688 335.215 26.3125C332.59 34.5 327.434 41.2812 320.715 44.5625L317.09 39.5625C325.902 35.625 332.09 24.9375 332.09 14.25V4.6875H338.09V14.25ZM363.902 0V56.125H357.965V0H363.902ZM422.183 56H416.495V27.0625H409.245V53.125H403.808V1.125H409.245V22.1875H416.495V0H422.183V56ZM396.995 6.75V11.5625H381.933V37.5C388.808 37.4375 393.995 37.125 399.995 36L400.433 40.875C393.683 42.25 387.933 42.5 379.745 42.5625H375.995V6.75H396.995ZM101.91 2.3125V21.5H85.7852V28H108.41V32.8125H57.3477V28H79.9102V21.5H63.8477V2.3125H101.91ZM69.6602 7V16.75H96.0352V7H69.6602ZM102.16 38.125V56H96.1602V42.8125H63.0352V38.125H102.16ZM45.4424 5.75V2.25H6.75488V7H39.5049C39.5049 10.1875 39.3799 13.75 38.5049 18.5625L44.3799 19.0625C45.3075 14.0188 45.3746 9.88933 45.4294 6.52435L45.4294 6.52352L45.4294 6.52241L45.4294 6.52087L45.4295 6.5188C45.4337 6.25796 45.4379 6.00172 45.4424 5.75ZM51.7549 26.625V21.9375H27.0674V12.6875H21.2549V21.9375H0.817383V26.625H51.7549ZM45.5674 45.125V31.25H6.75488V36.0625H39.6924V41H6.81738V55.4375H47.0049V50.6875H12.7549V45.125H45.5674ZM201.749 215.136L184.079 186.653H191.595L200.43 201.422C200.914 202.301 201.441 203.268 202.013 204.323C202.584 205.378 203.112 206.367 203.595 207.29L205.243 210.587H205.375C205.903 209.488 206.452 208.389 207.024 207.29C207.507 206.367 208.035 205.378 208.606 204.323C209.177 203.268 209.727 202.301 210.254 201.422L219.155 186.653H226.342L208.474 215.466V229.268H201.749V215.136ZM327.001 211.472C324.34 218.797 319.547 224.982 313.62 229.268H306.683C308.828 227.662 310.694 225.922 311.946 224.183C314.716 220.49 317.414 215.59 318.905 211.401C321.959 202.95 322.243 196.274 319.687 192.795C317.982 190.522 315.142 189.244 311.875 189.244C307.969 189.244 303.921 190.806 300.016 193.86C295.826 197.198 291.352 204.086 288.724 211.33C285.99 218.917 285.625 225.846 287.817 229.268H280.989C280.81 229 280.643 228.725 280.487 228.444C278.143 224.325 278.214 217.863 280.629 211.188C285.813 196.914 299.234 186.688 312.798 186.688C319.616 186.688 324.658 189.244 327.356 194.144C329.7 198.405 329.558 204.441 327.001 211.472ZM104.846 186.653V229.268H111.571V186.653H104.846ZM144.058 186.653V229.268H150.783V213.026H176.233V207.422H150.783V192.587H178.936V186.653H144.058ZM352.19 225.177C351.631 226.715 350.742 228.101 349.618 229.268H356.003C357.882 227.374 359.353 225.16 360.214 222.763C362.345 216.869 360.143 212.324 352.616 207.211C346.651 203.163 344.804 200.038 346.225 196.132C347.645 192.227 351.551 189.599 355.954 189.599C359.149 189.599 361.635 190.948 363.197 193.505C364.546 195.777 364.901 197.624 364.546 201.814H366.322L370.228 186.688H368.736C367.884 188.25 366.819 189.102 365.612 189.102C364.901 189.102 363.836 188.818 362.771 188.25C360.499 187.256 358.155 186.688 355.67 186.688C352.9 186.688 349.491 187.824 346.58 189.67C342.958 191.943 340.472 194.996 339.052 198.902C336.993 204.512 338.697 208.489 345.159 212.679C349.278 215.448 351.906 218.289 352.687 220.988C352.971 221.982 352.829 223.402 352.19 225.177ZM393.003 229.268H386.618C387.742 228.101 388.631 226.715 389.19 225.177C389.829 223.402 389.971 221.982 389.687 220.988C388.906 218.289 386.278 215.448 382.159 212.679C375.697 208.489 373.993 204.512 376.052 198.902C377.472 194.996 379.958 191.943 383.58 189.67C386.491 187.824 389.9 186.688 392.67 186.688C395.155 186.688 397.499 187.256 399.771 188.25C400.836 188.818 401.901 189.102 402.612 189.102C403.819 189.102 404.884 188.25 405.736 186.688H407.228L403.322 201.814H401.546C401.901 197.624 401.546 195.777 400.197 193.505C398.635 190.948 396.149 189.599 392.954 189.599C388.551 189.599 384.645 192.227 383.225 196.132C381.804 200.038 383.651 203.163 389.616 207.211C397.143 212.324 399.345 216.869 397.215 222.763C396.353 225.16 394.882 227.374 393.003 229.268ZM369.84 229.268H364.18L366.11 220.561H367.743C367.93 224.349 368.605 227.227 369.84 229.268ZM327.18 229.268H332.839C331.605 227.227 330.93 224.349 330.743 220.561H329.11L327.18 229.268ZM263.302 229.268H270.439L274.861 222.337H273.086C269.674 226.521 267.176 228.433 263.302 229.268ZM236.833 229.268H245.388C244.781 228.84 244.837 228.126 245.272 226.953L256.468 195.422C258.314 190.38 259.664 189.386 265.416 189.031L265.913 187.682H245.887L245.39 189.031C250.503 189.457 251.071 190.38 249.225 195.422L237.791 226.953C237.465 227.845 237.154 228.61 236.833 229.268ZM72.3589 186.653H65.6338V229.268H72.3589V186.653ZM18.1267 229.268L33.7061 186.653H41.2224L56.9164 229.268H49.7076L47.0245 221.4H27.7063L24.9507 229.268H18.1267ZM29.5524 216.125H45.2443L40.5631 202.411C40.1236 201.224 39.728 200.016 39.3763 198.785C39.0247 197.554 38.717 196.433 38.4533 195.422C38.1456 194.279 37.8599 193.137 37.5961 191.994H37.3983C37.0907 193.137 36.783 194.301 36.4753 195.488C36.1676 196.499 35.8379 197.62 35.4863 198.851C35.1347 200.082 34.761 201.268 34.3654 202.411L29.5524 216.125ZM264.99 127.17H231.43V176.223H238.156V153.543H260.507V147.807H238.156V133.104H264.99V127.17ZM199.113 177.279C195.42 177.279 192.08 176.642 189.091 175.367C186.146 174.048 183.618 172.246 181.509 169.96C179.443 167.675 177.86 164.971 176.761 161.851C175.663 158.73 175.113 155.345 175.113 151.697C175.113 148.005 175.663 144.598 176.761 141.478C177.86 138.357 179.443 135.675 181.509 133.434C183.618 131.148 186.146 129.368 189.091 128.093C192.08 126.775 195.42 126.115 199.113 126.115C202.805 126.115 206.123 126.775 209.068 128.093C212.057 129.368 214.585 131.148 216.651 133.434C218.76 135.675 220.365 138.357 221.464 141.478C222.606 144.598 223.178 148.005 223.178 151.697C223.178 155.345 222.606 158.73 221.464 161.851C220.365 164.971 218.76 167.675 216.651 169.96C214.585 172.246 212.057 174.048 209.068 175.367C206.123 176.642 202.805 177.279 199.113 177.279ZM199.113 171.345C201.882 171.345 204.321 170.861 206.431 169.894C208.585 168.883 210.387 167.499 211.838 165.741C213.288 163.982 214.365 161.917 215.068 159.543C215.815 157.126 216.189 154.51 216.189 151.697C216.189 148.884 215.815 146.269 215.068 143.851C214.365 141.434 213.288 139.346 211.838 137.587C210.387 135.829 208.585 134.445 206.431 133.434C204.321 132.423 201.882 131.917 199.113 131.917C196.343 131.917 193.882 132.423 191.728 133.434C189.618 134.445 187.838 135.829 186.388 137.587C184.937 139.346 183.838 141.434 183.091 143.851C182.344 146.269 181.97 148.884 181.97 151.697C181.97 154.51 182.344 157.126 183.091 159.543C183.838 161.917 184.937 163.982 186.388 165.741C187.838 167.499 189.618 168.883 191.728 169.894C193.882 170.861 196.343 171.345 199.113 171.345ZM328.558 67.6875H321.042L303.108 116.741H310.031L315.042 102.434H334.36L339.239 116.741H346.624L328.558 67.6875ZM327.899 83.4454L332.58 97.1594H316.888L321.701 83.4454C322.097 82.3026 322.471 81.1158 322.822 79.885C323.174 78.6543 323.504 77.5334 323.811 76.5225C324.119 75.3357 324.427 74.1709 324.734 73.028H324.932C325.196 74.1709 325.482 75.3137 325.789 76.4565C326.053 77.4675 326.361 78.5883 326.712 79.8191C327.064 81.0498 327.46 82.2586 327.899 83.4454ZM260.767 67.6875H283.711C285.909 67.6875 287.909 68.0172 289.711 68.6765C291.513 69.2919 293.052 70.1929 294.326 71.3797C295.645 72.5665 296.656 73.995 297.359 75.6653C298.062 77.3356 298.414 79.1817 298.414 81.2037C298.414 84.1926 297.733 86.742 296.37 88.8519C295.008 90.9177 292.7 92.4562 289.447 93.4671V93.6649C290.81 94.0605 291.953 94.588 292.876 95.2473C293.799 95.9066 294.546 96.7198 295.117 97.6868C295.689 98.6099 296.106 99.7307 296.37 101.049C296.678 102.368 296.898 103.906 297.029 105.665C297.161 107.599 297.315 109.225 297.491 110.544C297.667 111.818 297.843 112.873 298.018 113.708C298.194 114.5 298.37 115.115 298.546 115.555C298.766 115.95 299.007 116.236 299.271 116.412V116.741H292.085C291.821 116.522 291.601 116.192 291.425 115.752C291.249 115.313 291.096 114.675 290.964 113.84C290.832 113.005 290.722 111.95 290.634 110.676L290.304 105.731C290.085 102.258 289.206 99.8186 287.667 98.4121C286.129 97.0055 283.755 96.3022 280.546 96.3022H267.492V116.741H260.767V67.6875ZM267.492 90.8958H281.535C284.876 90.8958 287.359 90.1266 288.986 88.5881C290.656 87.0057 291.491 84.8739 291.491 82.1927C291.491 79.2916 290.744 77.1159 289.249 75.6653C287.799 74.2148 285.337 73.4896 281.865 73.4896H267.492V90.8958ZM153.526 67.6875H146.472V116.741H152.801V86.6761C152.801 85.6651 152.779 84.5662 152.735 83.3794C152.691 82.1927 152.647 81.0718 152.603 80.0169C152.516 78.7861 152.45 77.5554 152.406 76.3247H152.537C153.153 77.5114 153.79 78.6763 154.45 79.8191C155.021 80.8301 155.614 81.885 156.23 82.9839C156.889 84.0827 157.526 85.0937 158.142 86.0168L178.185 116.741H185.174V67.6875H178.845V97.6868V101.049C178.889 102.28 178.954 103.423 179.042 104.478L179.306 108.17H179.108C178.493 106.983 177.878 105.818 177.262 104.676C176.735 103.665 176.141 102.61 175.482 101.511C174.867 100.368 174.251 99.3351 173.636 98.4121L153.526 67.6875ZM114.544 67.6875H122.061L140.126 116.741H132.742L127.863 102.434H108.544L103.534 116.741H96.6106L114.544 67.6875ZM110.39 97.1594H126.082L121.401 83.4454C120.962 82.2586 120.566 81.0498 120.214 79.8191C119.863 78.5883 119.555 77.4675 119.291 76.4565C118.984 75.3137 118.698 74.1709 118.434 73.028H118.236C117.929 74.1709 117.621 75.3357 117.313 76.5225C117.006 77.5334 116.676 78.6543 116.324 79.885C115.973 81.1158 115.599 82.3026 115.204 83.4454L110.39 97.1594ZM239.244 115.688L246.867 103.689H244.872C238.532 111.357 235.51 111.468 225.322 111.468H223.398C219.978 111.468 217.2 111.184 216.772 110.688C216.416 110.404 216.559 109.765 217.057 108.416L222.644 93.1875H233.616C239.458 93.1875 240.241 93.3945 239.03 99.2872H241.717L247.772 82.8159H245.086C242.022 88.6377 241.015 88.6875 235.244 88.6875H224.272L229.066 74.6014C229.779 72.6135 230.349 72.1875 232.272 72.1875H241.89C249.941 72.1875 251.64 72.4503 250.5 78.8401H252.282L255.772 68.6875H217.942L217.443 70.0364C222.573 70.4624 223.143 71.3854 221.291 76.4262L209.82 107.949C207.968 112.99 206.614 113.984 201.271 114.339L200.772 115.688H239.244Z" fill="#0800EE"/>
</svg>
