<svg width="548" height="306" viewBox="0 0 548 306" fill="none" xmlns="http://www.w3.org/2000/svg">
<path d="M211.402 33.5915C200.529 30.0214 193.876 21.1772 193.876 11.6029V3.81352H186.249V10.9537C186.168 21.8263 179.596 31.4819 168.236 35.5388L172.374 41.7054C180.853 38.5409 187.02 32.1715 190.225 24.0171C193.349 31.1979 199.312 36.8776 207.264 39.6769L211.402 33.5915Z" fill="#0800EE"/>
<path d="M225.926 18.2562V0H218.218V43.8961H225.926V24.7473H236.474V18.2562H225.926Z" fill="#0800EE"/>
<path fill-rule="evenodd" clip-rule="evenodd" d="M226.575 59.0691C226.575 50.5495 217.406 45.6 202.477 45.6C187.385 45.6 178.054 50.5495 178.054 59.0691C178.054 67.6698 187.385 72.6192 202.477 72.5381C217.406 72.6192 226.575 67.6698 226.575 59.0691ZM185.762 59.0691C185.681 54.4441 191.929 51.6854 202.477 51.6854C212.944 51.6854 219.029 54.4441 219.029 59.0691C219.029 63.8563 212.944 66.4527 202.477 66.5338C191.929 66.4527 185.681 63.8563 185.762 59.0691Z" fill="#0800EE"/>
<path d="M302.479 0V37.405H294.852V0H302.479Z" fill="#0800EE"/>
<path d="M302.56 40.894V59.0691H262.478V65.8036H304.995V71.9701H255.013V53.2271H294.933V46.9794H254.77V40.894H302.56Z" fill="#0800EE"/>
<path d="M268.726 7.54591C268.644 17.2826 275.703 26.1267 286.82 29.6157L283.006 35.6199C274.527 32.8612 268.158 27.1004 264.912 19.7167C261.585 27.6683 255.094 33.9972 246.412 36.9993L242.518 30.9139C253.877 27.1004 260.855 17.6071 260.855 7.54591V1.94733H268.726V7.54591Z" fill="#0800EE"/>
<path fill-rule="evenodd" clip-rule="evenodd" d="M359.234 22.4755C359.153 12.252 350.958 5.11175 339.436 5.19288C327.995 5.11175 319.557 12.252 319.638 22.4755C319.557 32.6989 327.995 39.8392 339.436 39.8392C350.958 39.8392 359.153 32.6989 359.234 22.4755ZM327.265 22.4755C327.184 16.0655 332.377 11.8463 339.436 11.8463C346.495 11.8463 351.688 16.0655 351.688 22.4755C351.688 28.8854 346.495 33.1046 339.436 33.1046C332.377 33.1046 327.184 28.8854 327.265 22.4755Z" fill="#0800EE"/>
<path d="M375.867 72.8627V0H368.159V72.8627H375.867Z" fill="#0800EE"/>
<path d="M363.615 48.3587C347.712 50.6306 329.375 50.7929 316.149 50.7929L317.123 57.2029C330.105 57.2029 347.712 57.1217 364.183 53.9573L363.615 48.3587Z" fill="#0800EE"/>
<path d="M437.854 18.4996C437.773 31.8064 445.805 45.1132 457.084 50.1438L452.459 56.2292C444.102 52.2534 437.489 44.0989 434.121 34.1594C430.714 44.7886 424.02 53.5922 415.297 57.852L410.591 51.3609C422.032 46.2491 430.065 32.3744 430.065 18.4996V6.08541H437.854V18.4996Z" fill="#0800EE"/>
<path d="M471.364 0V72.8627H463.656V0H471.364Z" fill="#0800EE"/>
<path d="M547.025 72.7004H539.641V35.1331H530.229V68.968H523.17V1.4605H530.229V28.8043H539.641V0H547.025V72.7004Z" fill="#0800EE"/>
<path d="M514.326 8.76299V15.0107H494.772V48.6833C503.697 48.6021 510.431 48.1965 518.221 46.736L518.789 53.0648C510.026 54.8498 502.561 55.1744 491.932 55.2555H487.063V8.76299H514.326Z" fill="#0800EE"/>
<path fill-rule="evenodd" clip-rule="evenodd" d="M131.24 3.00213V27.9118H110.307V36.3502H139.679V42.5979H73.3885V36.3502H102.68V27.9118H81.8269V3.00213H131.24ZM89.3728 9.08754V21.7452H123.613V9.08754H89.3728Z" fill="#0800EE"/>
<path d="M131.565 49.4947V72.7004H123.776V55.5801H80.7721V49.4947H131.565Z" fill="#0800EE"/>
<path d="M57.9331 7.46452V2.92075H7.70819V9.0873H50.2249C50.2249 13.2254 50.0626 17.8503 48.9267 24.098L56.5537 24.7471C57.7579 18.1993 57.8452 12.8383 57.9162 8.4698L57.9162 8.46842L57.9163 8.46402L57.9166 8.44887L57.9166 8.44713C57.922 8.11384 57.9274 7.78633 57.9331 7.46452Z" fill="#0800EE"/>
<path d="M66.1281 34.5649V28.4795H34.0783V16.4709H26.5324V28.4795H0V34.5649H66.1281Z" fill="#0800EE"/>
<path d="M58.0954 58.582V40.5692H7.70819V46.8168H50.4683V53.2268H7.78933V71.9699H59.9616V65.8033H15.4975V58.582H58.0954Z" fill="#0800EE"/>
<path d="M260.853 279.294L237.914 242.317H247.672L259.142 261.491C259.769 262.632 260.454 263.887 261.196 265.257C261.938 266.626 262.622 267.91 263.25 269.109L265.39 273.388H265.561C266.246 271.962 266.959 270.535 267.701 269.109C268.329 267.91 269.013 266.626 269.755 265.257C270.497 263.887 271.21 262.632 271.895 261.491L283.451 242.317H292.78L269.584 279.722V293.268H260.853V279.294Z" fill="#0800EE"/>
<path d="M194.688 293.268V276.555H227.728V269.28H194.688V250.021H231.237V242.317H185.957V293.268H194.688Z" fill="#0800EE"/>
<path d="M143.782 293.268V242.317H135.051V293.268H143.782Z" fill="#0800EE"/>
<path d="M96.9913 298.04H92.8764V242.317H84.1457V293.37C90.029 294.141 94.5712 299.174 94.5712 305.268C94.5712 302.554 95.4721 300.05 96.9913 298.04Z" fill="#0800EE"/>
<path fill-rule="evenodd" clip-rule="evenodd" d="M71.2189 293.268L52.455 242.317H42.6971L24.0702 293.268H32.8621L34.908 287.426H59.9873L61.9794 293.268H71.2189ZM37.3047 280.578H57.6763L51.599 262.775C51.0284 261.234 50.5148 259.665 50.0583 258.067C49.6018 256.469 49.2024 255.014 48.86 253.701C48.4605 252.218 48.0896 250.734 47.7472 249.251H47.4905C47.091 250.734 46.6916 252.246 46.2921 253.787C45.8927 255.1 45.4647 256.555 45.0082 258.152C44.5517 259.75 44.0667 261.291 43.5531 262.775L37.3047 280.578Z" fill="#0800EE"/>
<path d="M512.626 293.268C513.435 291.97 514.105 290.607 514.612 289.195C517.378 281.543 514.52 275.643 504.747 269.005C497.003 263.75 494.606 259.694 496.45 254.623C498.294 249.553 503.365 246.142 509.081 246.142C513.229 246.142 516.456 247.893 518.484 251.212C520.236 254.162 520.697 256.559 520.236 261.999H522.541L527.611 242.362H525.675C524.569 244.39 523.186 245.496 521.619 245.496C520.697 245.496 519.314 245.127 517.931 244.39C514.981 243.099 511.939 242.362 508.712 242.362C505.116 242.362 500.691 243.837 496.911 246.234C492.209 249.184 488.983 253.148 487.139 258.219C484.465 265.502 486.678 270.665 495.067 276.104C500.414 279.7 503.826 283.387 504.84 286.891C505.208 288.181 505.024 290.025 504.194 292.33C504.079 292.648 503.952 292.96 503.816 293.268H512.626Z" fill="#0800EE"/>
<path d="M477.309 293.268C476.797 291.29 476.482 288.985 476.352 286.337H474.232L472.695 293.268H477.309Z" fill="#0800EE"/>
<path d="M464.573 293.298C465.39 291.991 466.066 290.618 466.577 289.195C469.343 281.543 466.485 275.643 456.713 269.005C448.969 263.75 446.572 259.694 448.416 254.623C450.259 249.553 455.33 246.142 461.046 246.142C465.195 246.142 468.421 247.893 470.45 251.212C472.201 254.162 472.662 256.559 472.201 261.999H474.506L479.577 242.362H477.641C476.534 244.39 475.151 245.496 473.584 245.496C472.662 245.496 471.279 245.127 469.896 244.39C466.946 243.099 463.904 242.362 460.677 242.362C457.082 242.362 452.656 243.837 448.876 246.234C444.175 249.184 440.948 253.148 439.104 258.219C436.43 265.502 438.643 270.665 447.033 276.104C452.38 279.7 455.791 283.387 456.805 286.891C457.174 288.181 456.989 290.025 456.16 292.33C455.234 294.875 453.615 297.098 451.552 298.822C452.391 300.137 452.98 301.625 453.254 303.221C453.382 303.16 453.509 303.097 453.636 303.034C454.631 297.747 459.095 293.684 464.573 293.298Z" fill="#0800EE"/>
<path d="M424.661 293.268H429.274C428.762 291.29 428.448 288.985 428.318 286.337H426.197L424.661 293.268Z" fill="#0800EE"/>
<path d="M411.308 293.268C416.585 288.176 420.826 281.787 423.459 274.537C426.778 265.41 426.962 257.573 423.92 252.042C420.417 245.681 413.871 242.362 405.021 242.362C387.412 242.362 369.987 255.637 363.257 274.168C360.709 281.213 360.172 288.074 361.694 293.268H371.03C370.204 288.416 371.15 281.617 373.767 274.352C377.179 264.949 382.987 256.006 388.426 251.673C393.497 247.709 398.752 245.681 403.822 245.681C408.063 245.681 411.751 247.34 413.963 250.29C417.282 254.808 416.914 263.474 412.949 274.445C411.013 279.884 407.51 286.245 403.914 291.039C403.378 291.784 402.755 292.529 402.061 293.268H411.308Z" fill="#0800EE"/>
<path d="M352.819 293.268H349.191C350.556 292.033 351.94 290.513 353.465 288.642H355.77L352.819 293.268Z" fill="#0800EE"/>
<path d="M317.843 293.268H308.141L322.488 253.701C324.885 247.156 324.148 245.957 317.51 245.404L318.155 243.652H344.153L343.508 245.404C336.04 245.865 334.289 247.156 331.892 253.701L317.843 293.268Z" fill="#0800EE"/>
<path d="M342.954 165.094H299.386V228.777H308.117V199.332H337.134V191.886H308.117V172.798H342.954V165.094Z" fill="#0800EE"/>
<path fill-rule="evenodd" clip-rule="evenodd" d="M257.431 230.147C252.638 230.147 248.301 229.32 244.421 227.665C240.597 225.953 237.316 223.614 234.577 220.646C231.895 217.679 229.841 214.17 228.414 210.118C226.988 206.067 226.275 201.673 226.275 196.936C226.275 192.143 226.988 187.721 228.414 183.669C229.841 179.618 231.895 176.137 234.577 173.227C237.316 170.259 240.597 167.948 244.421 166.293C248.301 164.581 252.638 163.726 257.431 163.726C262.224 163.726 266.533 164.581 270.356 166.293C274.236 167.948 277.517 170.259 280.199 173.227C282.938 176.137 285.021 179.618 286.448 183.669C287.931 187.721 288.673 192.143 288.673 196.936C288.673 201.673 287.931 206.067 286.448 210.118C285.021 214.17 282.938 217.679 280.199 220.646C277.517 223.614 274.236 225.953 270.356 227.665C266.533 229.32 262.224 230.147 257.431 230.147ZM257.431 222.444C261.026 222.444 264.193 221.816 266.932 220.561C269.728 219.248 272.068 217.451 273.951 215.168C275.834 212.886 277.232 210.204 278.145 207.122C279.115 203.984 279.6 200.588 279.6 196.936C279.6 193.284 279.115 189.889 278.145 186.751C277.232 183.612 275.834 180.902 273.951 178.619C272.068 176.337 269.728 174.539 266.932 173.227C264.193 171.914 261.026 171.258 257.431 171.258C253.836 171.258 250.641 171.914 247.844 173.227C245.105 174.539 242.794 176.337 240.911 178.619C239.028 180.902 237.602 183.612 236.632 186.751C235.661 189.889 235.176 193.284 235.176 196.936C235.176 200.588 235.661 203.984 236.632 207.122C237.602 210.204 239.028 212.886 240.911 215.168C242.794 217.451 245.105 219.248 247.844 220.561C250.641 221.816 253.836 222.444 257.431 222.444Z" fill="#0800EE"/>
<path fill-rule="evenodd" clip-rule="evenodd" d="M425.48 87.8732H415.723L392.441 151.556H401.428L407.933 132.982H433.013L439.347 151.556H448.933L425.48 87.8732ZM430.702 126.134H410.33L416.579 108.33C417.092 106.847 417.577 105.306 418.034 103.708C418.49 102.111 418.918 100.655 419.318 99.3429C419.717 97.8022 420.116 96.29 420.516 94.8064H420.773C421.115 96.29 421.486 97.7737 421.885 99.2573C422.228 100.57 422.627 102.025 423.084 103.623C423.54 105.22 424.054 106.79 424.624 108.33L430.702 126.134Z" fill="#0800EE"/>
<path fill-rule="evenodd" clip-rule="evenodd" d="M337.471 87.8732H367.258C370.111 87.8732 372.708 88.3012 375.047 89.1571C377.387 89.956 379.384 91.1258 381.039 92.6665C382.751 94.2072 384.063 96.0618 384.976 98.2302C385.889 100.399 386.346 102.795 386.346 105.42C386.346 109.3 385.461 112.61 383.693 115.349C381.924 118.031 378.928 120.028 374.705 121.341V121.598C376.474 122.111 377.958 122.796 379.156 123.652C380.354 124.508 381.324 125.564 382.066 126.819C382.808 128.017 383.35 129.472 383.693 131.184C384.092 132.896 384.377 134.893 384.548 137.176C384.72 139.687 384.919 141.798 385.148 143.51C385.376 145.165 385.604 146.534 385.832 147.619C386.061 148.646 386.289 149.445 386.517 150.015C386.802 150.529 387.116 150.9 387.459 151.128V151.556H378.129C377.786 151.271 377.501 150.843 377.273 150.272C377.045 149.701 376.845 148.874 376.674 147.79C376.503 146.706 376.36 145.336 376.246 143.681L375.818 137.262C375.532 132.754 374.391 129.587 372.394 127.76C370.397 125.934 367.315 125.021 363.15 125.021H346.202V151.556H337.471V87.8732ZM346.202 118.003H364.434C368.77 118.003 371.995 117.004 374.106 115.007C376.274 112.953 377.358 110.185 377.358 106.704C377.358 102.938 376.388 100.113 374.448 98.2302C372.565 96.3471 369.37 95.4056 364.862 95.4056H346.202V118.003Z" fill="#0800EE"/>
<path d="M198.25 87.8732H189.091V151.556H197.308V112.525C197.308 111.212 197.28 109.786 197.223 108.245C197.166 106.704 197.109 105.249 197.052 103.879C196.937 102.282 196.852 100.684 196.795 99.0861H196.966C197.765 100.627 198.592 102.139 199.448 103.623C200.19 104.935 200.96 106.305 201.759 107.731C202.615 109.158 203.443 110.47 204.242 111.669L230.262 151.556H239.336V87.8732H231.118V131.184C231.175 132.782 231.261 134.266 231.375 135.635L231.718 140.429H231.461C230.662 138.888 229.863 137.376 229.064 135.892C228.379 134.58 227.609 133.21 226.753 131.783C225.954 130.3 225.155 128.959 224.356 127.76L198.25 87.8732Z" fill="#0800EE"/>
<path fill-rule="evenodd" clip-rule="evenodd" d="M147.642 87.8732H157.4L180.853 151.556H171.266L164.932 132.982H139.853L133.348 151.556H124.36L147.642 87.8732ZM162.621 126.134L156.544 108.33C155.973 106.79 155.46 105.22 155.003 103.623C154.547 102.025 154.147 100.57 153.805 99.2573C153.406 97.7737 153.035 96.29 152.692 94.8064H152.436C152.036 96.29 151.637 97.8022 151.237 99.3429C150.838 100.655 150.41 102.111 149.953 103.708C149.497 105.306 149.012 106.847 148.498 108.33L142.25 126.134H162.621Z" fill="#0800EE"/>
<path d="M309.53 150.188L319.426 134.611H316.837C308.605 144.565 304.682 144.711 291.456 144.711H288.959C284.519 144.711 280.912 144.342 280.357 143.697C279.895 143.328 280.079 142.498 280.727 140.747L287.98 120.978H302.223C309.807 120.978 310.825 121.246 309.252 128.897H312.74L320.602 107.513H317.114C313.137 115.071 311.829 115.136 304.337 115.136H290.094L296.317 96.849C297.242 94.2682 297.982 93.7152 300.479 93.7152H312.966C323.417 93.7152 325.623 94.0564 324.143 102.352H326.456L330.988 89.1714H281.875L281.228 90.9226C287.887 91.4757 288.627 92.6739 286.223 99.2179L271.332 140.141C268.927 146.685 267.17 147.976 260.233 148.437L259.585 150.188H309.53Z" fill="#0800EE"/>
</svg>
