<svg width="2514" height="639" viewBox="0 0 2514 639" fill="none" xmlns="http://www.w3.org/2000/svg">
<rect x="1.00024" y="1.26758" width="358.857" height="63.5897" rx="12" stroke="#0034EE" stroke-width="2"/>
<rect x="1.00024" y="255.626" width="358.857" height="63.5897" rx="12" stroke="#0034EE" stroke-width="2"/>
<rect x="1.00024" y="128.447" width="358.857" height="63.5897" rx="12" stroke="#0034EE" stroke-width="2"/>
<rect x="1.00024" y="382.806" width="358.857" height="63.5897" rx="12" stroke="#0034EE" stroke-width="2"/>
<rect x="1" y="509.985" width="358.857" height="63.5897" rx="12" stroke="#0034EE" stroke-width="2"/>
<rect x="1.00024" y="64.8574" width="179.429" height="63.5897" rx="12" stroke="#0034EE" stroke-width="2"/>
<rect x="1.00024" y="319.216" width="179.429" height="63.5897" rx="12" stroke="#0034EE" stroke-width="2"/>
<rect x="1.00024" y="192.037" width="179.429" height="63.5897" rx="12" stroke="#0034EE" stroke-width="2"/>
<rect x="1.00024" y="446.396" width="179.429" height="63.5897" rx="12" stroke="#0034EE" stroke-width="2"/>
<rect x="1" y="573.575" width="179.429" height="63.5897" rx="12" stroke="#0034EE" stroke-width="2"/>
<rect x="2333.57" y="64.8574" width="179.429" height="63.5897" rx="12" stroke="#0034EE" stroke-width="2"/>
<rect x="2333.57" y="319.216" width="179.429" height="63.5897" rx="12" stroke="#0034EE" stroke-width="2"/>
<rect x="2333.57" y="192.037" width="179.429" height="63.5897" rx="12" stroke="#0034EE" stroke-width="2"/>
<rect x="2333.57" y="446.396" width="179.429" height="63.5897" rx="12" stroke="#0034EE" stroke-width="2"/>
<rect x="2333.57" y="573.575" width="179.429" height="63.5897" rx="12" stroke="#0034EE" stroke-width="2"/>
<rect x="359.857" y="1.26758" width="358.857" height="63.5897" rx="12" stroke="#0034EE" stroke-width="2"/>
<rect x="359.857" y="255.626" width="358.857" height="63.5897" rx="12" stroke="#0034EE" stroke-width="2"/>
<rect x="359.857" y="128.447" width="358.857" height="63.5897" rx="12" stroke="#0034EE" stroke-width="2"/>
<rect x="359.857" y="382.806" width="358.857" height="63.5897" rx="12" stroke="#0034EE" stroke-width="2"/>
<rect x="359.857" y="509.985" width="358.857" height="63.5897" rx="12" stroke="#0034EE" stroke-width="2"/>
<rect x="180.429" y="64.8574" width="358.857" height="63.5897" rx="12" stroke="#0034EE" stroke-width="2"/>
<rect x="180.429" y="319.216" width="358.857" height="63.5897" rx="12" stroke="#0034EE" stroke-width="2"/>
<rect x="180.429" y="192.037" width="358.857" height="63.5897" rx="12" stroke="#0034EE" stroke-width="2"/>
<rect x="180.429" y="446.396" width="358.857" height="63.5897" rx="12" stroke="#0034EE" stroke-width="2"/>
<rect x="180.429" y="573.575" width="358.857" height="63.5897" rx="12" stroke="#0034EE" stroke-width="2"/>
<rect x="718.714" y="1.26758" width="358.857" height="63.5897" rx="12" stroke="#0034EE" stroke-width="2"/>
<rect x="718.714" y="255.626" width="358.857" height="63.5897" rx="12" stroke="#0034EE" stroke-width="2"/>
<rect x="718.714" y="128.447" width="358.857" height="63.5897" rx="12" stroke="#0034EE" stroke-width="2"/>
<rect x="718.714" y="382.806" width="358.857" height="63.5897" rx="12" stroke="#0034EE" stroke-width="2"/>
<rect x="718.714" y="509.985" width="358.857" height="63.5897" rx="12" stroke="#0034EE" stroke-width="2"/>
<rect x="539.286" y="64.8574" width="358.857" height="63.5897" rx="12" stroke="#0034EE" stroke-width="2"/>
<rect x="539.286" y="319.216" width="358.857" height="63.5897" rx="12" stroke="#0034EE" stroke-width="2"/>
<rect x="539.286" y="192.037" width="358.857" height="63.5897" rx="12" stroke="#0034EE" stroke-width="2"/>
<rect x="539.286" y="446.396" width="358.857" height="63.5897" rx="12" stroke="#0034EE" stroke-width="2"/>
<rect x="539.286" y="573.575" width="358.857" height="63.5897" rx="12" stroke="#0034EE" stroke-width="2"/>
<rect x="1077.57" y="1.26758" width="358.857" height="63.5897" rx="12" stroke="#0034EE" stroke-width="2"/>
<rect x="1077.57" y="255.626" width="358.857" height="63.5897" rx="12" stroke="#0034EE" stroke-width="2"/>
<rect x="1077.57" y="128.447" width="358.857" height="63.5897" rx="12" stroke="#0034EE" stroke-width="2"/>
<rect x="1077.57" y="382.806" width="358.857" height="63.5897" rx="12" stroke="#0034EE" stroke-width="2"/>
<rect x="1077.57" y="509.985" width="358.857" height="63.5897" rx="12" stroke="#0034EE" stroke-width="2"/>
<rect x="898.143" y="64.8574" width="358.857" height="63.5897" rx="12" stroke="#0034EE" stroke-width="2"/>
<rect x="898.143" y="319.216" width="358.857" height="63.5897" rx="12" stroke="#0034EE" stroke-width="2"/>
<rect x="898.143" y="192.037" width="358.857" height="63.5897" rx="12" stroke="#0034EE" stroke-width="2"/>
<rect x="898.143" y="446.396" width="358.857" height="63.5897" rx="12" stroke="#0034EE" stroke-width="2"/>
<rect x="898.143" y="573.575" width="358.857" height="63.5897" rx="12" stroke="#0034EE" stroke-width="2"/>
<rect x="1436.43" y="1.26758" width="358.857" height="63.5897" rx="12" stroke="#0034EE" stroke-width="2"/>
<rect x="1436.43" y="255.626" width="358.857" height="63.5897" rx="12" stroke="#0034EE" stroke-width="2"/>
<rect x="1436.43" y="128.447" width="358.857" height="63.5897" rx="12" stroke="#0034EE" stroke-width="2"/>
<rect x="1436.43" y="382.806" width="358.857" height="63.5897" rx="12" stroke="#0034EE" stroke-width="2"/>
<rect x="1436.43" y="509.985" width="358.857" height="63.5897" rx="12" stroke="#0034EE" stroke-width="2"/>
<rect x="1257" y="64.8574" width="358.857" height="63.5897" rx="12" stroke="#0034EE" stroke-width="2"/>
<rect x="1257" y="319.216" width="358.857" height="63.5897" rx="12" stroke="#0034EE" stroke-width="2"/>
<rect x="1257" y="192.037" width="358.857" height="63.5897" rx="12" stroke="#0034EE" stroke-width="2"/>
<rect x="1257" y="446.396" width="358.857" height="63.5897" rx="12" stroke="#0034EE" stroke-width="2"/>
<rect x="1257" y="573.575" width="358.857" height="63.5897" rx="12" stroke="#0034EE" stroke-width="2"/>
<rect x="1795.28" y="1.26758" width="358.857" height="63.5897" rx="12" stroke="#0034EE" stroke-width="2"/>
<rect x="1795.28" y="255.626" width="358.857" height="63.5897" rx="12" stroke="#0034EE" stroke-width="2"/>
<rect x="1795.28" y="128.447" width="358.857" height="63.5897" rx="12" stroke="#0034EE" stroke-width="2"/>
<rect x="1795.28" y="382.806" width="358.857" height="63.5897" rx="12" stroke="#0034EE" stroke-width="2"/>
<rect x="1795.28" y="509.985" width="358.857" height="63.5897" rx="12" stroke="#0034EE" stroke-width="2"/>
<rect x="1615.86" y="64.8574" width="358.857" height="63.5897" rx="12" stroke="#0034EE" stroke-width="2"/>
<rect x="1615.86" y="319.216" width="358.857" height="63.5897" rx="12" stroke="#0034EE" stroke-width="2"/>
<rect x="1615.86" y="192.037" width="358.857" height="63.5897" rx="12" stroke="#0034EE" stroke-width="2"/>
<rect x="1615.86" y="446.396" width="358.857" height="63.5897" rx="12" stroke="#0034EE" stroke-width="2"/>
<rect x="1615.86" y="573.575" width="358.857" height="63.5897" rx="12" stroke="#0034EE" stroke-width="2"/>
<rect x="2154.14" y="1.26758" width="358.857" height="63.5897" rx="12" stroke="#0034EE" stroke-width="2"/>
<rect x="2154.14" y="255.626" width="358.857" height="63.5897" rx="12" stroke="#0034EE" stroke-width="2"/>
<rect x="2154.14" y="128.447" width="358.857" height="63.5897" rx="12" stroke="#0034EE" stroke-width="2"/>
<rect x="2154.14" y="382.806" width="358.857" height="63.5897" rx="12" stroke="#0034EE" stroke-width="2"/>
<rect x="2154.14" y="509.985" width="358.857" height="63.5897" rx="12" stroke="#0034EE" stroke-width="2"/>
<rect x="1974.71" y="64.8574" width="358.857" height="63.5897" rx="12" stroke="#0034EE" stroke-width="2"/>
<rect x="1974.71" y="319.216" width="358.857" height="63.5897" rx="12" stroke="#0034EE" stroke-width="2"/>
<rect x="1974.71" y="192.037" width="358.857" height="63.5897" rx="12" stroke="#0034EE" stroke-width="2"/>
<rect x="1974.71" y="446.396" width="358.857" height="63.5897" rx="12" stroke="#0034EE" stroke-width="2"/>
<rect x="1974.71" y="573.575" width="358.857" height="63.5897" rx="12" stroke="#0034EE" stroke-width="2"/>
</svg>
