<svg width="1874" height="483" viewBox="0 0 1874 483" fill="none" xmlns="http://www.w3.org/2000/svg">
<rect x="1.00024" y="1.26758" width="267.428" height="48" rx="12" stroke="#0034EE" stroke-width="2"/>
<rect x="1.00024" y="193.268" width="267.428" height="48" rx="12" stroke="#0034EE" stroke-width="2"/>
<rect x="1.00024" y="97.2676" width="267.428" height="48" rx="12" stroke="#0034EE" stroke-width="2"/>
<rect x="1.00024" y="289.268" width="267.428" height="48" rx="12" stroke="#0034EE" stroke-width="2"/>
<rect x="1" y="385.268" width="267.428" height="48" rx="12" stroke="#0034EE" stroke-width="2"/>
<rect x="1.00024" y="49.2676" width="133.714" height="48" rx="12" stroke="#0034EE" stroke-width="2"/>
<rect x="1.00024" y="241.268" width="133.714" height="48" rx="12" stroke="#0034EE" stroke-width="2"/>
<rect x="1.00024" y="145.268" width="133.714" height="48" rx="12" stroke="#0034EE" stroke-width="2"/>
<rect x="1.00024" y="337.268" width="133.714" height="48" rx="12" stroke="#0034EE" stroke-width="2"/>
<rect x="1" y="433.268" width="133.714" height="48" rx="12" stroke="#0034EE" stroke-width="2"/>
<rect x="1739.29" y="49.2676" width="133.714" height="48" rx="12" stroke="#0034EE" stroke-width="2"/>
<rect x="1739.29" y="241.268" width="133.714" height="48" rx="12" stroke="#0034EE" stroke-width="2"/>
<rect x="1739.29" y="145.268" width="133.714" height="48" rx="12" stroke="#0034EE" stroke-width="2"/>
<rect x="1739.29" y="337.268" width="133.714" height="48" rx="12" stroke="#0034EE" stroke-width="2"/>
<rect x="1739.29" y="433.268" width="133.714" height="48" rx="12" stroke="#0034EE" stroke-width="2"/>
<rect x="268.428" y="1.26758" width="267.428" height="48" rx="12" stroke="#0034EE" stroke-width="2"/>
<rect x="268.428" y="193.268" width="267.428" height="48" rx="12" stroke="#0034EE" stroke-width="2"/>
<rect x="268.428" y="97.2676" width="267.428" height="48" rx="12" stroke="#0034EE" stroke-width="2"/>
<rect x="268.428" y="289.268" width="267.428" height="48" rx="12" stroke="#0034EE" stroke-width="2"/>
<rect x="268.428" y="385.268" width="267.428" height="48" rx="12" stroke="#0034EE" stroke-width="2"/>
<rect x="134.714" y="49.2676" width="267.428" height="48" rx="12" stroke="#0034EE" stroke-width="2"/>
<rect x="134.714" y="241.268" width="267.428" height="48" rx="12" stroke="#0034EE" stroke-width="2"/>
<rect x="134.714" y="145.268" width="267.428" height="48" rx="12" stroke="#0034EE" stroke-width="2"/>
<rect x="134.714" y="337.268" width="267.428" height="48" rx="12" stroke="#0034EE" stroke-width="2"/>
<rect x="134.714" y="433.268" width="267.428" height="48" rx="12" stroke="#0034EE" stroke-width="2"/>
<rect x="535.857" y="1.26758" width="267.428" height="48" rx="12" stroke="#0034EE" stroke-width="2"/>
<rect x="535.857" y="193.268" width="267.428" height="48" rx="12" stroke="#0034EE" stroke-width="2"/>
<rect x="535.857" y="97.2676" width="267.428" height="48" rx="12" stroke="#0034EE" stroke-width="2"/>
<rect x="535.857" y="289.268" width="267.428" height="48" rx="12" stroke="#0034EE" stroke-width="2"/>
<rect x="535.857" y="385.268" width="267.428" height="48" rx="12" stroke="#0034EE" stroke-width="2"/>
<rect x="402.143" y="49.2676" width="267.428" height="48" rx="12" stroke="#0034EE" stroke-width="2"/>
<rect x="402.143" y="241.268" width="267.428" height="48" rx="12" stroke="#0034EE" stroke-width="2"/>
<rect x="402.143" y="145.268" width="267.428" height="48" rx="12" stroke="#0034EE" stroke-width="2"/>
<rect x="402.143" y="337.268" width="267.428" height="48" rx="12" stroke="#0034EE" stroke-width="2"/>
<rect x="402.143" y="433.268" width="267.428" height="48" rx="12" stroke="#0034EE" stroke-width="2"/>
<rect x="803.286" y="1.26758" width="267.428" height="48" rx="12" stroke="#0034EE" stroke-width="2"/>
<rect x="803.286" y="193.268" width="267.428" height="48" rx="12" stroke="#0034EE" stroke-width="2"/>
<rect x="803.286" y="97.2676" width="267.428" height="48" rx="12" stroke="#0034EE" stroke-width="2"/>
<rect x="803.286" y="289.268" width="267.428" height="48" rx="12" stroke="#0034EE" stroke-width="2"/>
<rect x="803.286" y="385.268" width="267.428" height="48" rx="12" stroke="#0034EE" stroke-width="2"/>
<rect x="669.571" y="49.2676" width="267.428" height="48" rx="12" stroke="#0034EE" stroke-width="2"/>
<rect x="669.571" y="241.268" width="267.428" height="48" rx="12" stroke="#0034EE" stroke-width="2"/>
<rect x="669.571" y="145.268" width="267.428" height="48" rx="12" stroke="#0034EE" stroke-width="2"/>
<rect x="669.571" y="337.268" width="267.428" height="48" rx="12" stroke="#0034EE" stroke-width="2"/>
<rect x="669.571" y="433.268" width="267.428" height="48" rx="12" stroke="#0034EE" stroke-width="2"/>
<rect x="1070.71" y="1.26758" width="267.428" height="48" rx="12" stroke="#0034EE" stroke-width="2"/>
<rect x="1070.71" y="193.268" width="267.428" height="48" rx="12" stroke="#0034EE" stroke-width="2"/>
<rect x="1070.71" y="97.2676" width="267.428" height="48" rx="12" stroke="#0034EE" stroke-width="2"/>
<rect x="1070.71" y="289.268" width="267.428" height="48" rx="12" stroke="#0034EE" stroke-width="2"/>
<rect x="1070.71" y="385.268" width="267.428" height="48" rx="12" stroke="#0034EE" stroke-width="2"/>
<rect x="937" y="49.2676" width="267.428" height="48" rx="12" stroke="#0034EE" stroke-width="2"/>
<rect x="937" y="241.268" width="267.428" height="48" rx="12" stroke="#0034EE" stroke-width="2"/>
<rect x="937" y="145.268" width="267.428" height="48" rx="12" stroke="#0034EE" stroke-width="2"/>
<rect x="937" y="337.268" width="267.428" height="48" rx="12" stroke="#0034EE" stroke-width="2"/>
<rect x="937" y="433.268" width="267.428" height="48" rx="12" stroke="#0034EE" stroke-width="2"/>
<rect x="1338.14" y="1.26758" width="267.428" height="48" rx="12" stroke="#0034EE" stroke-width="2"/>
<rect x="1338.14" y="193.268" width="267.428" height="48" rx="12" stroke="#0034EE" stroke-width="2"/>
<rect x="1338.14" y="97.2676" width="267.428" height="48" rx="12" stroke="#0034EE" stroke-width="2"/>
<rect x="1338.14" y="289.268" width="267.428" height="48" rx="12" stroke="#0034EE" stroke-width="2"/>
<rect x="1338.14" y="385.268" width="267.428" height="48" rx="12" stroke="#0034EE" stroke-width="2"/>
<rect x="1204.43" y="49.2676" width="267.428" height="48" rx="12" stroke="#0034EE" stroke-width="2"/>
<rect x="1204.43" y="241.268" width="267.428" height="48" rx="12" stroke="#0034EE" stroke-width="2"/>
<rect x="1204.43" y="145.268" width="267.428" height="48" rx="12" stroke="#0034EE" stroke-width="2"/>
<rect x="1204.43" y="337.268" width="267.428" height="48" rx="12" stroke="#0034EE" stroke-width="2"/>
<rect x="1204.43" y="433.268" width="267.428" height="48" rx="12" stroke="#0034EE" stroke-width="2"/>
<rect x="1605.57" y="1.26758" width="267.428" height="48" rx="12" stroke="#0034EE" stroke-width="2"/>
<rect x="1605.57" y="193.268" width="267.428" height="48" rx="12" stroke="#0034EE" stroke-width="2"/>
<rect x="1605.57" y="97.2676" width="267.428" height="48" rx="12" stroke="#0034EE" stroke-width="2"/>
<rect x="1605.57" y="289.268" width="267.428" height="48" rx="12" stroke="#0034EE" stroke-width="2"/>
<rect x="1605.57" y="385.268" width="267.428" height="48" rx="12" stroke="#0034EE" stroke-width="2"/>
<rect x="1471.86" y="49.2676" width="267.428" height="48" rx="12" stroke="#0034EE" stroke-width="2"/>
<rect x="1471.86" y="241.268" width="267.428" height="48" rx="12" stroke="#0034EE" stroke-width="2"/>
<rect x="1471.86" y="145.268" width="267.428" height="48" rx="12" stroke="#0034EE" stroke-width="2"/>
<rect x="1471.86" y="337.268" width="267.428" height="48" rx="12" stroke="#0034EE" stroke-width="2"/>
<rect x="1471.86" y="433.268" width="267.428" height="48" rx="12" stroke="#0034EE" stroke-width="2"/>
</svg>
