<svg width="36" height="36" viewBox="0 0 36 36" fill="none" xmlns="http://www.w3.org/2000/svg">
<g id="fluent:arrow-fit-24-regular" clip-path="url(#clip0_647_27)">
<g id="Group 211">
<path id="Vector" d="M19.9973 7.10541C20.0055 7.50336 19.8552 7.89248 19.5793 8.18719C19.3035 8.4819 18.9248 8.65805 18.5265 8.6769L11.7114 9.00282L19.7795 17.0709C20.0575 17.3489 20.2106 17.7288 20.2053 18.1272C20.2 18.5256 20.0366 18.9098 19.7512 19.1952C19.4657 19.4807 19.0816 19.644 18.6832 19.6494C18.2848 19.6547 17.9048 19.5015 17.6269 19.2236L9.55877 11.1554L9.23285 17.9705C9.22538 18.169 9.17867 18.3651 9.09542 18.5474C9.01218 18.7298 8.89405 18.8948 8.74786 19.0329C8.60167 19.171 8.43032 19.2795 8.24372 19.3521C8.05711 19.4247 7.85894 19.46 7.66067 19.4559C7.4624 19.4518 7.26796 19.4084 7.08857 19.3283C6.90919 19.2481 6.74842 19.1328 6.61557 18.9889C6.48271 18.845 6.38039 18.6755 6.31453 18.49C6.24868 18.3046 6.22058 18.107 6.23187 17.9086L6.72281 7.63639C6.74083 7.25572 6.90259 6.89223 7.17539 6.61943C7.44818 6.34663 7.81167 6.18487 8.19234 6.16686L18.4645 5.67591C18.8628 5.6571 19.2481 5.79713 19.5355 6.06521C19.823 6.33329 19.9891 6.70746 19.9973 7.10541Z" fill="#0800EE"/>
<path id="Vector_2" d="M28.3039 16.9118C28.5986 16.6359 28.9878 16.4856 29.3857 16.4938C29.7837 16.502 30.1578 16.6681 30.4259 16.9556C30.694 17.243 30.834 17.6283 30.8152 18.0266L30.3243 28.2988C30.3063 28.6794 30.1445 29.0429 29.8717 29.3157C29.5989 29.5885 29.2354 29.7503 28.8547 29.7683L18.5826 30.2592C18.3842 30.2705 18.1865 30.2424 18.0011 30.1766C17.8157 30.1107 17.6461 30.0084 17.5023 29.8755C17.3584 29.7427 17.243 29.5819 17.1629 29.4025C17.0827 29.2232 17.0393 29.0287 17.0352 28.8304C17.0311 28.6322 17.0664 28.434 17.139 28.2474C17.2116 28.0608 17.3201 27.8894 17.4582 27.7432C17.5964 27.5971 17.7614 27.4789 17.9437 27.3957C18.1261 27.3124 18.3221 27.2657 18.5206 27.2583L25.3357 26.9323L17.2676 18.8642C16.9896 18.5863 16.8365 18.2063 16.8418 17.8079C16.8471 17.4095 17.0104 17.0254 17.2959 16.7399C17.5813 16.4545 17.9655 16.2911 18.3639 16.2858C18.7623 16.2805 19.1423 16.4336 19.4202 16.7116L27.4883 24.7797L27.8142 17.9646C27.8331 17.5663 28.0092 17.1876 28.3039 16.9118Z" fill="#0800EE"/>
</g>
</g>
<defs>
<clipPath id="clip0_647_27">
<rect width="35.0526" height="36" fill="white" transform="translate(0.473679)"/>
</clipPath>
</defs>
</svg>
