<svg width="33" height="33" viewBox="0 0 33 33" fill="none" xmlns="http://www.w3.org/2000/svg">
<g id="tabler:trash-x-filled">
<path id="Vector" d="M26.9147 8.40474C27.2546 8.40512 27.5814 8.53525 27.8285 8.76854C28.0756 9.00183 28.2244 9.32068 28.2443 9.65994C28.2642 9.99919 28.1538 10.3333 27.9357 10.5939C27.7176 10.8545 27.4082 11.0219 27.0707 11.0621L26.9147 11.0714H26.8067L25.5814 25.7381C25.5814 26.7584 25.1916 27.7401 24.4917 28.4824C23.7917 29.2248 22.8346 29.6716 21.816 29.7314L21.5814 29.7381H10.9147C8.78405 29.7381 7.04271 28.0727 6.92538 26.0714L6.91871 25.8487L5.68805 11.0714H5.58138C5.24154 11.071 4.91467 10.9409 4.66755 10.7076C4.42044 10.4743 4.27173 10.1555 4.25182 9.81622C4.2319 9.47696 4.34228 9.14291 4.5604 8.8823C4.77852 8.6217 5.08792 8.45422 5.42538 8.41408L5.58138 8.40474H26.9147ZM14.2627 15.2581C13.9834 15.0918 13.6529 15.0333 13.3334 15.0936C13.0139 15.1539 12.7275 15.3288 12.528 15.5855C12.3285 15.8422 12.2296 16.1629 12.25 16.4874C12.2704 16.8119 12.4086 17.1177 12.6387 17.3474L14.3614 19.0714L12.6387 20.7954L12.528 20.9207C12.3208 21.1887 12.2234 21.5255 12.2555 21.8628C12.2876 22.2 12.4469 22.5124 12.701 22.7364C12.9551 22.9605 13.2849 23.0794 13.6235 23.069C13.9621 23.0587 14.2841 22.9199 14.524 22.6807L16.248 20.9581L17.972 22.6807L18.0974 22.7914C18.3654 22.9986 18.7022 23.0961 19.0394 23.0639C19.3766 23.0318 19.689 22.8725 19.913 22.6185C20.1371 22.3644 20.256 22.0345 20.2457 21.6959C20.2353 21.3573 20.0965 21.0354 19.8574 20.7954L18.1347 19.0714L19.8574 17.3474L19.968 17.2221C20.1753 16.9541 20.2727 16.6173 20.2406 16.28C20.2085 15.9428 20.0492 15.6305 19.7951 15.4064C19.541 15.1824 19.2112 15.0634 18.8726 15.0738C18.534 15.0841 18.212 15.2229 17.972 15.4621L16.248 17.1847L14.524 15.4621L14.3987 15.3514L14.2627 15.2581ZM18.9147 3.07141C19.622 3.07141 20.3002 3.35236 20.8003 3.85246C21.3004 4.35256 21.5814 5.03083 21.5814 5.73808C21.581 6.07792 21.4509 6.40479 21.2176 6.6519C20.9843 6.89902 20.6654 7.04772 20.3262 7.06764C19.9869 7.08756 19.6529 6.97718 19.3923 6.75906C19.1317 6.54094 18.9642 6.23154 18.924 5.89408L18.9147 5.73808H13.5814L13.572 5.89408C13.5319 6.23154 13.3644 6.54094 13.1038 6.75906C12.8432 6.97718 12.5092 7.08756 12.1699 7.06764C11.8306 7.04772 11.5118 6.89902 11.2785 6.6519C11.0452 6.40479 10.9151 6.07792 10.9147 5.73808C10.9145 5.06531 11.1686 4.41732 11.626 3.92401C12.0835 3.43071 12.7105 3.12854 13.3814 3.07808L13.5814 3.07141H18.9147Z" fill="currentColor"/>
</g>
</svg>
