<svg width="60" height="60" viewBox="0 0 60 60" fill="none" xmlns="http://www.w3.org/2000/svg">
<g id="tabler:trash-x-filled">
<path id="Vector" d="M49.4138 14.9309C50.0403 14.9316 50.643 15.1715 51.0986 15.6016C51.5542 16.0318 51.8284 16.6196 51.8651 17.2451C51.9019 17.8706 51.6983 18.4866 51.2962 18.967C50.894 19.4475 50.3236 19.7563 49.7014 19.8303L49.4138 19.8475H49.2146L46.9554 46.8892C46.9555 48.7703 46.2368 50.5804 44.9463 51.9491C43.6557 53.3178 41.891 54.1416 40.0131 54.2519L39.5804 54.2642H19.9138C15.9853 54.2642 12.7748 51.1937 12.5584 47.5038L12.5461 47.0932L10.2771 19.8475H10.0804C9.45385 19.8468 8.85118 19.6069 8.39556 19.1768C7.93995 18.7467 7.66577 18.1588 7.62905 17.5333C7.59232 16.9078 7.79584 16.2919 8.19799 15.8114C8.60015 15.3309 9.17061 15.0221 9.7928 14.9481L10.0804 14.9309H49.4138ZM26.0866 27.5667C25.5716 27.2601 24.9622 27.1522 24.3732 27.2634C23.7842 27.3746 23.2561 27.6972 22.8882 28.1704C22.5204 28.6437 22.3381 29.2351 22.3757 29.8333C22.4133 30.4315 22.6682 30.9954 23.0924 31.4189L26.2686 34.5975L23.0924 37.7762L22.8883 38.0072C22.5063 38.5014 22.3266 39.1223 22.3859 39.7441C22.4451 40.3659 22.7388 40.9418 23.2072 41.3549C23.6757 41.768 24.2839 41.9872 24.9081 41.9682C25.5324 41.9491 26.1261 41.6931 26.5685 41.2522L29.7471 38.0761L32.9257 41.2522L33.1568 41.4563C33.6509 41.8383 34.2719 42.018 34.8937 41.9588C35.5154 41.8995 36.0914 41.6059 36.5044 41.1374C36.9175 40.6689 37.1368 40.0608 37.1177 39.4365C37.0987 38.8122 36.8427 38.2186 36.4018 37.7762L33.2256 34.5975L36.4018 31.4189L36.6058 31.1878C36.9879 30.6937 37.1676 30.0727 37.1083 29.451C37.0491 28.8292 36.7554 28.2533 36.2869 27.8402C35.8185 27.4271 35.2103 27.2078 34.586 27.2269C33.9617 27.246 33.3681 27.5019 32.9257 27.9428L29.7471 31.119L26.5685 27.9428L26.3374 27.7388L26.0866 27.5667ZM34.6638 5.09753C35.9677 5.09753 37.2183 5.61554 38.1404 6.53759C39.0624 7.45965 39.5804 8.71022 39.5804 10.0142C39.5797 10.6408 39.3398 11.2434 38.9097 11.6991C38.4795 12.1547 37.8917 12.4289 37.2662 12.4656C36.6407 12.5023 36.0247 12.2988 35.5443 11.8966C35.0638 11.4945 34.755 10.924 34.681 10.3018L34.6638 10.0142H24.8304L24.8132 10.3018C24.7392 10.924 24.4304 11.4945 23.9499 11.8966C23.4694 12.2988 22.8535 12.5023 22.228 12.4656C21.6025 12.4289 21.0146 12.1547 20.5845 11.6991C20.1544 11.2434 19.9145 10.6408 19.9138 10.0142C19.9134 8.77378 20.3818 7.57906 21.2253 6.66952C22.0687 5.75998 23.2248 5.20286 24.4617 5.10983L24.8304 5.09753H34.6638Z" fill="currentColor"/>
</g>
</svg>
