<svg width="45" height="52" viewBox="0 0 45 52" fill="none" xmlns="http://www.w3.org/2000/svg">
<g id="Group">
<g id="Group_2">
<path id="Vector" d="M41.7568 17.9747L35.7228 21.5602C37.0044 23.7544 37.6985 26.3231 37.6985 29.0524C37.6985 37.3473 30.9704 44.0367 22.7471 44.0367C14.5238 44.0367 7.79561 37.2938 7.79561 29.0524C7.79561 20.811 14.5238 14.0681 22.7471 14.0681V20.8645L39.1403 10.5896L22.7471 0.261108V7.05757C10.6257 7.05757 0.74707 16.9579 0.74707 29.1059C0.74707 41.2004 10.6257 51.1008 22.7471 51.1008C34.8684 51.1008 44.7471 41.2004 44.7471 29.0524C44.7471 25.0387 43.6257 21.2392 41.7568 17.9747Z" fill="currentColor"/>
</g>
</g>
</svg>
