<svg width="165" height="50" viewBox="0 0 165 50" fill="none" xmlns="http://www.w3.org/2000/svg">
<g id="Frame 28">
<g clip-path="url(#clip0_225_297)">
<g id="about">
<path id="Vector" d="M131.357 17.4836H156.221V21.2636H145.931V48.7316H141.605V21.2636H131.357V17.4836Z" fill="#0800EE"/>
<path id="Vector_2" d="M115.267 49.1936C113.503 49.1936 111.879 48.9976 110.395 48.6056C108.939 48.1856 107.679 47.5556 106.615 46.7156C105.551 45.8476 104.711 44.7416 104.095 43.3976C103.507 42.0536 103.213 40.4436 103.213 38.5676V17.4836H107.497V38.1896C107.497 40.7656 108.169 42.6416 109.513 43.8176C110.885 44.9656 112.831 45.5396 115.351 45.5396C117.787 45.5396 119.677 44.9656 121.021 43.8176C122.365 42.6416 123.037 40.7656 123.037 38.1896V17.4836H127.321V38.5676C127.321 40.4436 127.013 42.0536 126.397 43.3976C125.781 44.7416 124.927 45.8476 123.835 46.7156C122.771 47.5556 121.497 48.1856 120.013 48.6056C118.557 48.9976 116.975 49.1936 115.267 49.1936Z" fill="#0800EE"/>
<path id="Vector_3" d="M83.1298 49.4035C80.7778 49.4035 78.6498 48.9975 76.7458 48.1855C74.8698 47.3455 73.2598 46.1975 71.9158 44.7415C70.5998 43.2855 69.5918 41.5635 68.8918 39.5755C68.1918 37.5875 67.8418 35.4315 67.8418 33.1075C67.8418 30.7555 68.1918 28.5855 68.8918 26.5975C69.5918 24.6095 70.5998 22.9015 71.9158 21.4735C73.2598 20.0175 74.8698 18.8835 76.7458 18.0715C78.6498 17.2315 80.7778 16.8115 83.1298 16.8115C85.4818 16.8115 87.5958 17.2315 89.4718 18.0715C91.3758 18.8835 92.9858 20.0175 94.3018 21.4735C95.6458 22.9015 96.6678 24.6095 97.3678 26.5975C98.0958 28.5855 98.4598 30.7555 98.4598 33.1075C98.4598 35.4315 98.0958 37.5875 97.3678 39.5755C96.6678 41.5635 95.6458 43.2855 94.3018 44.7415C92.9858 46.1975 91.3758 47.3455 89.4718 48.1855C87.5958 48.9975 85.4818 49.4035 83.1298 49.4035ZM83.1298 45.6235C84.8938 45.6235 86.4478 45.3155 87.7918 44.6995C89.1638 44.0555 90.3118 43.1735 91.2358 42.0535C92.1598 40.9335 92.8458 39.6175 93.2938 38.1055C93.7698 36.5655 94.0078 34.8995 94.0078 33.1075C94.0078 31.3155 93.7698 29.6495 93.2938 28.1095C92.8458 26.5695 92.1598 25.2395 91.2358 24.1195C90.3118 22.9995 89.1638 22.1175 87.7918 21.4735C86.4478 20.8295 84.8938 20.5075 83.1298 20.5075C81.3658 20.5075 79.7978 20.8295 78.4258 21.4735C77.0818 22.1175 75.9478 22.9995 75.0238 24.1195C74.0998 25.2395 73.3998 26.5695 72.9238 28.1095C72.4478 29.6495 72.2098 31.3155 72.2098 33.1075C72.2098 34.8995 72.4478 36.5655 72.9238 38.1055C73.3998 39.6175 74.0998 40.9335 75.0238 42.0535C75.9478 43.1735 77.0818 44.0555 78.4258 44.6995C79.7978 45.3155 81.3658 45.6235 83.1298 45.6235Z" fill="#0800EE"/>
<path id="Vector_4" d="M39.7739 17.4836H53.2139C56.4339 17.4836 58.9259 18.3656 60.6899 20.1296C61.3339 20.8016 61.8379 21.5856 62.2019 22.4816C62.5939 23.3776 62.7899 24.3996 62.7899 25.5476C62.7899 27.2556 62.3279 28.6556 61.4039 29.7476C60.4799 30.8396 59.1779 31.6236 57.4979 32.0996V32.2256C58.4499 32.4496 59.3179 32.7716 60.1019 33.1916C60.9139 33.6116 61.6139 34.1436 62.2019 34.7876C62.7899 35.4036 63.2379 36.1316 63.5459 36.9716C63.8819 37.7836 64.0499 38.7076 64.0499 39.7436C64.0499 41.0036 63.8399 42.1516 63.4199 43.1876C62.9999 44.1956 62.4119 45.0776 61.6559 45.8336C60.7599 46.7576 59.6539 47.4716 58.3379 47.9756C57.0219 48.4796 55.5239 48.7316 53.8439 48.7316H39.7739V17.4836ZM52.6259 30.7976C54.4739 30.7976 55.9019 30.3776 56.9099 29.5376C57.9459 28.6696 58.4639 27.4376 58.4639 25.8416C58.4639 24.3576 57.9879 23.2096 57.0359 22.3976C56.1119 21.5856 54.8099 21.1796 53.1299 21.1796H44.0579V30.7976H52.6259ZM53.5919 44.9516C55.6919 44.9516 57.2599 44.4336 58.2959 43.3976C59.2199 42.5296 59.6819 41.3536 59.6819 39.8696C59.6819 37.9936 59.0799 36.5936 57.8759 35.6696C56.6999 34.7456 55.1879 34.2836 53.3399 34.2836H44.0579V44.9516H53.5919Z" fill="#0800EE"/>
<path id="Vector_5" d="M19.4357 17.4836H24.2237L35.7317 48.7316H31.0277L27.9197 39.6176H15.6137L12.4217 48.7316H8.01172L19.4357 17.4836ZM16.7897 36.2576H26.7857L23.8037 27.5216C23.5237 26.7656 23.2717 25.9956 23.0477 25.2116C22.8237 24.4276 22.6277 23.7136 22.4597 23.0696C22.2637 22.3416 22.0817 21.6136 21.9137 20.8856H21.7877C21.5917 21.6136 21.3957 22.3556 21.1997 23.1116C21.0037 23.7556 20.7937 24.4696 20.5697 25.2536C20.3457 26.0376 20.1077 26.7936 19.8557 27.5216L16.7897 36.2576Z" fill="#0800EE"/>
</g>
</g>
<rect x="1" y="1" width="162.75" height="48" rx="12" stroke="#0800EE" stroke-width="2"/>
</g>
<defs>
<clipPath id="clip0_225_297">
<rect x="1" y="1" width="162.75" height="48" rx="12" fill="white"/>
</clipPath>
</defs>
</svg>
