<svg width="1579" height="202" viewBox="0 0 1579 202" fill="none" xmlns="http://www.w3.org/2000/svg">
<mask id="path-1-inside-1_30_2052" fill="white">
<path fill-rule="evenodd" clip-rule="evenodd" d="M789.5 202C1225.53 202 1579 146.931 1579 79C1579 53.7 1529.97 30.1841 1445.91 10.6327C1499.92 24.7868 1530.48 40.9021 1530.48 58C1530.48 114.333 1198.73 160 789.5 160C380.268 160 48.5197 114.333 48.5197 58C48.5197 40.9022 79.0804 24.7869 133.093 10.6328C49.0294 30.1842 0 53.7001 0 79C0 146.931 353.471 202 789.5 202Z"/>
</mask>
<path fill-rule="evenodd" clip-rule="evenodd" d="M789.5 202C1225.53 202 1579 146.931 1579 79C1579 53.7 1529.97 30.1841 1445.91 10.6327C1499.92 24.7868 1530.48 40.9021 1530.48 58C1530.48 114.333 1198.73 160 789.5 160C380.268 160 48.5197 114.333 48.5197 58C48.5197 40.9022 79.0804 24.7869 133.093 10.6328C49.0294 30.1842 0 53.7001 0 79C0 146.931 353.471 202 789.5 202Z" fill="url(#paint0_linear_30_2052)"/>
<path d="M1445.91 10.6327L1446.13 9.65869L1445.65 11.6L1445.91 10.6327ZM133.093 10.6328L133.346 11.6002L132.866 9.65883L133.093 10.6328ZM1578 79C1578 87.0253 1572.78 95.0569 1562.35 102.993C1551.95 110.913 1536.55 118.596 1516.61 125.939C1476.75 140.621 1419.02 153.861 1347.61 164.986C1204.8 187.235 1007.48 201 789.5 201V203C1007.55 203 1204.98 189.231 1347.91 166.962C1419.38 155.829 1477.26 142.565 1517.3 127.816C1537.32 120.443 1552.93 112.678 1563.57 104.584C1574.18 96.5067 1580 87.9575 1580 79H1578ZM1445.68 11.6067C1487.68 21.3757 1520.87 32.1211 1543.53 43.5534C1554.86 49.2705 1563.51 55.1338 1569.31 61.0913C1575.11 67.0454 1578 73.0223 1578 79H1580C1580 72.3277 1576.76 65.8776 1570.74 59.6959C1564.72 53.5176 1555.86 47.5361 1544.43 41.7678C1521.56 30.2294 1488.19 19.4411 1446.13 9.65869L1445.68 11.6067ZM1445.65 11.6C1472.63 18.6694 1493.68 26.2119 1507.97 34.0881C1515.11 38.0266 1520.51 42.0223 1524.12 46.0437C1527.72 50.0593 1529.48 54.0448 1529.48 58H1531.48C1531.48 53.4062 1529.42 48.9657 1525.61 44.7085C1521.79 40.4572 1516.18 36.3336 1508.93 32.3367C1494.43 24.3423 1473.2 16.7501 1446.16 9.66535L1445.65 11.6ZM1529.48 58C1529.48 64.5188 1524.67 71.1328 1514.87 77.7268C1505.11 84.2911 1490.65 90.6619 1471.94 96.7521C1434.53 108.928 1380.34 119.908 1313.32 129.134C1179.28 147.585 994.085 159 789.5 159V161C994.147 161 1179.44 149.582 1313.59 131.116C1380.66 121.883 1434.98 110.884 1472.56 98.6539C1491.34 92.541 1506 86.1019 1515.98 79.3863C1525.92 72.7004 1531.48 65.5644 1531.48 58H1529.48ZM789.5 159C584.915 159 399.717 147.585 265.684 129.134C198.66 119.908 144.471 108.928 107.059 96.7521C88.3462 90.6619 73.89 84.2911 64.132 77.7268C54.3298 71.1328 49.5197 64.5188 49.5197 58H47.5197C47.5197 65.5644 53.0768 72.7004 63.0156 79.3863C72.9987 86.1019 87.6574 92.541 106.44 98.6539C144.019 110.884 198.344 121.883 265.411 131.116C399.56 149.582 584.853 161 789.5 161V159ZM49.5197 58C49.5197 54.0448 51.2826 50.0593 54.8833 46.0437C58.4892 42.0223 63.8915 38.0267 71.0344 34.0882C85.319 26.212 106.369 18.6696 133.346 11.6002L132.839 9.6655C105.804 16.7502 84.5676 24.3424 70.0688 32.3368C62.8199 36.3336 57.2063 40.4573 53.3942 44.7085C49.5769 48.9657 47.5197 53.4063 47.5197 58H49.5197ZM1 79C1 73.0223 3.89153 67.0455 9.69069 61.0914C15.4932 55.1338 24.1412 49.2706 35.473 43.5535C58.1331 32.1212 91.3162 21.3759 133.319 11.6068L132.866 9.65883C90.8058 19.4412 57.4426 30.2295 34.5722 41.7679C23.1388 47.5362 14.2755 53.5176 8.25796 59.6959C2.23713 65.8776 -1 72.3277 -1 79H1ZM789.5 201C571.521 201 374.2 187.235 231.393 164.986C159.982 153.861 102.248 140.621 62.3885 125.939C42.4531 118.596 27.0482 110.913 16.6456 102.993C6.22169 95.0569 1 87.0253 1 79H-1C-1 87.9575 4.82429 96.5067 15.4341 104.584C26.0652 112.678 41.6817 120.443 61.6972 127.816C101.74 142.565 159.625 155.829 231.085 166.962C374.022 189.231 571.451 203 789.5 203V201Z" fill="white" mask="url(#path-1-inside-1_30_2052)"/>
<path d="M1499.41 64.3704L1435.69 0L1530.19 4.12928C1499.18 11.0722 1491.38 43.2745 1499.41 64.3704Z" fill="white"/>
<defs>
<linearGradient id="paint0_linear_30_2052" x1="0" y1="106.316" x2="1579" y2="106.316" gradientUnits="userSpaceOnUse">
<stop stop-color="white" stop-opacity="0.2"/>
<stop offset="1" stop-color="white"/>
</linearGradient>
</defs>
</svg>
