<svg width="181" height="32" viewBox="0 0 181 32" fill="none" xmlns="http://www.w3.org/2000/svg">
<path d="M160.377 0.660645H164.589V27.5406H180.485V31.3806H160.377V0.660645Z" fill="#0800EE"/>
<path d="M132.051 0.660645H153.893V4.37677H136.262V13.6671H152.2V17.1768H136.262V27.5406H154.348V31.3806H132.051V0.660645Z" fill="#0800EE"/>
<path d="M102.677 0.660645H115.89C119.056 0.660645 121.506 1.52774 123.24 3.26193C123.873 3.92258 124.368 4.69333 124.726 5.57419C125.112 6.45505 125.304 7.45978 125.304 8.58838C125.304 10.2675 124.85 11.6439 123.942 12.7174C123.033 13.791 121.753 14.5617 120.102 15.0297V15.1535C121.038 15.3738 121.891 15.6903 122.662 16.1032C123.46 16.5161 124.148 17.0391 124.726 17.6723C125.304 18.2778 125.745 18.9935 126.048 19.8194C126.378 20.6176 126.543 21.526 126.543 22.5445C126.543 23.7832 126.337 24.9118 125.924 25.9303C125.511 26.9213 124.933 27.7884 124.19 28.5316C123.309 29.44 122.221 30.1419 120.928 30.6374C119.634 31.1329 118.161 31.3806 116.51 31.3806H102.677V0.660645ZM115.312 13.7497C117.129 13.7497 118.533 13.3368 119.524 12.511C120.542 11.6576 121.051 10.4465 121.051 8.87742C121.051 7.41849 120.583 6.28989 119.648 5.49161C118.739 4.69333 117.459 4.29419 115.808 4.29419H106.889V13.7497H115.312ZM116.262 27.6645C118.326 27.6645 119.868 27.1553 120.886 26.1368C121.795 25.2834 122.249 24.1273 122.249 22.6684C122.249 20.8241 121.657 19.4477 120.473 18.5394C119.317 17.631 117.831 17.1768 116.014 17.1768H106.889V27.6645H116.262Z" fill="#0800EE"/>
<path d="M91.209 0.660645H95.4206V31.3806H91.209V0.660645Z" fill="#0800EE"/>
<path d="M72.3862 32C70.184 32 68.1883 31.6009 66.3991 30.8026C64.6374 30.0043 63.1234 28.9032 61.8572 27.4994C60.6184 26.068 59.655 24.3751 58.9668 22.4206C58.2787 20.4662 57.9346 18.3329 57.9346 16.0206C57.9346 13.7634 58.2649 11.6576 58.9255 9.70323C59.5862 7.74882 60.5359 6.05591 61.7746 4.62452C63.0408 3.19312 64.5686 2.06452 66.3578 1.23871C68.1746 0.412904 70.2253 0 72.5101 0C74.3268 0 75.9372 0.247742 77.341 0.743226C78.7724 1.21118 80.0111 1.87183 81.0572 2.72516C82.1582 3.60602 83.0253 4.66581 83.6584 5.90452C84.3191 7.1157 84.7595 8.46452 84.9797 9.95097H80.7681C80.4103 8.05161 79.5156 6.53763 78.0842 5.40903C76.6804 4.2529 74.7948 3.67484 72.4275 3.67484C70.8034 3.67484 69.3582 3.9914 68.092 4.62452C66.8258 5.23011 65.7522 6.08344 64.8713 7.18452C64.018 8.28559 63.3574 9.59312 62.8894 11.1071C62.449 12.6211 62.2288 14.2589 62.2288 16.0206C62.2288 17.8649 62.4627 19.5441 62.9307 21.0581C63.4262 22.572 64.1144 23.8658 64.9952 24.9394C65.9036 26.0129 66.9909 26.8525 68.2572 27.4581C69.5234 28.0361 70.9273 28.3252 72.4688 28.3252C73.8726 28.3252 75.0838 28.1049 76.1023 27.6645C77.1483 27.2241 78.0154 26.6323 78.7036 25.889C79.4193 25.1458 79.9698 24.2925 80.3552 23.329C80.7681 22.3381 81.0159 21.292 81.0984 20.191H85.3101C85.3101 20.9617 85.2137 21.7462 85.021 22.5445C84.8559 23.3153 84.6081 24.0723 84.2778 24.8155C83.9475 25.5587 83.5621 26.2744 83.1217 26.9626C82.6812 27.6232 82.1858 28.2151 81.6352 28.7381C79.4606 30.9127 76.3776 32 72.3862 32Z" fill="#0800EE"/>
<path d="M31.3687 0.660645H53.2112V4.37677H35.5803V13.6671H51.5183V17.1768H35.5803V27.5406H53.6654V31.3806H31.3687V0.660645Z" fill="#0800EE"/>
<path d="M0.301758 0.660645H11.6566C13.9413 0.660645 15.937 1.03226 17.6437 1.77548C19.3779 2.51871 20.8093 3.57849 21.9379 4.95484C23.094 6.30366 23.9473 7.92774 24.4979 9.8271C25.0759 11.7265 25.365 13.8323 25.365 16.1445C25.365 18.4292 25.0622 20.5075 24.4566 22.3794C23.8785 24.2512 22.9977 25.8615 21.814 27.2103C20.6304 28.5316 19.1714 29.5639 17.4372 30.3071C15.703 31.0228 13.6798 31.3806 11.3676 31.3806H0.301758V0.660645ZM11.2024 27.7058C12.9366 27.7058 14.423 27.4443 15.6618 26.9213C16.9005 26.3707 17.9052 25.6 18.6759 24.609C19.4742 23.5905 20.0523 22.3656 20.4101 20.9342C20.7955 19.5028 20.9882 17.9062 20.9882 16.1445C20.9882 14.3828 20.8093 12.7725 20.4514 11.3135C20.1211 9.85462 19.5706 8.61591 18.7998 7.59742C18.0566 6.5514 17.0794 5.75312 15.8682 5.20258C14.657 4.62452 13.1843 4.33548 11.4501 4.33548H4.55466V27.7058H11.2024Z" fill="#0800EE"/>
</svg>
