<svg width="165" height="50" viewBox="0 0 165 50" fill="none" xmlns="http://www.w3.org/2000/svg">
<g id="Frame 29">
<rect x="1" y="1" width="162.75" height="48" rx="12" stroke="#0800EE" stroke-width="2"/>
<g id="entry">
<path id="Vector" d="M137.468 35.6276L126.212 17.4836H131L136.628 26.8916C136.936 27.4516 137.272 28.0676 137.636 28.7396C138 29.4116 138.336 30.0416 138.644 30.6296L139.694 32.7296H139.778C140.114 32.0296 140.464 31.3296 140.828 30.6296C141.136 30.0416 141.472 29.4116 141.836 28.7396C142.2 28.0676 142.55 27.4516 142.886 26.8916L148.556 17.4836H153.134L141.752 35.8376V48.7316H137.468V35.6276Z" fill="#0800EE"/>
<path id="Vector_2" d="M99.897 17.4836H114.513C115.913 17.4836 117.187 17.6936 118.335 18.1136C119.483 18.5056 120.463 19.0796 121.275 19.8356C122.115 20.5916 122.759 21.5016 123.207 22.5656C123.655 23.6296 123.879 24.8056 123.879 26.0936C123.879 27.9976 123.445 29.6216 122.577 30.9656C121.709 32.2816 120.239 33.2616 118.167 33.9056V34.0316C119.035 34.2836 119.763 34.6196 120.351 35.0396C120.939 35.4596 121.415 35.9776 121.779 36.5936C122.143 37.1816 122.409 37.8956 122.577 38.7356C122.773 39.5756 122.913 40.5556 122.997 41.6756C123.081 42.9076 123.179 43.9436 123.291 44.7836C123.403 45.5956 123.515 46.2676 123.627 46.7996C123.739 47.3036 123.851 47.6956 123.963 47.9756C124.103 48.2276 124.257 48.4096 124.425 48.5216V48.7316H119.847C119.679 48.5916 119.539 48.3816 119.427 48.1016C119.315 47.8216 119.217 47.4156 119.133 46.8836C119.049 46.3516 118.979 45.6796 118.923 44.8676C118.867 44.0276 118.797 42.9776 118.713 41.7176C118.573 39.5056 118.013 37.9516 117.033 37.0556C116.053 36.1596 114.541 35.7116 112.497 35.7116H104.181V48.7316H99.897V17.4836ZM104.181 32.2676H113.127C115.255 32.2676 116.837 31.7776 117.873 30.7976C118.937 29.7896 119.469 28.4316 119.469 26.7236C119.469 24.8756 118.993 23.4896 118.041 22.5656C117.117 21.6416 115.549 21.1796 113.337 21.1796H104.181V32.2676Z" fill="#0800EE"/>
<path id="Vector_3" d="M70.4844 17.4836H95.3484V21.2636H85.0584V48.7316H80.7324V21.2636H70.4844V17.4836Z" fill="#0800EE"/>
<path id="Vector_4" d="M41.2856 17.4836H45.7796L58.5896 37.0556C58.9816 37.6436 59.3736 38.3016 59.7656 39.0296C60.1856 39.7296 60.5636 40.4016 60.8996 41.0456C61.2916 41.7736 61.6836 42.5156 62.0756 43.2716H62.2016C62.1456 42.4876 62.0896 41.7036 62.0336 40.9196C61.9776 40.2476 61.9356 39.5196 61.9076 38.7356C61.9076 37.9516 61.9076 37.2376 61.9076 36.5936V17.4836H65.9396V48.7316H61.4876L48.7196 29.1596C48.3276 28.5716 47.9216 27.9276 47.5016 27.2276C47.1096 26.5276 46.7316 25.8556 46.3676 25.2116C45.9476 24.4836 45.5416 23.7416 45.1496 22.9856H45.0656C45.0936 23.7696 45.1356 24.5536 45.1916 25.3376C45.2196 26.0096 45.2476 26.7236 45.2756 27.4796C45.3036 28.2356 45.3176 28.9356 45.3176 29.5796V48.7316H41.2856V17.4836Z" fill="#0800EE"/>
<path id="Vector_5" d="M13.313 17.4836H35.531V21.2636H17.597V30.7136H33.809V34.2836H17.597V44.8256H35.993V48.7316H13.313V17.4836Z" fill="#0800EE"/>
</g>
</g>
</svg>
