<svg width="80" height="81" viewBox="0 0 80 81" fill="none" xmlns="http://www.w3.org/2000/svg">
<rect x="0.75" y="1.63501" width="78.5" height="78.5" rx="11.25" fill="white"/>
<rect x="0.75" y="1.63501" width="78.5" height="78.5" rx="11.25" stroke="#0800EE" stroke-width="1.5"/>
<path fill-rule="evenodd" clip-rule="evenodd" d="M40.0259 46.8673L54.9932 61.8176C55.7874 62.6109 56.8646 63.0565 57.9878 63.0565C59.111 63.0565 60.1881 62.6109 60.9824 61.8176C61.7766 61.0242 62.2228 59.9483 62.2228 58.8264C62.2228 57.7045 61.7766 56.6285 60.9824 55.8352L46.0094 40.8849L60.9795 25.9347C61.3726 25.5419 61.6844 25.0756 61.897 24.5624C62.1097 24.0493 62.2191 23.4993 62.2189 22.9439C62.2188 22.3885 62.1092 21.8386 61.8963 21.3256C61.6834 20.8125 61.3714 20.3464 60.9781 19.9537C60.5849 19.5611 60.118 19.2497 59.6043 19.0373C59.0906 18.8249 58.54 18.7156 57.9839 18.7157C57.4279 18.7159 56.8774 18.8254 56.3637 19.038C55.8501 19.2507 55.3834 19.5623 54.9904 19.9551L40.0259 34.9054L25.0585 19.9551C24.6682 19.5511 24.2012 19.2287 23.6848 19.0068C23.1683 18.785 22.6129 18.668 22.0507 18.6629C21.4886 18.6578 20.9311 18.7645 20.4107 18.9769C19.8903 19.1893 19.4174 19.503 19.0197 19.8999C18.622 20.2968 18.3075 20.7688 18.0943 21.2884C17.8812 21.808 17.7738 22.3648 17.7785 22.9263C17.7831 23.4878 17.8996 24.0427 18.1212 24.5588C18.3429 25.0748 18.6652 25.5416 19.0693 25.9319L34.0423 40.8849L19.0722 55.838C18.668 56.2283 18.3457 56.6951 18.1241 57.2111C17.9024 57.7272 17.7859 58.2821 17.7813 58.8436C17.7767 59.4051 17.884 59.9619 18.0972 60.4815C18.3103 61.0011 18.6249 61.4731 19.0226 61.87C19.4203 62.2668 19.8931 62.5806 20.4135 62.793C20.9339 63.0054 21.4914 63.1121 22.0536 63.107C22.6157 63.1018 23.1712 62.9849 23.6876 62.7631C24.204 62.5412 24.671 62.2188 25.0614 61.8147L40.0259 46.8673Z" fill="#0800EE"/>
</svg>
