<svg width="288" height="103" viewBox="0 0 288 103" fill="none" xmlns="http://www.w3.org/2000/svg">
<path d="M95.4532 85.0006C80.2401 88.0111 61.5262 93.8777 48.5349 101.358L55.9542 88.2913L56.2584 87.7556L55.6716 87.5681C50.1044 85.7898 44.5945 83.8329 39.1408 81.5897C31.4077 78.3936 23.8021 74.7204 16.6178 69.7461C13.0374 67.2428 9.57941 64.3921 6.51986 60.801C5.00116 58.9719 3.61413 56.9554 2.51345 54.6619C1.41522 52.3735 0.657204 49.7756 0.515876 47.099C0.41 44.4234 0.800803 41.7249 1.74832 39.3534L1.74949 39.3504C2.68812 36.9569 3.99862 34.8452 5.50301 33.0864L5.50302 33.0864L5.50554 33.0834C8.51632 29.5072 12.0504 26.949 15.667 24.7495C22.9329 20.4067 30.5852 17.5596 38.302 15.135C46.0124 12.7484 53.8347 10.8991 61.6983 9.37203C73.6472 7.09274 85.6791 5.49778 97.7385 4.6107C85.7961 6.54103 74.0019 9.15831 62.4276 12.4309L62.4268 12.4312C54.8268 14.5942 47.3115 17.0654 40.0648 20.0254L40.0639 20.0258C32.8597 22.9833 25.7557 26.4201 19.7152 30.7907L19.7143 30.7914C16.72 32.9686 13.9919 35.4541 12.1191 38.1444C10.2432 40.8392 9.41191 43.6257 9.95814 46.1654L9.95912 46.1698C10.5171 48.6556 12.2882 51.0451 14.6966 53.1827L14.6996 53.1853C17.1324 55.3099 20.1421 57.1676 23.3533 58.7632C29.8089 61.9709 37.0364 64.2667 44.3684 66.1244L44.3707 66.1249C49.0208 67.2802 53.7592 68.2363 58.5304 69.0656L59.2376 69.1885L59.1078 68.4826L56.4904 54.2488C66.3026 65.5554 82.0732 77.1965 95.4532 85.0006Z" fill="url(#paint0_linear_509_20)" stroke="white"/>
<path d="M148.452 1.78203C171.992 0.345007 195.7 1.8305 218.973 5.9004L218.977 5.90107C229.823 7.7065 251.048 12.5637 267.038 20.9602C275.04 25.1618 281.661 30.2144 285.051 36.1526C286.74 39.1126 287.626 42.2904 287.485 45.7019C287.344 49.1099 286.177 52.7834 283.712 56.735C274.367 68.9762 255.885 76.7716 235.92 81.6222C215.975 86.468 194.675 88.3462 179.855 88.8404C168.329 89.2185 156.805 88.9749 145.344 88.0009C146.217 87.9036 147.1 87.8055 147.991 87.7065C165.931 85.713 187.229 83.3462 207.888 79.362C231.486 74.8108 254.317 68.1379 270.384 57.4541L270.384 57.4542L270.395 57.4464C275.478 53.8635 278 50.3064 278.584 46.8326C279.169 43.3493 277.783 40.0866 275.364 37.1494C270.546 31.2995 261.426 26.491 254.358 23.3252L254.358 23.3251L254.348 23.321C221.056 9.24027 184.63 3.83819 148.452 1.78203Z" fill="url(#paint1_linear_509_20)" stroke="white"/>
<circle cx="145.467" cy="45.1284" r="7" fill="white"/>
<defs>
<linearGradient id="paint0_linear_509_20" x1="79.5985" y1="-14.1786" x2="111.566" y2="36.9624" gradientUnits="userSpaceOnUse">
<stop stop-color="white" stop-opacity="0.2"/>
<stop offset="1" stop-color="white"/>
</linearGradient>
<linearGradient id="paint1_linear_509_20" x1="214.233" y1="0.746948" x2="214.233" y2="89.5099" gradientUnits="userSpaceOnUse">
<stop stop-color="white" stop-opacity="0.2"/>
<stop offset="1" stop-color="white"/>
</linearGradient>
</defs>
</svg>
