<svg width="422" height="57" viewBox="0 0 422 57" fill="none" xmlns="http://www.w3.org/2000/svg">
<path d="M421.651 0.3125V56.3125H415.964V27.375H408.714V53.4375H403.276V1.4375H408.714V22.5H415.964V0.3125H421.651ZM396.464 7.0625V11.875H381.401V37.8125C388.276 37.75 393.464 37.4375 399.464 36.3125L399.901 41.1875C393.151 42.5625 387.401 42.8125 379.214 42.875H375.464V7.0625H396.464Z" fill="#0800EE"/>
<path d="M337.559 14.5625C337.496 24.8125 343.684 35.0625 352.371 38.9375L348.809 43.625C342.371 40.5625 337.277 34.2812 334.684 26.625C332.059 34.8125 326.902 41.5938 320.184 44.875L316.559 39.875C325.371 35.9375 331.559 25.25 331.559 14.5625V5H337.559V14.5625ZM363.371 0.3125V56.4375H357.434V0.3125H363.371Z" fill="#0800EE"/>
<path d="M261.749 4.3125C270.624 4.25 276.936 9.75 276.999 17.625C276.936 25.5 270.624 31 261.749 31C252.936 31 246.436 25.5 246.499 17.625C246.436 9.75 252.936 4.25 261.749 4.3125ZM261.749 9.4375C256.311 9.4375 252.311 12.6875 252.374 17.625C252.311 22.5625 256.311 25.8125 261.749 25.8125C267.186 25.8125 271.186 22.5625 271.186 17.625C271.186 12.6875 267.186 9.4375 261.749 9.4375ZM289.811 0.3125V56.4375H283.874V0.3125H289.811ZM243.811 39.4375C253.999 39.4375 268.124 39.3125 280.374 37.5625L280.811 41.875C268.124 44.3125 254.561 44.375 244.561 44.375L243.811 39.4375Z" fill="#0800EE"/>
<path d="M233.281 0.3125V29.125H227.406V0.3125H233.281ZM233.344 31.8125V45.8125H202.469V51H235.219V55.75H196.719V41.3125H227.469V36.5H196.531V31.8125H233.344ZM207.281 6.125C207.219 13.625 212.656 20.4375 221.219 23.125L218.281 27.75C211.75 25.625 206.844 21.1875 204.344 15.5C201.781 21.625 196.781 26.5 190.094 28.8125L187.094 24.125C195.844 21.1875 201.219 13.875 201.219 6.125V1.8125H207.281V6.125Z" fill="#0800EE"/>
<path d="M149.626 9.25C149.626 16.625 154.751 23.4375 163.126 26.1875L159.938 30.875C153.813 28.7188 149.22 24.3438 146.813 18.8125C144.345 25.0938 139.595 30 133.063 32.4375L129.876 27.6875C138.626 24.5625 143.688 17.125 143.751 8.75V3.25H149.626V9.25ZM174.313 0.3125V14.375H182.438V19.375H174.313V34.125H168.376V0.3125H174.313ZM156.251 35.4375C167.751 35.4375 174.813 39.25 174.813 45.8125C174.813 52.4375 167.751 56.25 156.251 56.1875C144.626 56.25 137.438 52.4375 137.438 45.8125C137.438 39.25 144.626 35.4375 156.251 35.4375ZM156.251 40.125C148.126 40.125 143.313 42.25 143.376 45.8125C143.313 49.5 148.126 51.5 156.251 51.5625C164.313 51.5 169.001 49.5 169.001 45.8125C169.001 42.25 164.313 40.125 156.251 40.125Z" fill="#0800EE"/>
<path d="M101.379 2.625V21.8125H85.2539V28.3125H107.879V33.125H56.8164V28.3125H79.3789V21.8125H63.3164V2.625H101.379ZM69.1289 7.3125V17.0625H95.5039V7.3125H69.1289ZM101.629 38.4375V56.3125H95.6289V43.125H62.5039V38.4375H101.629Z" fill="#0800EE"/>
<path d="M44.9111 2.5625V6.0625C44.8486 9.5625 44.8486 13.9375 43.8486 19.375L37.9736 18.875C38.8486 14.0625 38.9736 10.5 38.9736 7.3125H6.22363V2.5625H44.9111ZM51.2236 22.25V26.9375H0.286133V22.25H20.7236V13H26.5361V22.25H51.2236ZM45.0361 31.5625V45.4375H12.2236V51H46.4736V55.75H6.28613V41.3125H39.1611V36.375H6.22363V31.5625H45.0361Z" fill="#0800EE"/>
</svg>
