<svg width="422" height="236" viewBox="0 0 422 236" fill="none" xmlns="http://www.w3.org/2000/svg">
<path d="M421.683 0V56H415.995V27.0625H408.745V53.125H403.308V1.125H408.745V22.1875H415.995V0H421.683ZM396.495 6.75V11.5625H381.433V37.5C388.308 37.4375 393.495 37.125 399.495 36L399.933 40.875C393.183 42.25 387.433 42.5 379.245 42.5625H375.495V6.75H396.495Z" fill="#0800EE"/>
<path d="M337.59 14.25C337.527 24.5 343.715 34.75 352.402 38.625L348.84 43.3125C342.402 40.25 337.309 33.9688 334.715 26.3125C332.09 34.5 326.934 41.2812 320.215 44.5625L316.59 39.5625C325.402 35.625 331.59 24.9375 331.59 14.25V4.6875H337.59V14.25ZM363.402 0V56.125H357.465V0H363.402Z" fill="#0800EE"/>
<path d="M261.78 4C270.655 3.9375 276.968 9.4375 277.03 17.3125C276.968 25.1875 270.655 30.6875 261.78 30.6875C252.968 30.6875 246.468 25.1875 246.53 17.3125C246.468 9.4375 252.968 3.9375 261.78 4ZM261.78 9.125C256.343 9.125 252.343 12.375 252.405 17.3125C252.343 22.25 256.343 25.5 261.78 25.5C267.218 25.5 271.218 22.25 271.218 17.3125C271.218 12.375 267.218 9.125 261.78 9.125ZM289.843 0V56.125H283.905V0H289.843ZM243.843 39.125C254.03 39.125 268.155 39 280.405 37.25L280.843 41.5625C268.155 44 254.593 44.0625 244.593 44.0625L243.843 39.125Z" fill="#0800EE"/>
<path d="M233.312 0V28.8125H227.438V0H233.312ZM233.375 31.5V45.5H202.5V50.6875H235.25V55.4375H196.75V41H227.5V36.1875H196.562V31.5H233.375ZM207.312 5.8125C207.25 13.3125 212.688 20.125 221.25 22.8125L218.312 27.4375C211.781 25.3125 206.875 20.875 204.375 15.1875C201.812 21.3125 196.812 26.1875 190.125 28.5L187.125 23.8125C195.875 20.875 201.25 13.5625 201.25 5.8125V1.5H207.312V5.8125Z" fill="#0800EE"/>
<path d="M149.657 8.9375C149.657 16.3125 154.782 23.125 163.157 25.875L159.97 30.5625C153.845 28.4062 149.251 24.0312 146.845 18.5C144.376 24.7812 139.626 29.6875 133.095 32.125L129.907 27.375C138.657 24.25 143.72 16.8125 143.782 8.4375V2.9375H149.657V8.9375ZM174.345 0V14.0625H182.47V19.0625H174.345V33.8125H168.407V0H174.345ZM156.282 35.125C167.782 35.125 174.845 38.9375 174.845 45.5C174.845 52.125 167.782 55.9375 156.282 55.875C144.657 55.9375 137.47 52.125 137.47 45.5C137.47 38.9375 144.657 35.125 156.282 35.125ZM156.282 39.8125C148.157 39.8125 143.345 41.9375 143.407 45.5C143.345 49.1875 148.157 51.1875 156.282 51.25C164.345 51.1875 169.032 49.1875 169.032 45.5C169.032 41.9375 164.345 39.8125 156.282 39.8125Z" fill="#0800EE"/>
<path d="M101.41 2.3125V21.5H85.2852V28H107.91V32.8125H56.8477V28H79.4102V21.5H63.3477V2.3125H101.41ZM69.1602 7V16.75H95.5352V7H69.1602ZM101.66 38.125V56H95.6602V42.8125H62.5352V38.125H101.66Z" fill="#0800EE"/>
<path d="M44.9424 2.25V5.75C44.8799 9.25 44.8799 13.625 43.8799 19.0625L38.0049 18.5625C38.8799 13.75 39.0049 10.1875 39.0049 7H6.25488V2.25H44.9424ZM51.2549 21.9375V26.625H0.317383V21.9375H20.7549V12.6875H26.5674V21.9375H51.2549ZM45.0674 31.25V45.125H12.2549V50.6875H46.5049V55.4375H6.31738V41H39.1924V36.0625H6.25488V31.25H45.0674Z" fill="#0800EE"/>
<path d="M201.249 215.136L183.579 186.653H191.095L199.93 201.422C200.414 202.301 200.941 203.268 201.513 204.323C202.084 205.378 202.612 206.367 203.095 207.29L204.743 210.587H204.875C205.403 209.488 205.952 208.389 206.524 207.29C207.007 206.367 207.535 205.378 208.106 204.323C208.677 203.268 209.227 202.301 209.754 201.422L218.655 186.653H225.842L207.974 215.466V235.707H201.249V215.136Z" fill="#0800EE"/>
<path d="M143.558 186.653H178.436V192.587H150.283V207.422H175.733V213.026H150.283V229.575H179.161V235.707H143.558V186.653Z" fill="#0800EE"/>
<path d="M104.346 186.653H111.071V229.575H136.455V235.707H104.346V186.653Z" fill="#0800EE"/>
<path d="M65.1338 186.653H71.8589V229.575H97.243V235.707H65.1338V186.653Z" fill="#0800EE"/>
<path d="M33.2061 186.653H40.7224L58.788 235.707H51.4035L46.5245 221.4H27.2063L22.1954 235.707H15.2725L33.2061 186.653ZM29.0524 216.125H44.7443L40.0631 202.411C39.6236 201.224 39.228 200.016 38.8763 198.785C38.5247 197.554 38.217 196.433 37.9533 195.422C37.6456 194.28 37.3599 193.137 37.0961 191.994H36.8983C36.5907 193.137 36.283 194.301 35.9753 195.488C35.6676 196.499 35.3379 197.62 34.9863 198.851C34.6347 200.082 34.261 201.268 33.8654 202.411L29.0524 216.125Z" fill="#0800EE"/>
<path d="M230.931 127.17H264.49V133.104H237.656V147.807H260.007V153.543H237.656V176.224H230.931V127.17Z" fill="#0800EE"/>
<path d="M198.613 177.279C194.921 177.279 191.58 176.642 188.591 175.367C185.646 174.048 183.119 172.246 181.009 169.96C178.943 167.675 177.36 164.971 176.262 161.851C175.163 158.73 174.613 155.345 174.613 151.697C174.613 148.005 175.163 144.598 176.262 141.478C177.36 138.357 178.943 135.675 181.009 133.434C183.119 131.148 185.646 129.368 188.591 128.093C191.58 126.775 194.921 126.115 198.613 126.115C202.305 126.115 205.624 126.775 208.569 128.093C211.557 129.368 214.085 131.148 216.151 133.434C218.261 135.675 219.865 138.357 220.964 141.478C222.107 144.598 222.678 148.005 222.678 151.697C222.678 155.345 222.107 158.73 220.964 161.851C219.865 164.971 218.261 167.675 216.151 169.96C214.085 172.246 211.557 174.048 208.569 175.367C205.624 176.642 202.305 177.279 198.613 177.279ZM198.613 171.345C201.382 171.345 203.821 170.861 205.931 169.894C208.085 168.883 209.887 167.499 211.338 165.741C212.788 163.983 213.865 161.917 214.568 159.543C215.316 157.126 215.689 154.51 215.689 151.697C215.689 148.884 215.316 146.269 214.568 143.851C213.865 141.434 212.788 139.346 211.338 137.588C209.887 135.829 208.085 134.445 205.931 133.434C203.821 132.423 201.382 131.917 198.613 131.917C195.844 131.917 193.382 132.423 191.228 133.434C189.118 134.445 187.338 135.829 185.888 137.588C184.437 139.346 183.338 141.434 182.591 143.851C181.844 146.269 181.47 148.884 181.47 151.697C181.47 154.51 181.844 157.126 182.591 159.543C183.338 161.917 184.437 163.983 185.888 165.741C187.338 167.499 189.118 168.883 191.228 169.894C193.382 170.861 195.844 171.345 198.613 171.345Z" fill="#0800EE"/>
<path d="M320.542 67.6875H328.058L346.124 116.741H338.739L333.86 102.434H314.542L309.531 116.741H302.608L320.542 67.6875ZM316.388 97.1594H332.08L327.399 83.4454C326.96 82.2586 326.564 81.0498 326.212 79.8191C325.861 78.5884 325.553 77.4675 325.289 76.4565C324.982 75.3137 324.696 74.1709 324.432 73.028H324.234C323.927 74.1709 323.619 75.3357 323.311 76.5225C323.004 77.5334 322.674 78.6543 322.322 79.885C321.971 81.1158 321.597 82.3026 321.201 83.4454L316.388 97.1594Z" fill="#0800EE"/>
<path d="M260.267 67.6875H283.211C285.409 67.6875 287.409 68.0172 289.211 68.6765C291.013 69.2919 292.552 70.1929 293.826 71.3797C295.145 72.5665 296.156 73.995 296.859 75.6653C297.562 77.3356 297.914 79.1817 297.914 81.2037C297.914 84.1926 297.233 86.742 295.87 88.8519C294.508 90.9177 292.2 92.4562 288.947 93.4671V93.6649C290.31 94.0605 291.453 94.588 292.376 95.2473C293.299 95.9066 294.046 96.7198 294.617 97.6868C295.189 98.6099 295.606 99.7307 295.87 101.049C296.178 102.368 296.398 103.906 296.529 105.665C296.661 107.599 296.815 109.225 296.991 110.544C297.167 111.818 297.343 112.873 297.518 113.708C297.694 114.5 297.87 115.115 298.046 115.555C298.266 115.95 298.507 116.236 298.771 116.412V116.741H291.585C291.321 116.522 291.101 116.192 290.925 115.752C290.749 115.313 290.596 114.675 290.464 113.84C290.332 113.005 290.222 111.95 290.134 110.676C290.046 109.357 289.936 107.709 289.804 105.731C289.585 102.258 288.706 99.8186 287.167 98.4121C285.629 97.0055 283.255 96.3022 280.046 96.3022H266.992V116.741H260.267V67.6875ZM266.992 90.8958H281.035C284.376 90.8958 286.859 90.1266 288.486 88.5881C290.156 87.0057 290.991 84.8739 290.991 82.1927C290.991 79.2916 290.244 77.1159 288.749 75.6653C287.299 74.2148 284.837 73.4896 281.365 73.4896H266.992V90.8958Z" fill="#0800EE"/>
<path d="M145.972 67.6875H153.026L173.136 98.4121C173.751 99.3351 174.367 100.368 174.982 101.511C175.641 102.61 176.235 103.665 176.762 104.676C177.378 105.819 177.993 106.983 178.608 108.17H178.806C178.718 106.939 178.63 105.709 178.542 104.478C178.454 103.423 178.389 102.28 178.345 101.049C178.345 99.8186 178.345 98.6978 178.345 97.6868V67.6875H184.674V116.741H177.685L157.642 86.0168C157.026 85.0937 156.389 84.0827 155.73 82.9839C155.114 81.885 154.521 80.8301 153.95 79.8191C153.29 78.6763 152.653 77.5115 152.037 76.3247H151.906C151.95 77.5554 152.015 78.7861 152.103 80.0169C152.147 81.0718 152.191 82.1927 152.235 83.3794C152.279 84.5662 152.301 85.6651 152.301 86.6761V116.741H145.972V67.6875Z" fill="#0800EE"/>
<path d="M114.044 67.6875H121.56L139.626 116.741H132.241L127.362 102.434H108.044L103.033 116.741H96.1104L114.044 67.6875ZM109.89 97.1594H125.582L120.901 83.4454C120.461 82.2586 120.066 81.0498 119.714 79.8191C119.363 78.5884 119.055 77.4675 118.791 76.4565C118.483 75.3137 118.198 74.1709 117.934 73.028H117.736C117.429 74.1709 117.121 75.3357 116.813 76.5225C116.505 77.5334 116.176 78.6543 115.824 79.885C115.473 81.1158 115.099 82.3026 114.703 83.4454L109.89 97.1594Z" fill="#0800EE"/>
<path d="M396.714 222.763C394.087 230.077 385.778 235.688 377.541 235.688C374.7 235.688 372.072 235.119 369.729 234.054C368.593 233.557 367.457 233.273 366.675 233.273C365.61 233.273 364.403 234.267 363.835 235.616H362.272L365.61 220.561H367.243C367.67 229.225 370.652 233.131 377.043 233.131C382.228 233.131 386.986 229.864 388.69 225.177C389.329 223.402 389.471 221.982 389.187 220.987C388.406 218.289 385.778 215.448 381.659 212.679C375.197 208.489 373.493 204.512 375.552 198.902C376.972 194.996 379.458 191.943 383.08 189.67C385.991 187.824 389.4 186.688 392.17 186.688C394.655 186.688 396.999 187.256 399.271 188.25C400.336 188.818 401.401 189.102 402.112 189.102C403.319 189.102 404.384 188.25 405.236 186.688H406.728L402.822 201.814H401.046C401.401 197.624 401.046 195.777 399.697 193.505C398.135 190.948 395.649 189.599 392.454 189.599C388.051 189.599 384.145 192.227 382.725 196.132C381.304 200.038 383.151 203.163 389.116 207.211C396.643 212.324 398.845 216.869 396.714 222.763Z" fill="#0800EE"/>
<path d="M359.714 222.763C357.087 230.077 348.778 235.688 340.541 235.688C337.7 235.688 335.072 235.119 332.729 234.054C331.593 233.557 330.457 233.273 329.675 233.273C328.61 233.273 327.403 234.267 326.835 235.616H325.272L328.61 220.561H330.243C330.67 229.225 333.652 233.131 340.043 233.131C345.228 233.131 349.986 229.864 351.69 225.177C352.329 223.402 352.471 221.982 352.187 220.987C351.406 218.289 348.778 215.448 344.659 212.679C338.197 208.489 336.493 204.512 338.552 198.902C339.972 194.996 342.458 191.943 346.08 189.67C348.991 187.824 352.4 186.688 355.17 186.688C357.655 186.688 359.999 187.256 362.271 188.25C363.336 188.818 364.401 189.102 365.112 189.102C366.319 189.102 367.384 188.25 368.236 186.688H369.728L365.822 201.814H364.046C364.401 197.624 364.046 195.777 362.697 193.505C361.135 190.948 358.649 189.599 355.454 189.599C351.051 189.599 347.145 192.227 345.725 196.132C344.304 200.038 346.151 203.163 352.116 207.211C359.643 212.324 361.845 216.869 359.714 222.763Z" fill="#0800EE"/>
<path d="M326.501 211.472C321.317 225.745 308.037 235.688 294.047 235.688C287.798 235.688 282.472 232.918 279.987 228.444C277.643 224.325 277.714 217.863 280.129 211.188C285.313 196.914 298.734 186.688 312.298 186.688C319.116 186.688 324.158 189.244 326.856 194.144C329.2 198.405 329.058 204.441 326.501 211.472ZM318.405 211.401C321.459 202.95 321.743 196.274 319.187 192.795C317.482 190.522 314.642 189.244 311.375 189.244C307.469 189.244 303.421 190.806 299.516 193.86C295.326 197.198 290.852 204.086 288.224 211.33C285.384 219.212 285.1 226.385 287.585 229.651C289.289 231.853 291.988 233.131 295.255 233.131C299.018 233.131 302.64 231.853 306.049 229.367C308.25 227.734 310.168 225.959 311.446 224.183C314.216 220.49 316.914 215.59 318.405 211.401Z" fill="#0800EE"/>
<path d="M254.572 229.864C264.159 229.864 267.259 228.87 272.586 222.337H274.361L266.478 234.693H228.272L228.77 233.344C234.096 232.989 235.445 231.995 237.291 226.953L248.725 195.422C250.571 190.38 250.003 189.457 244.89 189.031L245.387 187.682H265.413L264.916 189.031C259.164 189.386 257.814 190.38 255.968 195.422L244.772 226.953C243.849 229.438 244.63 229.864 249.814 229.864H254.572Z" fill="#0800EE"/>
<path d="M246.367 103.689L238.744 115.688H200.272L200.771 114.339C206.114 113.984 207.468 112.99 209.32 107.949L220.791 76.4262C222.643 71.3854 222.073 70.4624 216.943 70.0364L217.442 68.6875H255.272L251.782 78.8401H250C251.14 72.4503 249.441 72.1875 241.39 72.1875H231.772C229.849 72.1875 229.279 72.6135 228.567 74.6014L223.772 88.6875H234.744C240.515 88.6875 241.522 88.6377 244.586 82.8159H247.272L241.217 99.2872H238.53C239.741 93.3945 238.958 93.1875 233.116 93.1875H222.144L216.557 108.416C216.059 109.765 215.916 110.404 216.272 110.688C216.7 111.184 219.478 111.468 222.898 111.468H224.822C235.01 111.468 238.032 111.357 244.372 103.689H246.367Z" fill="#0800EE"/>
</svg>
