<svg width="392" height="169" viewBox="0 0 392 169" fill="none" xmlns="http://www.w3.org/2000/svg">
<path d="M185.977 147.449L168.307 118.966H175.823L184.658 133.735C185.141 134.614 185.669 135.581 186.24 136.636C186.812 137.691 187.339 138.68 187.823 139.603L189.471 142.899H189.603C190.13 141.8 190.68 140.702 191.251 139.603C191.735 138.68 192.262 137.691 192.834 136.636C193.405 135.581 193.954 134.614 194.482 133.735L203.383 118.966H210.569L192.702 147.778V168.02H185.977V147.449Z" fill="#0800EE"/>
<path d="M128.285 118.966H163.163V124.9H135.01V139.735H160.46V145.339H135.01V161.888H163.888V168.02H128.285V118.966Z" fill="#0800EE"/>
<path d="M89.0728 118.966H95.7979V161.888H121.182V168.02H89.0728V118.966Z" fill="#0800EE"/>
<path d="M49.8608 118.966H56.586V161.888H81.97V168.02H49.8608V118.966Z" fill="#0800EE"/>
<path d="M17.9337 118.966H25.45L43.5155 168.02H36.131L31.252 153.712H11.9338L6.92292 168.02H0L17.9337 118.966ZM13.7799 148.438H29.4719L24.7906 134.724C24.3511 133.537 23.9555 132.328 23.6039 131.097C23.2522 129.867 22.9445 128.746 22.6808 127.735C22.3731 126.592 22.0874 125.449 21.8237 124.306H21.6259C21.3182 125.449 21.0105 126.614 20.7028 127.801C20.3951 128.812 20.0655 129.933 19.7138 131.163C19.3622 132.394 18.9886 133.581 18.593 134.724L13.7799 148.438Z" fill="#0800EE"/>
<path d="M215.658 59.4822H249.218V65.4161H222.383V80.1191H244.734V85.8552H222.383V108.536H215.658V59.4822Z" fill="#0800EE"/>
<path d="M183.34 109.591C179.648 109.591 176.307 108.954 173.319 107.679C170.374 106.361 167.846 104.559 165.736 102.273C163.67 99.9872 162.088 97.284 160.989 94.1632C159.89 91.0424 159.341 87.6578 159.341 84.0096C159.341 80.3173 159.89 76.9108 160.989 73.79C162.088 70.6692 163.67 67.988 165.736 65.7462C167.846 63.4606 170.374 61.6804 173.319 60.4057C176.307 59.0871 179.648 58.4277 183.34 58.4277C187.033 58.4277 190.351 59.0871 193.296 60.4057C196.285 61.6804 198.812 63.4606 200.878 65.7462C202.988 67.988 204.593 70.6692 205.691 73.79C206.834 76.9108 207.406 80.3173 207.406 84.0096C207.406 87.6578 206.834 91.0424 205.691 94.1632C204.593 97.284 202.988 99.9872 200.878 102.273C198.812 104.559 196.285 106.361 193.296 107.679C190.351 108.954 187.033 109.591 183.34 109.591ZM183.34 103.657C186.109 103.657 188.549 103.174 190.659 102.207C192.813 101.196 194.615 99.8114 196.065 98.0532C197.516 96.295 198.593 94.2291 199.296 91.8555C200.043 89.438 200.417 86.8227 200.417 84.0096C200.417 81.1965 200.043 78.5811 199.296 76.1636C198.593 73.7461 197.516 71.6582 196.065 69.9C194.615 68.1418 192.813 66.7572 190.659 65.7462C188.549 64.7353 186.109 64.2298 183.34 64.2298C180.571 64.2298 178.11 64.7353 175.956 65.7462C173.846 66.7572 172.066 68.1418 170.615 69.9C169.165 71.6582 168.066 73.7461 167.319 76.1636C166.571 78.5811 166.198 81.1965 166.198 84.0096C166.198 86.8227 166.571 89.438 167.319 91.8555C168.066 94.2291 169.165 96.295 170.615 98.0532C172.066 99.8114 173.846 101.196 175.956 102.207C178.11 103.174 180.571 103.657 183.34 103.657Z" fill="#0800EE"/>
<path d="M305.27 0H312.786L330.851 49.0538H323.467L318.588 34.7465H299.27L294.259 49.0538H287.336L305.27 0ZM301.116 29.4719H316.808L312.127 15.7579C311.687 14.5711 311.291 13.3623 310.94 12.1316C310.588 10.9009 310.28 9.78 310.017 8.76903C309.709 7.6262 309.423 6.48337 309.16 5.34054H308.962C308.654 6.48337 308.346 7.64818 308.039 8.83496C307.731 9.84593 307.401 10.9668 307.05 12.1975C306.698 13.4283 306.325 14.6151 305.929 15.7579L301.116 29.4719Z" fill="#0800EE"/>
<path d="M244.994 0H267.939C270.136 0 272.136 0.329663 273.939 0.988988C275.741 1.60436 277.279 2.50544 278.554 3.69222C279.872 4.87901 280.883 6.30755 281.587 7.97784C282.29 9.64813 282.642 11.4942 282.642 13.5162C282.642 16.5051 281.96 19.0545 280.598 21.1644C279.235 23.2302 276.927 24.7687 273.675 25.7796V25.9774C275.037 26.373 276.18 26.9005 277.103 27.5598C278.026 28.2191 278.774 29.0323 279.345 29.9993C279.916 30.9224 280.334 32.0432 280.598 33.3619C280.905 34.6805 281.125 36.219 281.257 37.9772C281.389 39.9112 281.543 41.5375 281.719 42.8562C281.894 44.1309 282.07 45.1858 282.246 46.0209C282.422 46.8121 282.598 47.4275 282.774 47.867C282.993 48.2626 283.235 48.5483 283.499 48.7242V49.0538H276.312C276.048 48.834 275.829 48.5044 275.653 48.0648C275.477 47.6253 275.323 46.9879 275.191 46.1528C275.059 45.3177 274.949 44.2627 274.862 42.988C274.774 41.6694 274.664 40.0211 274.532 38.0431C274.312 34.5706 273.433 32.1311 271.895 30.7246C270.356 29.318 267.983 28.6147 264.774 28.6147H251.719V49.0538H244.994V0ZM251.719 23.2083H265.763C269.103 23.2083 271.587 22.4391 273.213 20.9006C274.884 19.3182 275.719 17.1864 275.719 14.5052C275.719 11.6041 274.971 9.42836 273.477 7.97784C272.026 6.52732 269.565 5.80207 266.093 5.80207H251.719V23.2083Z" fill="#0800EE"/>
<path d="M130.699 0H137.754L157.863 30.7246C158.478 31.6476 159.094 32.6806 159.709 33.8234C160.368 34.9223 160.962 35.9772 161.489 36.9882C162.105 38.131 162.72 39.2958 163.335 40.4826H163.533C163.445 39.2519 163.357 38.0211 163.269 36.7904C163.182 35.7355 163.116 34.5926 163.072 33.3619C163.072 32.1311 163.072 31.0103 163.072 29.9993V0H169.401V49.0538H162.412L142.369 18.3293C141.753 17.4062 141.116 16.3952 140.457 15.2964C139.841 14.1975 139.248 13.1426 138.677 12.1316C138.017 10.9888 137.38 9.82395 136.765 8.63716H136.633C136.677 9.86791 136.743 11.0986 136.83 12.3294C136.874 13.3843 136.918 14.5052 136.962 15.6919C137.006 16.8787 137.028 17.9776 137.028 18.9886V49.0538H130.699V0Z" fill="#0800EE"/>
<path d="M98.7716 0H106.288L124.353 49.0538H116.969L112.09 34.7465H92.7717L87.7608 49.0538H80.8379L98.7716 0ZM94.6178 29.4719H110.31L105.629 15.7579C105.189 14.5711 104.793 13.3623 104.442 12.1316C104.09 10.9009 103.782 9.78 103.519 8.76903C103.211 7.6262 102.925 6.48337 102.662 5.34054H102.464C102.156 6.48337 101.848 7.64818 101.541 8.83496C101.233 9.84593 100.903 10.9668 100.552 12.1975C100.2 13.4283 99.8265 14.6151 99.4309 15.7579L94.6178 29.4719Z" fill="#0800EE"/>
<path d="M381.442 155.075C378.815 162.39 370.506 168 362.268 168C359.428 168 356.8 167.432 354.457 166.367C353.32 165.87 352.184 165.586 351.403 165.586C350.338 165.586 349.13 166.58 348.562 167.929H347L350.338 152.874H351.971C352.397 161.538 355.38 165.443 361.771 165.443C366.955 165.443 371.713 162.177 373.417 157.49C374.057 155.714 374.199 154.294 373.915 153.3C373.133 150.601 370.506 147.761 366.387 144.991C359.925 140.801 358.22 136.825 360.28 131.214C361.7 127.309 364.186 124.255 367.807 121.983C370.719 120.136 374.128 119 376.897 119C379.383 119 381.726 119.568 383.999 120.562C385.064 121.13 386.129 121.414 386.839 121.414C388.046 121.414 389.112 120.562 389.964 119H391.455L387.549 134.126H385.774C386.129 129.936 385.774 128.09 384.425 125.817C382.862 123.261 380.377 121.912 377.181 121.912C372.778 121.912 368.872 124.539 367.452 128.445C366.032 132.351 367.878 135.475 373.843 139.523C381.371 144.636 383.572 149.181 381.442 155.075Z" fill="#0800EE"/>
<path d="M344.442 155.075C341.814 162.39 333.506 168 325.268 168C322.428 168 319.8 167.432 317.457 166.367C316.32 165.87 315.184 165.586 314.403 165.586C313.338 165.586 312.13 166.58 311.562 167.929H310L313.338 152.874H314.971C315.397 161.538 318.38 165.443 324.771 165.443C329.955 165.443 334.713 162.177 336.417 157.49C337.057 155.714 337.199 154.294 336.914 153.3C336.133 150.601 333.506 147.761 329.387 144.991C322.925 140.801 321.22 136.825 323.28 131.214C324.7 127.309 327.186 124.255 330.807 121.983C333.719 120.136 337.128 119 339.897 119C342.383 119 344.726 119.568 346.999 120.562C348.064 121.13 349.129 121.414 349.839 121.414C351.046 121.414 352.112 120.562 352.964 119H354.455L350.549 134.126H348.774C349.129 129.936 348.774 128.09 347.425 125.817C345.862 123.261 343.377 121.912 340.181 121.912C335.778 121.912 331.872 124.539 330.452 128.445C329.032 132.351 330.878 135.475 336.843 139.523C344.371 144.636 346.572 149.181 344.442 155.075Z" fill="#0800EE"/>
<path d="M311.229 143.784C306.045 158.058 292.765 168 278.775 168C272.526 168 267.2 165.23 264.714 160.757C262.371 156.638 262.442 150.175 264.856 143.5C270.04 129.226 283.462 119 297.026 119C303.843 119 308.885 121.557 311.584 126.457C313.927 130.717 313.785 136.754 311.229 143.784ZM303.133 143.713C306.187 135.262 306.471 128.587 303.914 125.107C302.21 122.835 299.369 121.557 296.103 121.557C292.197 121.557 288.149 123.119 284.243 126.172C280.053 129.51 275.579 136.399 272.952 143.642C270.111 151.525 269.827 158.697 272.313 161.964C274.017 164.165 276.716 165.443 279.982 165.443C283.746 165.443 287.368 164.165 290.776 161.68C292.978 160.046 294.895 158.271 296.174 156.496C298.943 152.803 301.642 147.903 303.133 143.713Z" fill="#0800EE"/>
<path d="M239.3 162.177C248.887 162.177 251.987 161.183 257.313 154.649H259.088L251.206 167.006H213L213.497 165.656C218.823 165.301 220.172 164.307 222.019 159.265L233.452 127.735C235.299 122.693 234.73 121.77 229.617 121.343L230.114 119.994H250.141L249.643 121.343C243.891 121.698 242.542 122.693 240.696 127.735L229.5 159.265C228.577 161.751 229.358 162.177 234.542 162.177H239.3Z" fill="#0800EE"/>
<path d="M231.095 36.0015L223.472 48H185L185.499 46.6511C190.842 46.2961 192.196 45.3021 194.048 40.2613L205.518 8.73867C207.37 3.69789 206.801 2.77493 201.671 2.34895L202.17 1H240L236.509 11.1526H234.728C235.868 4.76284 234.168 4.5 226.118 4.5H216.5C214.576 4.5 214.006 4.92598 213.294 6.9139L208.5 21H219.472C225.242 21 226.25 20.9502 229.313 15.1284H232L225.944 31.5997H223.258C224.469 25.707 223.685 25.5 217.843 25.5H206.872L201.285 40.7281C200.786 42.077 200.644 42.716 201 43C201.427 43.497 204.206 43.781 207.626 43.781H209.549C219.737 43.781 222.759 43.6692 229.1 36.0015H231.095Z" fill="#0800EE"/>
</svg>
