<svg width="548" height="306" viewBox="0 0 548 306" fill="none" xmlns="http://www.w3.org/2000/svg">
<path d="M547.025 0V72.7004H539.641V35.1331H530.229V68.968H523.17V1.4605H530.229V28.8043H539.641V0H547.025ZM514.326 8.76299V15.0107H494.772V48.6833C503.697 48.6021 510.431 48.1965 518.221 46.736L518.789 53.0648C510.026 54.8498 502.561 55.1744 491.932 55.2555H487.063V8.76299H514.326Z" fill="#0800EE"/>
<path d="M437.854 18.4996C437.773 31.8064 445.806 45.1132 457.084 50.1438L452.459 56.2292C444.102 52.2534 437.489 44.0989 434.122 34.1594C430.714 44.7886 424.02 53.5922 415.297 57.852L410.591 51.3609C422.032 46.2491 430.065 32.3744 430.065 18.4996V6.08541H437.854V18.4996ZM471.364 0V72.8627H463.656V0H471.364Z" fill="#0800EE"/>
<path d="M339.436 5.19288C350.957 5.11175 359.152 12.252 359.234 22.4755C359.152 32.6989 350.957 39.8392 339.436 39.8392C327.995 39.8392 319.557 32.6989 319.638 22.4755C319.557 12.252 327.995 5.11175 339.436 5.19288ZM339.436 11.8463C332.377 11.8463 327.184 16.0655 327.265 22.4755C327.184 28.8854 332.377 33.1046 339.436 33.1046C346.495 33.1046 351.688 28.8854 351.688 22.4755C351.688 16.0655 346.495 11.8463 339.436 11.8463ZM375.867 0V72.8627H368.159V0H375.867ZM316.149 50.7929C329.375 50.7929 347.712 50.6306 363.615 48.3587L364.183 53.9573C347.712 57.1217 330.105 57.2029 317.123 57.2029L316.149 50.7929Z" fill="#0800EE"/>
<path d="M302.479 0V37.405H294.852V0H302.479ZM302.56 40.894V59.0691H262.478V65.8036H304.994V71.9701H255.013V53.2271H294.933V46.9794H254.77V40.894H302.56ZM268.725 7.54591C268.644 17.2826 275.703 26.1267 286.819 29.6157L283.006 35.6199C274.527 32.8612 268.157 27.1004 264.912 19.7167C261.585 27.6683 255.094 33.9972 246.412 36.9993L242.518 30.9139C253.877 27.1004 260.855 17.6071 260.855 7.54591V1.94733H268.725V7.54591Z" fill="#0800EE"/>
<path d="M193.876 11.6029C193.876 21.1772 200.53 30.0214 211.402 33.5915L207.264 39.6769C199.312 36.8776 193.349 31.1979 190.225 24.0171C187.02 32.1715 180.853 38.5409 172.374 41.7054L168.236 35.5388C179.596 31.4819 186.168 21.8263 186.249 10.9537V3.81352H193.876V11.6029ZM225.926 0V18.2562H236.474V24.7473H225.926V43.8961H218.218V0H225.926ZM202.477 45.6C217.406 45.6 226.575 50.5495 226.575 59.0691C226.575 67.6698 217.406 72.6192 202.477 72.5381C187.385 72.6192 178.054 67.6698 178.054 59.0691C178.054 50.5495 187.385 45.6 202.477 45.6ZM202.477 51.6854C191.929 51.6854 185.681 54.4441 185.762 59.0691C185.681 63.8563 191.929 66.4527 202.477 66.5338C212.944 66.4527 219.029 63.8563 219.029 59.0691C219.029 54.4441 212.944 51.6854 202.477 51.6854Z" fill="#0800EE"/>
<path d="M131.241 3.0022V27.9118H110.307V36.3503H139.679V42.5979H73.3887V36.3503H102.68V27.9118H81.8271V3.0022H131.241ZM89.373 9.08761V21.7453H123.614V9.08761H89.373ZM131.565 49.4947V72.7004H123.776V55.5802H80.7723V49.4947H131.565Z" fill="#0800EE"/>
<path d="M57.9331 2.92065V7.46443C57.852 12.0082 57.852 17.6879 56.5537 24.747L48.9267 24.0979C50.0626 17.8502 50.2249 13.2253 50.2249 9.0872H7.70819V2.92065H57.9331ZM66.1281 28.4794V34.5648H0V28.4794H26.5324V16.4708H34.0783V28.4794H66.1281ZM58.0954 40.5691V58.5819H15.4975V65.8032H59.9616V71.9698H7.78933V53.2267H50.4683V46.8167H7.70819V40.5691H58.0954Z" fill="#0800EE"/>
<path d="M260.854 279.294L237.914 242.317H247.672L259.142 261.491C259.769 262.632 260.454 263.887 261.196 265.257C261.938 266.626 262.622 267.91 263.25 269.109L265.39 273.388H265.561C266.246 271.962 266.959 270.535 267.701 269.109C268.329 267.91 269.014 266.626 269.755 265.257C270.497 263.887 271.211 262.632 271.895 261.491L283.451 242.317H292.78L269.584 279.722V306H260.854V279.294Z" fill="#0800EE"/>
<path d="M185.958 242.317H231.237V250.021H194.688V269.28H227.728V276.555H194.688V298.04H232.179V306H185.958V242.317Z" fill="#0800EE"/>
<path d="M135.051 242.317H143.782V298.04H176.736V306H135.051V242.317Z" fill="#0800EE"/>
<path d="M84.146 242.317H92.8767V298.04H125.831V306H84.146V242.317Z" fill="#0800EE"/>
<path d="M42.6974 242.317H52.4552L75.9083 306H66.3216L59.9876 287.426H34.9082L28.403 306H19.4155L42.6974 242.317ZM37.3049 280.578H57.6765L51.5993 262.775C51.0286 261.234 50.5151 259.665 50.0586 258.067C49.602 256.469 49.2026 255.014 48.8602 253.702C48.4608 252.218 48.0899 250.734 47.7475 249.251H47.4907C47.0913 250.734 46.6918 252.246 46.2924 253.787C45.8929 255.1 45.465 256.555 45.0084 258.152C44.5519 259.75 44.0669 261.291 43.5533 262.775L37.3049 280.578Z" fill="#0800EE"/>
<path d="M299.387 165.094H342.955V172.798H308.117V191.885H337.134V199.332H308.117V228.777H299.387V165.094Z" fill="#0800EE"/>
<path d="M257.431 230.147C252.638 230.147 248.301 229.32 244.421 227.665C240.597 225.953 237.316 223.614 234.577 220.646C231.895 217.679 229.841 214.17 228.414 210.118C226.988 206.067 226.274 201.673 226.274 196.936C226.274 192.143 226.988 187.721 228.414 183.669C229.841 179.618 231.895 176.137 234.577 173.227C237.316 170.259 240.597 167.948 244.421 166.293C248.301 164.582 252.638 163.726 257.431 163.726C262.224 163.726 266.533 164.582 270.356 166.293C274.236 167.948 277.517 170.259 280.199 173.227C282.938 176.137 285.021 179.618 286.448 183.669C287.931 187.721 288.673 192.143 288.673 196.936C288.673 201.673 287.931 206.067 286.448 210.118C285.021 214.17 282.938 217.679 280.199 220.646C277.517 223.614 274.236 225.953 270.356 227.665C266.533 229.32 262.224 230.147 257.431 230.147ZM257.431 222.444C261.026 222.444 264.193 221.816 266.932 220.561C269.728 219.248 272.068 217.451 273.951 215.168C275.834 212.886 277.232 210.204 278.145 207.122C279.115 203.984 279.6 200.589 279.6 196.936C279.6 193.284 279.115 189.889 278.145 186.751C277.232 183.612 275.834 180.902 273.951 178.619C272.068 176.337 269.728 174.539 266.932 173.227C264.193 171.914 261.026 171.258 257.431 171.258C253.836 171.258 250.64 171.914 247.844 173.227C245.105 174.539 242.794 176.337 240.911 178.619C239.028 180.902 237.601 183.612 236.631 186.751C235.661 189.889 235.176 193.284 235.176 196.936C235.176 200.589 235.661 203.984 236.631 207.122C237.601 210.204 239.028 212.886 240.911 215.168C242.794 217.451 245.105 219.248 247.844 220.561C250.64 221.816 253.836 222.444 257.431 222.444Z" fill="#0800EE"/>
<path d="M415.723 87.8733H425.481L448.934 151.556H439.347L433.013 132.982H407.934L401.428 151.556H392.441L415.723 87.8733ZM410.33 126.134H430.702L424.625 108.331C424.054 106.79 423.54 105.221 423.084 103.623C422.627 102.025 422.228 100.57 421.886 99.2574C421.486 97.7738 421.115 96.2901 420.773 94.8065H420.516C420.117 96.2901 419.717 97.8023 419.318 99.343C418.918 100.655 418.49 102.111 418.034 103.708C417.577 105.306 417.092 106.847 416.579 108.331L410.33 126.134Z" fill="#0800EE"/>
<path d="M337.471 87.8733H367.258C370.111 87.8733 372.708 88.3013 375.047 89.1572C377.387 89.9561 379.384 91.1259 381.039 92.6666C382.751 94.2073 384.063 96.0619 384.976 98.2303C385.889 100.399 386.346 102.795 386.346 105.42C386.346 109.301 385.461 112.61 383.693 115.349C381.924 118.031 378.928 120.028 374.705 121.341V121.598C376.474 122.111 377.958 122.796 379.156 123.652C380.354 124.508 381.324 125.564 382.066 126.819C382.808 128.017 383.35 129.472 383.693 131.184C384.092 132.896 384.377 134.894 384.548 137.176C384.72 139.687 384.919 141.798 385.148 143.51C385.376 145.165 385.604 146.534 385.832 147.619C386.061 148.646 386.289 149.445 386.517 150.015C386.802 150.529 387.116 150.9 387.459 151.128V151.556H378.129C377.786 151.271 377.501 150.843 377.273 150.272C377.045 149.701 376.845 148.874 376.674 147.79C376.503 146.706 376.36 145.336 376.246 143.681C376.132 141.969 375.989 139.829 375.818 137.262C375.532 132.754 374.391 129.587 372.394 127.761C370.397 125.935 367.315 125.022 363.15 125.022H346.202V151.556H337.471V87.8733ZM346.202 118.003H364.434C368.77 118.003 371.995 117.004 374.106 115.007C376.274 112.953 377.358 110.185 377.358 106.704C377.358 102.938 376.388 100.113 374.448 98.2303C372.565 96.3472 369.37 95.4057 364.862 95.4057H346.202V118.003Z" fill="#0800EE"/>
<path d="M189.091 87.8733H198.25L224.356 127.761C225.155 128.959 225.954 130.3 226.753 131.784C227.609 133.21 228.379 134.58 229.064 135.892C229.863 137.376 230.662 138.888 231.461 140.429H231.718C231.604 138.831 231.489 137.233 231.375 135.635C231.261 134.266 231.176 132.782 231.118 131.184C231.118 129.587 231.118 128.131 231.118 126.819V87.8733H239.336V151.556H230.263L204.242 111.669C203.443 110.47 202.615 109.158 201.759 107.731C200.96 106.305 200.19 104.935 199.448 103.623C198.592 102.139 197.765 100.627 196.966 99.0862H196.795C196.852 100.684 196.938 102.282 197.052 103.88C197.109 105.249 197.166 106.704 197.223 108.245C197.28 109.786 197.308 111.212 197.308 112.525V151.556H189.091V87.8733Z" fill="#0800EE"/>
<path d="M147.642 87.8733H157.4L180.853 151.556H171.266L164.932 132.982H139.853L133.348 151.556H124.36L147.642 87.8733ZM142.25 126.134H162.621L156.544 108.331C155.973 106.79 155.46 105.221 155.003 103.623C154.547 102.025 154.147 100.57 153.805 99.2574C153.406 97.7738 153.035 96.2901 152.692 94.8065H152.436C152.036 96.2901 151.637 97.8023 151.237 99.343C150.838 100.655 150.41 102.111 149.953 103.708C149.497 105.306 149.012 106.847 148.498 108.331L142.25 126.134Z" fill="#0800EE"/>
<path d="M514.612 289.195C511.201 298.691 500.414 305.974 489.72 305.974C486.032 305.974 482.621 305.237 479.579 303.854C478.104 303.209 476.628 302.84 475.614 302.84C474.231 302.84 472.664 304.131 471.927 305.882H469.898L474.232 286.337H476.352C476.905 297.585 480.777 302.655 489.074 302.655C495.805 302.655 501.981 298.415 504.194 292.33C505.024 290.025 505.208 288.181 504.839 286.891C503.825 283.387 500.414 279.7 495.067 276.104C486.677 270.665 484.465 265.502 487.138 258.219C488.982 253.148 492.209 249.184 496.911 246.234C500.691 243.837 505.116 242.362 508.712 242.362C511.938 242.362 514.981 243.099 517.931 244.39C519.314 245.127 520.697 245.496 521.618 245.496C523.186 245.496 524.569 244.39 525.675 242.362H527.611L522.54 261.999H520.236C520.697 256.559 520.236 254.162 518.484 251.212C516.456 247.893 513.229 246.141 509.08 246.141C503.364 246.141 498.294 249.553 496.45 254.623C494.606 259.694 497.003 263.75 504.747 269.005C514.52 275.643 517.378 281.543 514.612 289.195Z" fill="#0800EE"/>
<path d="M466.578 289.195C463.166 298.691 452.38 305.974 441.686 305.974C437.998 305.974 434.587 305.237 431.544 303.854C430.069 303.209 428.594 302.84 427.58 302.84C426.197 302.84 424.63 304.131 423.892 305.882H421.864L426.197 286.337H428.318C428.871 297.585 432.743 302.655 441.04 302.655C447.77 302.655 453.947 298.415 456.16 292.33C456.99 290.025 457.174 288.181 456.805 286.891C455.791 283.387 452.38 279.7 447.033 276.104C438.643 270.665 436.431 265.502 439.104 258.219C440.948 253.148 444.175 249.184 448.877 246.234C452.657 243.837 457.082 242.362 460.677 242.362C463.904 242.362 466.946 243.099 469.897 244.39C471.279 245.127 472.662 245.496 473.584 245.496C475.152 245.496 476.534 244.39 477.641 242.362H479.577L474.506 261.999H472.201C472.662 256.559 472.201 254.162 470.45 251.212C468.421 247.893 465.195 246.141 461.046 246.141C455.33 246.141 450.26 249.553 448.416 254.623C446.572 259.694 448.969 263.75 456.713 269.005C466.485 275.643 469.343 281.543 466.578 289.195Z" fill="#0800EE"/>
<path d="M423.459 274.537C416.729 293.067 399.489 305.974 381.327 305.974C373.214 305.974 366.3 302.379 363.073 296.571C360.031 291.224 360.123 282.834 363.257 274.168C369.987 255.637 387.412 242.362 405.021 242.362C413.871 242.362 420.417 245.681 423.92 252.042C426.962 257.573 426.778 265.41 423.459 274.537ZM412.949 274.445C416.913 263.474 417.282 254.808 413.963 250.29C411.751 247.34 408.063 245.681 403.822 245.681C398.751 245.681 393.496 247.709 388.426 251.673C382.987 256.006 377.178 264.949 373.767 274.352C370.08 284.586 369.711 293.897 372.938 298.138C375.15 300.996 378.653 302.655 382.894 302.655C387.781 302.655 392.482 300.996 396.908 297.769C399.766 295.649 402.255 293.344 403.914 291.039C407.51 286.245 411.013 279.884 412.949 274.445Z" fill="#0800EE"/>
<path d="M330.08 298.414C342.526 298.414 346.55 297.124 353.465 288.642H355.769L345.536 304.684H295.937L296.582 302.932C303.496 302.471 305.248 301.18 307.645 294.635L322.488 253.701C324.885 247.155 324.147 245.957 317.51 245.404L318.155 243.652H344.153L343.508 245.404C336.04 245.865 334.289 247.155 331.892 253.701L317.357 294.635C316.159 297.861 317.173 298.414 323.903 298.414H330.08Z" fill="#0800EE"/>
<path d="M319.426 134.611L309.53 150.188H259.585L260.233 148.437C267.17 147.976 268.927 146.685 271.332 140.141L286.223 99.2179C288.627 92.6738 287.887 91.4756 281.228 90.9226L281.876 89.1714H330.988L326.456 102.352H324.143C325.623 94.0564 323.417 93.7152 312.966 93.7152H300.479C297.982 93.7152 297.242 94.2682 296.317 96.8489L290.094 115.136H304.337C311.829 115.136 313.137 115.071 317.114 107.513H320.602L312.74 128.897H309.252C310.825 121.246 309.807 120.978 302.223 120.978H287.98L280.727 140.747C280.08 142.498 279.895 143.328 280.357 143.697C280.912 144.342 284.519 144.711 288.959 144.711H291.456C304.682 144.711 308.605 144.565 316.837 134.611H319.426Z" fill="#0800EE"/>
</svg>
