<svg width="147" height="32" viewBox="0 0 147 32" fill="none" xmlns="http://www.w3.org/2000/svg">
<path d="M122.073 0.660156H146.485V4.3715H136.382V31.3406H132.135V4.3715H122.073V0.660156Z" fill="#0800EE"/>
<path d="M106.275 31.7942C104.543 31.7942 102.948 31.6017 101.491 31.2169C100.061 30.8045 98.8243 30.1859 97.7797 29.3612C96.735 28.509 95.9102 27.423 95.3054 26.1035C94.7281 24.7839 94.4395 23.2031 94.4395 21.3612V0.660156H98.6456V20.9901C98.6456 23.5193 99.3054 25.3612 100.625 26.5158C101.972 27.643 103.883 28.2065 106.357 28.2065C108.749 28.2065 110.604 27.643 111.924 26.5158C113.244 25.3612 113.903 23.5193 113.903 20.9901V0.660156H118.11V21.3612C118.11 23.2031 117.807 24.7839 117.202 26.1035C116.598 27.423 115.759 28.509 114.687 29.3612C113.642 30.1859 112.391 30.8045 110.934 31.2169C109.505 31.6017 107.951 31.7942 106.275 31.7942Z" fill="#0800EE"/>
<path d="M74.7212 32C72.412 32 70.3226 31.6014 68.4532 30.8041C66.6113 29.9794 65.0305 28.8522 63.7109 27.4227C62.4188 25.9931 61.4291 24.3024 60.7419 22.3505C60.0546 20.3986 59.7109 18.2818 59.7109 16C59.7109 13.6907 60.0546 11.5601 60.7419 9.60825C61.4291 7.65636 62.4188 5.97938 63.7109 4.57732C65.0305 3.14777 66.6113 2.03436 68.4532 1.23711C70.3226 0.412372 72.412 0 74.7212 0C77.0305 0 79.1061 0.412372 80.948 1.23711C82.8175 2.03436 84.3982 3.14777 85.6903 4.57732C87.0099 5.97938 88.0133 7.65636 88.7006 9.60825C89.4154 11.5601 89.7728 13.6907 89.7728 16C89.7728 18.2818 89.4154 20.3986 88.7006 22.3505C88.0133 24.3024 87.0099 25.9931 85.6903 27.4227C84.3982 28.8522 82.8175 29.9794 80.948 30.8041C79.1061 31.6014 77.0305 32 74.7212 32ZM74.7212 28.2887C76.4532 28.2887 77.979 27.9863 79.2986 27.3814C80.6456 26.7491 81.7728 25.8832 82.68 24.7835C83.5872 23.6838 84.2608 22.3918 84.7006 20.9072C85.168 19.3952 85.4017 17.7595 85.4017 16C85.4017 14.2406 85.168 12.6048 84.7006 11.0928C84.2608 9.58076 83.5872 8.27492 82.68 7.17526C81.7728 6.0756 80.6456 5.20962 79.2986 4.57732C77.979 3.94502 76.4532 3.62887 74.7212 3.62887C72.9893 3.62887 71.4498 3.94502 70.1027 4.57732C68.7831 5.20962 67.6697 6.0756 66.7625 7.17526C65.8553 8.27492 65.168 9.58076 64.7006 11.0928C64.2333 12.6048 63.9996 14.2406 63.9996 16C63.9996 17.7595 64.2333 19.3952 64.7006 20.9072C65.168 22.3918 65.8553 23.6838 66.7625 24.7835C67.6697 25.8832 68.7831 26.7491 70.1027 27.3814C71.4498 27.9863 72.9893 28.2887 74.7212 28.2887Z" fill="#0800EE"/>
<path d="M32.1528 0.660156H45.3487C48.5102 0.660156 50.957 1.52614 52.6889 3.25809C53.3212 3.91789 53.8161 4.68765 54.1735 5.56737C54.5583 6.4471 54.7508 7.45053 54.7508 8.57768C54.7508 10.2547 54.2972 11.6292 53.3899 12.7014C52.4827 13.7736 51.2044 14.5433 49.5549 15.0107V15.1344C50.4896 15.3543 51.3418 15.6705 52.1116 16.0828C52.9088 16.4952 53.5961 17.0175 54.1735 17.6498C54.7508 18.2547 55.1906 18.9694 55.493 19.7942C55.8229 20.5914 55.9879 21.4986 55.9879 22.5158C55.9879 23.7529 55.7817 24.8801 55.3693 25.8973C54.957 26.887 54.3796 27.7529 53.6374 28.4952C52.7576 29.4024 51.6717 30.1035 50.3796 30.5983C49.0875 31.0931 47.6167 31.3406 45.9673 31.3406H32.1528V0.660156ZM44.7714 13.7323C46.5858 13.7323 47.9879 13.3199 48.9776 12.4952C49.9948 11.643 50.5033 10.4334 50.5033 8.86634C50.5033 7.4093 50.036 6.28215 49.1013 5.4849C48.1941 4.68765 46.9157 4.28902 45.2662 4.28902H36.359V13.7323H44.7714ZM45.7198 27.6292C47.7817 27.6292 49.3212 27.1206 50.3384 26.1035C51.2456 25.2512 51.6992 24.0966 51.6992 22.6395C51.6992 20.7976 51.1082 19.423 49.926 18.5158C48.7714 17.6086 47.2869 17.155 45.4724 17.155H36.359V27.6292H45.7198Z" fill="#0800EE"/>
<path d="M12.1843 0.660156H16.8853L28.1843 31.3406H23.5657L20.5142 22.3921H8.43169L5.29767 31.3406H0.967773L12.1843 0.660156ZM9.58633 19.0931H19.4008L16.4729 10.5158C16.198 9.77356 15.9506 9.01754 15.7307 8.24779C15.5107 7.47803 15.3183 6.777 15.1533 6.14469C14.9609 5.42992 14.7822 4.71514 14.6173 4.00036H14.4935C14.3011 4.71514 14.1087 5.44366 13.9162 6.18593C13.7238 6.81823 13.5176 7.51926 13.2977 8.28902C13.0777 9.05878 12.8441 9.80105 12.5966 10.5158L9.58633 19.0931Z" fill="#0800EE"/>
</svg>
