<svg width="235" height="32" viewBox="0 0 235 32" fill="none" xmlns="http://www.w3.org/2000/svg">
<path d="M230.691 27.0102H230.568C229.468 28.6872 228.107 29.938 226.485 30.7628C224.891 31.5875 223.09 31.9999 221.083 31.9999C218.939 31.9999 216.987 31.615 215.228 30.8453C213.468 30.048 211.956 28.9483 210.691 27.5463C209.399 26.1442 208.41 24.481 207.722 22.5566C207.035 20.6047 206.691 18.4603 206.691 16.1236C206.691 13.7868 207.021 11.6424 207.681 9.69054C208.341 7.71115 209.317 5.99293 210.609 4.53588C211.846 3.13381 213.358 2.03415 215.145 1.2369C216.959 0.439643 219.063 0.0410156 221.454 0.0410156C223.269 0.0410156 224.877 0.274694 226.279 0.74205C227.709 1.20941 228.946 1.8692 229.99 2.72144C231.035 3.54619 231.887 4.54963 232.547 5.73176C233.207 6.8864 233.688 8.16476 233.99 9.56683H229.619C229.152 7.83486 228.259 6.41905 226.939 5.31939C225.619 4.21973 223.777 3.6699 221.413 3.6699C219.626 3.6699 218.073 3.98605 216.753 4.61836C215.434 5.25066 214.348 6.13039 213.496 7.25754C212.643 8.3572 212.011 9.67679 211.599 11.2163C211.186 12.7284 210.98 14.3641 210.98 16.1236C210.98 17.938 211.228 19.6012 211.722 21.1133C212.245 22.5978 212.959 23.8762 213.867 24.9483C214.774 26.0205 215.86 26.859 217.124 27.4638C218.389 28.0411 219.777 28.3298 221.289 28.3298C222.801 28.3298 224.121 28.0961 225.248 27.6288C226.403 27.1339 227.351 26.4741 228.094 25.6494C228.836 24.8246 229.386 23.8762 229.743 22.804C230.128 21.7043 230.32 20.5497 230.32 19.3401V18.6803H221.413V15.0926H234.485V31.3401H231.805L230.691 27.0102Z" fill="#0800EE"/>
<path d="M176.457 0.659912H180.869L193.446 19.8765C193.831 20.4538 194.216 21.0999 194.601 21.8146C195.013 22.5019 195.384 23.1617 195.714 23.794C196.099 24.5088 196.484 25.2373 196.869 25.9796H196.993C196.938 25.2098 196.883 24.4401 196.828 23.6703C196.773 23.0105 196.732 22.2957 196.704 21.526C196.704 20.7562 196.704 20.0552 196.704 19.4229V0.659912H200.663V31.3404H196.292L183.756 12.1239C183.371 11.5466 182.972 10.9142 182.56 10.227C182.175 9.53967 181.804 8.87988 181.446 8.24757C181.034 7.53279 180.635 6.80427 180.25 6.06199H180.168C180.195 6.83176 180.237 7.60152 180.292 8.37128C180.319 9.03108 180.347 9.73211 180.374 10.4744C180.402 11.2167 180.415 11.9039 180.415 12.5362V31.3404H176.457V0.659912Z" fill="#0800EE"/>
<path d="M165.003 0.659912H169.209V31.3404H165.003V0.659912Z" fill="#0800EE"/>
<path d="M134.278 0.659912H138.814L145.536 21.1136C145.728 21.6634 145.92 22.3232 146.113 23.093C146.333 23.8353 146.539 24.55 146.731 25.2373C146.951 26.0346 147.158 26.8456 147.35 27.6703H147.433C147.625 26.8181 147.831 25.9933 148.051 25.1961C148.244 24.5088 148.436 23.794 148.628 23.0518C148.821 22.3095 149.013 21.6634 149.206 21.1136L155.845 0.659912H160.216L149.494 31.3404H144.876L134.278 0.659912Z" fill="#0800EE"/>
<path d="M125.257 0.659912H129.464V31.3404H125.257V0.659912Z" fill="#0800EE"/>
<path d="M93.7031 0.659912H97.9093V13.5672H113.744V0.659912H117.992V31.3404H113.744V16.9899H97.9093V31.3404H93.7031V0.659912Z" fill="#0800EE"/>
<path d="M74.9868 31.9589C72.7874 31.9589 70.7943 31.5603 69.0074 30.763C67.2479 29.9658 65.7359 28.8661 64.4713 27.464C63.2341 26.0345 62.2719 24.3437 61.5846 22.3918C60.8974 20.4399 60.5537 18.3094 60.5537 16.0001C60.5537 13.7458 60.8836 11.6427 61.5434 9.69076C62.2032 7.73886 63.1517 6.04814 64.3888 4.61858C65.6534 3.18902 67.1792 2.06186 68.9661 1.23712C70.7806 0.412373 72.8287 0 75.1105 0C76.9249 0 78.5332 0.247424 79.9352 0.742271C81.3648 1.20963 82.6019 1.86942 83.6466 2.72166C84.7462 3.60139 85.6122 4.65981 86.2445 5.89693C86.9043 7.10656 87.3442 8.45364 87.5641 9.93818H83.3579C83.0005 8.04127 82.1071 6.52924 80.6775 5.40208C79.2754 4.24744 77.3923 3.67012 75.028 3.67012C73.406 3.67012 71.9627 3.98627 70.6981 4.61858C69.4335 5.22339 68.3613 6.07562 67.4816 7.17529C66.6293 8.27495 65.9695 9.5808 65.5022 11.0928C65.0623 12.6049 64.8424 14.2406 64.8424 16.0001C64.8424 17.842 65.0761 19.519 65.5434 21.031C66.0383 22.543 66.7256 23.8351 67.6053 24.9073C68.5125 25.9795 69.5984 26.818 70.863 27.4228C72.1276 28.0001 73.5297 28.2888 75.0692 28.2888C76.4713 28.2888 77.6809 28.0688 78.6981 27.629C79.7428 27.1891 80.6088 26.598 81.2961 25.8558C82.0108 25.1135 82.5607 24.2613 82.9456 23.2991C83.3579 22.3094 83.6053 21.2647 83.6878 20.165H87.894C87.894 20.9348 87.7978 21.7183 87.6054 22.5156C87.4404 23.2853 87.193 24.0413 86.8631 24.7836C86.5332 25.5259 86.1483 26.2407 85.7085 26.9279C85.2686 27.5877 84.7737 28.1788 84.2239 28.7011C82.0521 30.873 78.973 31.9589 74.9868 31.9589Z" fill="#0800EE"/>
<path d="M32.0103 0.659912H46.3608C47.7354 0.659912 48.9863 0.866098 50.1134 1.27847C51.2406 1.66335 52.2028 2.22693 53 2.9692C53.8248 3.71147 54.4571 4.60494 54.8969 5.64962C55.3368 6.6943 55.5567 7.84894 55.5567 9.11355C55.5567 10.983 55.1306 12.5775 54.2784 13.8971C53.4261 15.1892 51.9828 16.1514 49.9485 16.7837V16.9074C50.8007 17.1548 51.5155 17.4847 52.0928 17.8971C52.6701 18.3095 53.1375 18.8181 53.4949 19.4229C53.8523 20.0002 54.1134 20.7012 54.2784 21.526C54.4708 22.3507 54.6083 23.3129 54.6908 24.4126C54.7732 25.6222 54.8695 26.6394 54.9794 27.4641C55.0894 28.2614 55.1994 28.9212 55.3093 29.4435C55.4193 29.9384 55.5293 30.3233 55.6392 30.5982C55.7767 30.8456 55.9279 31.0243 56.0928 31.1343V31.3404H51.598C51.433 31.203 51.2956 30.9968 51.1856 30.7219C51.0756 30.447 50.9794 30.0483 50.8969 29.526C50.8145 29.0037 50.7457 28.3439 50.6907 27.5466C50.6358 26.7219 50.567 25.6909 50.4846 24.4538C50.3471 22.282 49.7973 20.7562 48.8351 19.8765C47.8729 18.9968 46.3883 18.5569 44.3814 18.5569H36.2165V31.3404H32.0103V0.659912ZM36.2165 15.1754H45C47.0894 15.1754 48.6426 14.6943 49.6598 13.7321C50.7045 12.7424 51.2268 11.4091 51.2268 9.73211C51.2268 7.91767 50.7595 6.55684 49.8248 5.64962C48.9175 4.7424 47.378 4.28879 45.2062 4.28879H36.2165V15.1754Z" fill="#0800EE"/>
<path d="M11.2165 0.659912H15.9176L27.2166 31.3404H22.598L19.5465 22.392H7.46395L4.32991 31.3404H0L11.2165 0.659912ZM8.61859 19.093H18.4331L15.5052 10.5156C15.2303 9.77335 14.9829 9.01733 14.7629 8.24757C14.543 7.47781 14.3506 6.77678 14.1856 6.14447C13.9932 5.42969 13.8145 4.71491 13.6495 4.00013H13.5258C13.3334 4.71491 13.1409 5.44344 12.9485 6.18571C12.7561 6.81801 12.5499 7.51904 12.3299 8.28881C12.11 9.05857 11.8763 9.80084 11.6289 10.5156L8.61859 19.093Z" fill="#0800EE"/>
</svg>
