<svg width="95" height="24" viewBox="0 0 95 24" fill="none" xmlns="http://www.w3.org/2000/svg">
<path d="M0.5 0.494846H3.65464V10.1753H15.5309V0.494846H18.7165V23.5052H15.5309V12.7423H3.65464V23.5052H0.5V0.494846Z" fill="#0800EE"/>
<path d="M34.4948 24C32.7628 24 31.1958 23.701 29.7937 23.1031C28.4123 22.4845 27.2267 21.6392 26.237 20.567C25.268 19.4948 24.5257 18.2268 24.0102 16.7629C23.4948 15.299 23.237 13.7113 23.237 12C23.237 10.268 23.4948 8.6701 24.0102 7.20619C24.5257 5.74227 25.268 4.48454 26.237 3.43299C27.2267 2.36082 28.4123 1.52577 29.7937 0.927836C31.1958 0.309279 32.7628 0 34.4948 0C36.2267 0 37.7834 0.309279 39.1649 0.927836C40.5669 1.52577 41.7525 2.36082 42.7216 3.43299C43.7113 4.48454 44.4638 5.74227 44.9793 7.20619C45.5154 8.6701 45.7834 10.268 45.7834 12C45.7834 13.7113 45.5154 15.299 44.9793 16.7629C44.4638 18.2268 43.7113 19.4948 42.7216 20.567C41.7525 21.6392 40.5669 22.4845 39.1649 23.1031C37.7834 23.701 36.2267 24 34.4948 24ZM34.4948 21.2165C35.7937 21.2165 36.9381 20.9897 37.9277 20.5361C38.9381 20.0619 39.7834 19.4124 40.4638 18.5876C41.1442 17.7629 41.6494 16.7938 41.9793 15.6804C42.3298 14.5464 42.5051 13.3196 42.5051 12C42.5051 10.6804 42.3298 9.45361 41.9793 8.31959C41.6494 7.18557 41.1442 6.20619 40.4638 5.38144C39.7834 4.5567 38.9381 3.90722 37.9277 3.43299C36.9381 2.95876 35.7937 2.72165 34.4948 2.72165C33.1958 2.72165 32.0412 2.95876 31.0308 3.43299C30.0412 3.90722 29.2061 4.5567 28.5257 5.38144C27.8453 6.20619 27.3298 7.18557 26.9793 8.31959C26.6288 9.45361 26.4535 10.6804 26.4535 12C26.4535 13.3196 26.6288 14.5464 26.9793 15.6804C27.3298 16.7938 27.8453 17.7629 28.5257 18.5876C29.2061 19.4124 30.0412 20.0619 31.0308 20.5361C32.0412 20.9897 33.1958 21.2165 34.4948 21.2165Z" fill="#0800EE"/>
<path d="M50.2733 0.494846H54.3557L59.1496 12.9897C59.3764 13.6289 59.6238 14.3608 59.8918 15.1856C60.1805 16.0103 60.4382 16.7938 60.665 17.5361C60.9331 18.4021 61.2011 19.2887 61.4691 20.1959H61.531C61.8197 19.2887 62.098 18.4021 62.3661 17.5361C62.5929 16.7938 62.8403 16.0103 63.1083 15.1856C63.397 14.3608 63.6547 13.6289 63.8815 12.9897L68.5826 0.494846H72.7887V23.5052H69.7578V9.58763C69.7578 9.07217 69.7578 8.48454 69.7578 7.82474C69.7784 7.14433 69.8093 6.49485 69.8506 5.87629C69.8712 5.17526 69.9021 4.4433 69.9434 3.68041H69.8815L69.3248 5.62887C69.1599 6.16495 68.9846 6.74227 68.799 7.36083C68.6135 7.95876 68.4382 8.48454 68.2733 8.93814L62.6753 23.5052H60.2011L54.6032 8.93814C54.4382 8.48454 54.263 7.95876 54.0774 7.36083C53.8918 6.74227 53.7166 6.16495 53.5516 5.62887L52.9949 3.68041H52.9331C52.9537 4.4433 52.9846 5.17526 53.0258 5.87629C53.0465 6.49485 53.0671 7.14433 53.0877 7.82474C53.1083 8.48454 53.1186 9.07217 53.1186 9.58763V23.5052H50.2733V0.494846Z" fill="#0800EE"/>
<path d="M78.1349 0.494846H94.4957V3.27835H81.2895V10.2371H93.2277V12.866H81.2895V20.6289H94.8359V23.5052H78.1349V0.494846Z" fill="#0800EE"/>
</svg>
