<svg width="29" height="29" viewBox="0 0 29 29" fill="none" xmlns="http://www.w3.org/2000/svg">
<path fill-rule="evenodd" clip-rule="evenodd" d="M14.316 18.4398L23.7454 27.8584C24.2458 28.3582 24.9244 28.639 25.632 28.639C26.3396 28.639 27.0182 28.3582 27.5186 27.8584C28.0189 27.3587 28.3 26.6808 28.3 25.974C28.3 25.2672 28.0189 24.5893 27.5186 24.0896L18.0856 14.6709L27.5168 5.25223C27.7645 5.00477 27.9609 4.711 28.0948 4.38771C28.2288 4.06442 28.2977 3.71794 28.2976 3.36805C28.2976 3.01816 28.2285 2.67171 28.0944 2.34849C27.9602 2.02526 27.7637 1.73159 27.5159 1.48424C27.2682 1.23688 26.9741 1.0407 26.6504 0.906876C26.3268 0.773054 25.9799 0.70422 25.6296 0.704302C25.2793 0.704385 24.9325 0.773382 24.6089 0.907356C24.2853 1.04133 23.9913 1.23766 23.7436 1.48512L14.316 10.9038L4.88658 1.48512C4.64066 1.23056 4.34645 1.02746 4.02111 0.887684C3.69576 0.747907 3.34581 0.67425 2.99167 0.67101C2.63752 0.667771 2.28628 0.735013 1.95843 0.868815C1.63058 1.00262 1.33269 1.2003 1.08214 1.45032C0.831594 1.70035 0.633407 1.99771 0.499143 2.32506C0.36488 2.65241 0.297229 3.00319 0.300139 3.35694C0.303048 3.71068 0.376459 4.0603 0.516088 4.38541C0.655717 4.71051 0.858769 5.00458 1.11339 5.25046L10.5464 14.6709L1.11517 24.0913C0.860548 24.3372 0.657496 24.6313 0.517867 24.9564C0.378238 25.2815 0.304826 25.6311 0.301917 25.9849C0.299007 26.3386 0.366658 26.6894 0.500921 27.0167C0.635185 27.3441 0.833372 27.6414 1.08392 27.8915C1.33447 28.1415 1.63235 28.3392 1.9602 28.473C2.28805 28.6068 2.6393 28.674 2.99344 28.6708C3.34759 28.6675 3.69754 28.5939 4.02288 28.4541C4.34822 28.3143 4.64244 28.1112 4.88836 27.8567L14.316 18.4398Z" fill="currentColor"/>
</svg>
