<svg width="2432" height="100" viewBox="0 0 2432 100" fill="none" xmlns="http://www.w3.org/2000/svg">
<path d="M41.5774 21.7613C42.8247 21.7613 43.9253 22.2083 44.8791 23.1025L47.6304 25.8213C48.5598 26.7396 49.0245 27.8392 49.0245 29.12C49.0245 30.425 48.5598 31.5125 47.6304 32.3825L36.8818 43.04L62.7079 43.04C63.9796 43.04 65.0129 43.4931 65.8077 44.3994C66.6026 45.3056 67 46.3992 67 47.68L67 52.32C67 53.6008 66.6026 54.6944 65.8077 55.6006C65.0129 56.5069 63.9796 56.96 62.7079 56.96L36.8818 56.96L47.6304 67.6175C48.5598 68.4875 49.0245 69.575 49.0245 70.88C49.0245 72.185 48.5598 73.2725 47.6304 74.1425L44.8791 76.8613C43.9497 77.7796 42.8492 78.2388 41.5774 78.2388C40.2812 78.2388 39.1685 77.7796 38.2391 76.8613L14.3573 53.2625C13.4524 52.4167 13 51.3292 13 50C13 48.695 13.4524 47.5954 14.3573 46.7013L38.2391 23.1025C39.1929 22.2083 40.3057 21.7613 41.5774 21.7613Z" fill="#0800EE"/>
<path d="M139.577 21.7613C140.825 21.7613 141.925 22.2083 142.879 23.1025L145.63 25.8213C146.56 26.7396 147.024 27.8392 147.024 29.12C147.024 30.425 146.56 31.5125 145.63 32.3825L134.882 43.04L160.708 43.04C161.98 43.04 163.013 43.4931 163.808 44.3994C164.603 45.3056 165 46.3992 165 47.68L165 52.32C165 53.6008 164.603 54.6944 163.808 55.6006C163.013 56.5069 161.98 56.96 160.708 56.96L134.882 56.96L145.63 67.6175C146.56 68.4875 147.024 69.575 147.024 70.88C147.024 72.185 146.56 73.2725 145.63 74.1425L142.879 76.8613C141.95 77.7796 140.849 78.2388 139.577 78.2388C138.281 78.2388 137.168 77.7796 136.239 76.8613L112.357 53.2625C111.452 52.4167 111 51.3292 111 50C111 48.695 111.452 47.5954 112.357 46.7013L136.239 23.1025C137.193 22.2083 138.306 21.7613 139.577 21.7613Z" fill="#0800EE"/>
<path d="M237.577 21.7613C238.825 21.7613 239.925 22.2083 240.879 23.1025L243.63 25.8213C244.56 26.7396 245.024 27.8392 245.024 29.12C245.024 30.425 244.56 31.5125 243.63 32.3825L232.882 43.04L258.708 43.04C259.98 43.04 261.013 43.4931 261.808 44.3994C262.603 45.3056 263 46.3992 263 47.68L263 52.32C263 53.6008 262.603 54.6944 261.808 55.6006C261.013 56.5069 259.98 56.96 258.708 56.96L232.882 56.96L243.63 67.6175C244.56 68.4875 245.024 69.575 245.024 70.88C245.024 72.185 244.56 73.2725 243.63 74.1425L240.879 76.8613C239.95 77.7796 238.849 78.2388 237.577 78.2388C236.281 78.2388 235.168 77.7796 234.239 76.8613L210.357 53.2625C209.452 52.4167 209 51.3292 209 50C209 48.695 209.452 47.5954 210.357 46.7013L234.239 23.1025C235.193 22.2083 236.306 21.7613 237.577 21.7613Z" fill="#0800EE"/>
<path d="M335.577 21.7613C336.825 21.7613 337.925 22.2083 338.879 23.1025L341.63 25.8213C342.56 26.7396 343.024 27.8392 343.024 29.12C343.024 30.425 342.56 31.5125 341.63 32.3825L330.882 43.04L356.708 43.04C357.98 43.04 359.013 43.4931 359.808 44.3994C360.603 45.3056 361 46.3992 361 47.68L361 52.32C361 53.6008 360.603 54.6944 359.808 55.6006C359.013 56.5069 357.98 56.96 356.708 56.96L330.882 56.96L341.63 67.6175C342.56 68.4875 343.024 69.575 343.024 70.88C343.024 72.185 342.56 73.2725 341.63 74.1425L338.879 76.8613C337.95 77.7796 336.849 78.2388 335.577 78.2388C334.281 78.2388 333.168 77.7796 332.239 76.8613L308.357 53.2625C307.452 52.4167 307 51.3292 307 50C307 48.695 307.452 47.5954 308.357 46.7013L332.239 23.1025C333.193 22.2083 334.306 21.7613 335.577 21.7613Z" fill="#0800EE"/>
<path d="M433.577 21.7613C434.825 21.7613 435.925 22.2083 436.879 23.1025L439.63 25.8213C440.56 26.7396 441.024 27.8392 441.024 29.12C441.024 30.425 440.56 31.5125 439.63 32.3825L428.882 43.04L454.708 43.04C455.98 43.04 457.013 43.4931 457.808 44.3994C458.603 45.3056 459 46.3992 459 47.68L459 52.32C459 53.6008 458.603 54.6944 457.808 55.6006C457.013 56.5069 455.98 56.96 454.708 56.96L428.882 56.96L439.63 67.6175C440.56 68.4875 441.024 69.575 441.024 70.88C441.024 72.185 440.56 73.2725 439.63 74.1425L436.879 76.8613C435.95 77.7796 434.849 78.2388 433.577 78.2388C432.281 78.2388 431.168 77.7796 430.239 76.8613L406.357 53.2625C405.452 52.4167 405 51.3292 405 50C405 48.695 405.452 47.5954 406.357 46.7013L430.239 23.1025C431.193 22.2083 432.306 21.7613 433.577 21.7613Z" fill="#0800EE"/>
<path d="M531.577 21.7613C532.825 21.7613 533.925 22.2083 534.879 23.1025L537.63 25.8213C538.56 26.7396 539.024 27.8392 539.024 29.12C539.024 30.425 538.56 31.5125 537.63 32.3825L526.882 43.04L552.708 43.04C553.98 43.04 555.013 43.4931 555.808 44.3994C556.603 45.3056 557 46.3992 557 47.68L557 52.32C557 53.6008 556.603 54.6944 555.808 55.6006C555.013 56.5069 553.98 56.96 552.708 56.96L526.882 56.96L537.63 67.6175C538.56 68.4875 539.024 69.575 539.024 70.88C539.024 72.185 538.56 73.2725 537.63 74.1425L534.879 76.8613C533.95 77.7796 532.849 78.2388 531.577 78.2388C530.281 78.2388 529.168 77.7796 528.239 76.8613L504.357 53.2625C503.452 52.4167 503 51.3292 503 50C503 48.695 503.452 47.5954 504.357 46.7013L528.239 23.1025C529.193 22.2083 530.306 21.7613 531.577 21.7613Z" fill="#0800EE"/>
<path d="M629.577 21.7613C630.825 21.7613 631.925 22.2083 632.879 23.1025L635.63 25.8213C636.56 26.7396 637.024 27.8392 637.024 29.12C637.024 30.425 636.56 31.5125 635.63 32.3825L624.882 43.04L650.708 43.04C651.98 43.04 653.013 43.4931 653.808 44.3994C654.603 45.3056 655 46.3992 655 47.68L655 52.32C655 53.6008 654.603 54.6944 653.808 55.6006C653.013 56.5069 651.98 56.96 650.708 56.96L624.882 56.96L635.63 67.6175C636.56 68.4875 637.024 69.575 637.024 70.88C637.024 72.185 636.56 73.2725 635.63 74.1425L632.879 76.8613C631.95 77.7796 630.849 78.2388 629.577 78.2388C628.281 78.2388 627.168 77.7796 626.239 76.8613L602.357 53.2625C601.452 52.4167 601 51.3292 601 50C601 48.695 601.452 47.5954 602.357 46.7013L626.239 23.1025C627.193 22.2083 628.306 21.7613 629.577 21.7613Z" fill="#0800EE"/>
<path d="M727.577 21.7613C728.825 21.7613 729.925 22.2083 730.879 23.1025L733.63 25.8213C734.56 26.7396 735.024 27.8392 735.024 29.12C735.024 30.425 734.56 31.5125 733.63 32.3825L722.882 43.04L748.708 43.04C749.98 43.04 751.013 43.4931 751.808 44.3994C752.603 45.3056 753 46.3992 753 47.68L753 52.32C753 53.6008 752.603 54.6944 751.808 55.6006C751.013 56.5069 749.98 56.96 748.708 56.96L722.882 56.96L733.63 67.6175C734.56 68.4875 735.024 69.575 735.024 70.88C735.024 72.185 734.56 73.2725 733.63 74.1425L730.879 76.8613C729.95 77.7796 728.849 78.2388 727.577 78.2388C726.281 78.2388 725.168 77.7796 724.239 76.8613L700.357 53.2625C699.452 52.4167 699 51.3292 699 50C699 48.695 699.452 47.5954 700.357 46.7013L724.239 23.1025C725.193 22.2083 726.306 21.7613 727.577 21.7613Z" fill="#0800EE"/>
<path d="M825.577 21.7613C826.825 21.7613 827.925 22.2083 828.879 23.1025L831.63 25.8213C832.56 26.7396 833.024 27.8392 833.024 29.12C833.024 30.425 832.56 31.5125 831.63 32.3825L820.882 43.04L846.708 43.04C847.98 43.04 849.013 43.4931 849.808 44.3994C850.603 45.3056 851 46.3992 851 47.68L851 52.32C851 53.6008 850.603 54.6944 849.808 55.6006C849.013 56.5069 847.98 56.96 846.708 56.96L820.882 56.96L831.63 67.6175C832.56 68.4875 833.024 69.575 833.024 70.88C833.024 72.185 832.56 73.2725 831.63 74.1425L828.879 76.8613C827.95 77.7796 826.849 78.2388 825.577 78.2388C824.281 78.2388 823.168 77.7796 822.239 76.8613L798.357 53.2625C797.452 52.4167 797 51.3292 797 50C797 48.695 797.452 47.5954 798.357 46.7013L822.239 23.1025C823.193 22.2083 824.306 21.7613 825.577 21.7613Z" fill="#0800EE"/>
<path d="M923.577 21.7613C924.825 21.7613 925.925 22.2083 926.879 23.1025L929.63 25.8213C930.56 26.7396 931.024 27.8392 931.024 29.12C931.024 30.425 930.56 31.5125 929.63 32.3825L918.882 43.04L944.708 43.04C945.98 43.04 947.013 43.4931 947.808 44.3994C948.603 45.3056 949 46.3992 949 47.68L949 52.32C949 53.6008 948.603 54.6944 947.808 55.6006C947.013 56.5069 945.98 56.96 944.708 56.96L918.882 56.96L929.63 67.6175C930.56 68.4875 931.024 69.575 931.024 70.88C931.024 72.185 930.56 73.2725 929.63 74.1425L926.879 76.8613C925.95 77.7796 924.849 78.2388 923.577 78.2388C922.281 78.2388 921.168 77.7796 920.239 76.8613L896.357 53.2625C895.452 52.4167 895 51.3292 895 50C895 48.695 895.452 47.5954 896.357 46.7013L920.239 23.1025C921.193 22.2083 922.306 21.7613 923.577 21.7613Z" fill="#0800EE"/>
<path d="M1021.58 21.7613C1022.82 21.7613 1023.93 22.2083 1024.88 23.1025L1027.63 25.8213C1028.56 26.7396 1029.02 27.8392 1029.02 29.12C1029.02 30.425 1028.56 31.5125 1027.63 32.3825L1016.88 43.04L1042.71 43.04C1043.98 43.04 1045.01 43.4931 1045.81 44.3994C1046.6 45.3056 1047 46.3992 1047 47.68L1047 52.32C1047 53.6008 1046.6 54.6944 1045.81 55.6006C1045.01 56.5069 1043.98 56.96 1042.71 56.96L1016.88 56.96L1027.63 67.6175C1028.56 68.4875 1029.02 69.575 1029.02 70.88C1029.02 72.185 1028.56 73.2725 1027.63 74.1425L1024.88 76.8613C1023.95 77.7796 1022.85 78.2388 1021.58 78.2388C1020.28 78.2388 1019.17 77.7796 1018.24 76.8613L994.357 53.2625C993.452 52.4167 993 51.3292 993 50C993 48.695 993.452 47.5954 994.357 46.7013L1018.24 23.1025C1019.19 22.2083 1020.31 21.7613 1021.58 21.7613Z" fill="#0800EE"/>
<path d="M1119.58 21.7613C1120.82 21.7613 1121.93 22.2083 1122.88 23.1025L1125.63 25.8213C1126.56 26.7396 1127.02 27.8392 1127.02 29.12C1127.02 30.425 1126.56 31.5125 1125.63 32.3825L1114.88 43.04L1140.71 43.04C1141.98 43.04 1143.01 43.4931 1143.81 44.3994C1144.6 45.3056 1145 46.3992 1145 47.68L1145 52.32C1145 53.6008 1144.6 54.6944 1143.81 55.6006C1143.01 56.5069 1141.98 56.96 1140.71 56.96L1114.88 56.96L1125.63 67.6175C1126.56 68.4875 1127.02 69.575 1127.02 70.88C1127.02 72.185 1126.56 73.2725 1125.63 74.1425L1122.88 76.8613C1121.95 77.7796 1120.85 78.2388 1119.58 78.2388C1118.28 78.2388 1117.17 77.7796 1116.24 76.8613L1092.36 53.2625C1091.45 52.4167 1091 51.3292 1091 50C1091 48.695 1091.45 47.5954 1092.36 46.7013L1116.24 23.1025C1117.19 22.2083 1118.31 21.7613 1119.58 21.7613Z" fill="#0800EE"/>
<path d="M1217.58 21.7613C1218.82 21.7613 1219.93 22.2083 1220.88 23.1025L1223.63 25.8213C1224.56 26.7396 1225.02 27.8392 1225.02 29.12C1225.02 30.425 1224.56 31.5125 1223.63 32.3825L1212.88 43.04L1238.71 43.04C1239.98 43.04 1241.01 43.4931 1241.81 44.3994C1242.6 45.3056 1243 46.3992 1243 47.68L1243 52.32C1243 53.6008 1242.6 54.6944 1241.81 55.6006C1241.01 56.5069 1239.98 56.96 1238.71 56.96L1212.88 56.96L1223.63 67.6175C1224.56 68.4875 1225.02 69.575 1225.02 70.88C1225.02 72.185 1224.56 73.2725 1223.63 74.1425L1220.88 76.8613C1219.95 77.7796 1218.85 78.2388 1217.58 78.2388C1216.28 78.2388 1215.17 77.7796 1214.24 76.8613L1190.36 53.2625C1189.45 52.4167 1189 51.3292 1189 50C1189 48.695 1189.45 47.5954 1190.36 46.7013L1214.24 23.1025C1215.19 22.2083 1216.31 21.7613 1217.58 21.7613Z" fill="#0800EE"/>
<path d="M1315.58 21.7613C1316.82 21.7613 1317.93 22.2083 1318.88 23.1025L1321.63 25.8213C1322.56 26.7396 1323.02 27.8392 1323.02 29.12C1323.02 30.425 1322.56 31.5125 1321.63 32.3825L1310.88 43.04L1336.71 43.04C1337.98 43.04 1339.01 43.4931 1339.81 44.3994C1340.6 45.3056 1341 46.3992 1341 47.68L1341 52.32C1341 53.6008 1340.6 54.6944 1339.81 55.6006C1339.01 56.5069 1337.98 56.96 1336.71 56.96L1310.88 56.96L1321.63 67.6175C1322.56 68.4875 1323.02 69.575 1323.02 70.88C1323.02 72.185 1322.56 73.2725 1321.63 74.1425L1318.88 76.8613C1317.95 77.7796 1316.85 78.2388 1315.58 78.2388C1314.28 78.2388 1313.17 77.7796 1312.24 76.8613L1288.36 53.2625C1287.45 52.4167 1287 51.3292 1287 50C1287 48.695 1287.45 47.5954 1288.36 46.7013L1312.24 23.1025C1313.19 22.2083 1314.31 21.7613 1315.58 21.7613Z" fill="#0800EE"/>
<path d="M1413.58 21.7613C1414.82 21.7613 1415.93 22.2083 1416.88 23.1025L1419.63 25.8213C1420.56 26.7396 1421.02 27.8392 1421.02 29.12C1421.02 30.425 1420.56 31.5125 1419.63 32.3825L1408.88 43.04L1434.71 43.04C1435.98 43.04 1437.01 43.4931 1437.81 44.3994C1438.6 45.3056 1439 46.3992 1439 47.68L1439 52.32C1439 53.6008 1438.6 54.6944 1437.81 55.6006C1437.01 56.5069 1435.98 56.96 1434.71 56.96L1408.88 56.96L1419.63 67.6175C1420.56 68.4875 1421.02 69.575 1421.02 70.88C1421.02 72.185 1420.56 73.2725 1419.63 74.1425L1416.88 76.8613C1415.95 77.7796 1414.85 78.2388 1413.58 78.2388C1412.28 78.2388 1411.17 77.7796 1410.24 76.8613L1386.36 53.2625C1385.45 52.4167 1385 51.3292 1385 50C1385 48.695 1385.45 47.5954 1386.36 46.7013L1410.24 23.1025C1411.19 22.2083 1412.31 21.7613 1413.58 21.7613Z" fill="#0800EE"/>
<path d="M1511.58 21.7613C1512.82 21.7613 1513.93 22.2083 1514.88 23.1025L1517.63 25.8213C1518.56 26.7396 1519.02 27.8392 1519.02 29.12C1519.02 30.425 1518.56 31.5125 1517.63 32.3825L1506.88 43.04L1532.71 43.04C1533.98 43.04 1535.01 43.4931 1535.81 44.3994C1536.6 45.3056 1537 46.3992 1537 47.68L1537 52.32C1537 53.6008 1536.6 54.6944 1535.81 55.6006C1535.01 56.5069 1533.98 56.96 1532.71 56.96L1506.88 56.96L1517.63 67.6175C1518.56 68.4875 1519.02 69.575 1519.02 70.88C1519.02 72.185 1518.56 73.2725 1517.63 74.1425L1514.88 76.8613C1513.95 77.7796 1512.85 78.2388 1511.58 78.2388C1510.28 78.2388 1509.17 77.7796 1508.24 76.8613L1484.36 53.2625C1483.45 52.4167 1483 51.3292 1483 50C1483 48.695 1483.45 47.5954 1484.36 46.7013L1508.24 23.1025C1509.19 22.2083 1510.31 21.7613 1511.58 21.7613Z" fill="#0800EE"/>
<path d="M1609.58 21.7613C1610.82 21.7613 1611.93 22.2083 1612.88 23.1025L1615.63 25.8213C1616.56 26.7396 1617.02 27.8392 1617.02 29.12C1617.02 30.425 1616.56 31.5125 1615.63 32.3825L1604.88 43.04L1630.71 43.04C1631.98 43.04 1633.01 43.4931 1633.81 44.3994C1634.6 45.3056 1635 46.3992 1635 47.68L1635 52.32C1635 53.6008 1634.6 54.6944 1633.81 55.6006C1633.01 56.5069 1631.98 56.96 1630.71 56.96L1604.88 56.96L1615.63 67.6175C1616.56 68.4875 1617.02 69.575 1617.02 70.88C1617.02 72.185 1616.56 73.2725 1615.63 74.1425L1612.88 76.8613C1611.95 77.7796 1610.85 78.2388 1609.58 78.2388C1608.28 78.2388 1607.17 77.7796 1606.24 76.8613L1582.36 53.2625C1581.45 52.4167 1581 51.3292 1581 50C1581 48.695 1581.45 47.5954 1582.36 46.7013L1606.24 23.1025C1607.19 22.2083 1608.31 21.7613 1609.58 21.7613Z" fill="#0800EE"/>
<path d="M1707.58 21.7613C1708.82 21.7613 1709.93 22.2083 1710.88 23.1025L1713.63 25.8213C1714.56 26.7396 1715.02 27.8392 1715.02 29.12C1715.02 30.425 1714.56 31.5125 1713.63 32.3825L1702.88 43.04L1728.71 43.04C1729.98 43.04 1731.01 43.4931 1731.81 44.3994C1732.6 45.3056 1733 46.3992 1733 47.68L1733 52.32C1733 53.6008 1732.6 54.6944 1731.81 55.6006C1731.01 56.5069 1729.98 56.96 1728.71 56.96L1702.88 56.96L1713.63 67.6175C1714.56 68.4875 1715.02 69.575 1715.02 70.88C1715.02 72.185 1714.56 73.2725 1713.63 74.1425L1710.88 76.8613C1709.95 77.7796 1708.85 78.2388 1707.58 78.2388C1706.28 78.2388 1705.17 77.7796 1704.24 76.8613L1680.36 53.2625C1679.45 52.4167 1679 51.3292 1679 50C1679 48.695 1679.45 47.5954 1680.36 46.7013L1704.24 23.1025C1705.19 22.2083 1706.31 21.7613 1707.58 21.7613Z" fill="#0800EE"/>
<path d="M1805.58 21.7613C1806.82 21.7613 1807.93 22.2083 1808.88 23.1025L1811.63 25.8213C1812.56 26.7396 1813.02 27.8392 1813.02 29.12C1813.02 30.425 1812.56 31.5125 1811.63 32.3825L1800.88 43.04L1826.71 43.04C1827.98 43.04 1829.01 43.4931 1829.81 44.3994C1830.6 45.3056 1831 46.3992 1831 47.68L1831 52.32C1831 53.6008 1830.6 54.6944 1829.81 55.6006C1829.01 56.5069 1827.98 56.96 1826.71 56.96L1800.88 56.96L1811.63 67.6175C1812.56 68.4875 1813.02 69.575 1813.02 70.88C1813.02 72.185 1812.56 73.2725 1811.63 74.1425L1808.88 76.8613C1807.95 77.7796 1806.85 78.2388 1805.58 78.2388C1804.28 78.2388 1803.17 77.7796 1802.24 76.8613L1778.36 53.2625C1777.45 52.4167 1777 51.3292 1777 50C1777 48.695 1777.45 47.5954 1778.36 46.7013L1802.24 23.1025C1803.19 22.2083 1804.31 21.7613 1805.58 21.7613Z" fill="#0800EE"/>
<path d="M1903.58 21.7613C1904.82 21.7613 1905.93 22.2083 1906.88 23.1025L1909.63 25.8213C1910.56 26.7396 1911.02 27.8392 1911.02 29.12C1911.02 30.425 1910.56 31.5125 1909.63 32.3825L1898.88 43.04L1924.71 43.04C1925.98 43.04 1927.01 43.4931 1927.81 44.3994C1928.6 45.3056 1929 46.3992 1929 47.68L1929 52.32C1929 53.6008 1928.6 54.6944 1927.81 55.6006C1927.01 56.5069 1925.98 56.96 1924.71 56.96L1898.88 56.96L1909.63 67.6175C1910.56 68.4875 1911.02 69.575 1911.02 70.88C1911.02 72.185 1910.56 73.2725 1909.63 74.1425L1906.88 76.8613C1905.95 77.7796 1904.85 78.2388 1903.58 78.2388C1902.28 78.2388 1901.17 77.7796 1900.24 76.8613L1876.36 53.2625C1875.45 52.4167 1875 51.3292 1875 50C1875 48.695 1875.45 47.5954 1876.36 46.7013L1900.24 23.1025C1901.19 22.2083 1902.31 21.7613 1903.58 21.7613Z" fill="#0800EE"/>
<path d="M2001.58 21.7613C2002.82 21.7613 2003.93 22.2083 2004.88 23.1025L2007.63 25.8213C2008.56 26.7396 2009.02 27.8392 2009.02 29.12C2009.02 30.425 2008.56 31.5125 2007.63 32.3825L1996.88 43.04L2022.71 43.04C2023.98 43.04 2025.01 43.4931 2025.81 44.3994C2026.6 45.3056 2027 46.3992 2027 47.68L2027 52.32C2027 53.6008 2026.6 54.6944 2025.81 55.6006C2025.01 56.5069 2023.98 56.96 2022.71 56.96L1996.88 56.96L2007.63 67.6175C2008.56 68.4875 2009.02 69.575 2009.02 70.88C2009.02 72.185 2008.56 73.2725 2007.63 74.1425L2004.88 76.8613C2003.95 77.7796 2002.85 78.2388 2001.58 78.2388C2000.28 78.2388 1999.17 77.7796 1998.24 76.8613L1974.36 53.2625C1973.45 52.4167 1973 51.3292 1973 50C1973 48.695 1973.45 47.5954 1974.36 46.7013L1998.24 23.1025C1999.19 22.2083 2000.31 21.7613 2001.58 21.7613Z" fill="#0800EE"/>
<path d="M2099.58 21.7613C2100.82 21.7613 2101.93 22.2083 2102.88 23.1025L2105.63 25.8213C2106.56 26.7396 2107.02 27.8392 2107.02 29.12C2107.02 30.425 2106.56 31.5125 2105.63 32.3825L2094.88 43.04L2120.71 43.04C2121.98 43.04 2123.01 43.4931 2123.81 44.3994C2124.6 45.3056 2125 46.3992 2125 47.68L2125 52.32C2125 53.6008 2124.6 54.6944 2123.81 55.6006C2123.01 56.5069 2121.98 56.96 2120.71 56.96L2094.88 56.96L2105.63 67.6175C2106.56 68.4875 2107.02 69.575 2107.02 70.88C2107.02 72.185 2106.56 73.2725 2105.63 74.1425L2102.88 76.8613C2101.95 77.7796 2100.85 78.2388 2099.58 78.2388C2098.28 78.2388 2097.17 77.7796 2096.24 76.8613L2072.36 53.2625C2071.45 52.4167 2071 51.3292 2071 50C2071 48.695 2071.45 47.5954 2072.36 46.7013L2096.24 23.1025C2097.19 22.2083 2098.31 21.7613 2099.58 21.7613Z" fill="#0800EE"/>
<path d="M2197.58 21.7613C2198.82 21.7613 2199.93 22.2083 2200.88 23.1025L2203.63 25.8213C2204.56 26.7396 2205.02 27.8392 2205.02 29.12C2205.02 30.425 2204.56 31.5125 2203.63 32.3825L2192.88 43.04L2218.71 43.04C2219.98 43.04 2221.01 43.4931 2221.81 44.3994C2222.6 45.3056 2223 46.3992 2223 47.68L2223 52.32C2223 53.6008 2222.6 54.6944 2221.81 55.6006C2221.01 56.5069 2219.98 56.96 2218.71 56.96L2192.88 56.96L2203.63 67.6175C2204.56 68.4875 2205.02 69.575 2205.02 70.88C2205.02 72.185 2204.56 73.2725 2203.63 74.1425L2200.88 76.8613C2199.95 77.7796 2198.85 78.2388 2197.58 78.2388C2196.28 78.2388 2195.17 77.7796 2194.24 76.8613L2170.36 53.2625C2169.45 52.4167 2169 51.3292 2169 50C2169 48.695 2169.45 47.5954 2170.36 46.7013L2194.24 23.1025C2195.19 22.2083 2196.31 21.7613 2197.58 21.7613Z" fill="#0800EE"/>
<path d="M2295.58 21.7613C2296.82 21.7613 2297.93 22.2083 2298.88 23.1025L2301.63 25.8213C2302.56 26.7396 2303.02 27.8392 2303.02 29.12C2303.02 30.425 2302.56 31.5125 2301.63 32.3825L2290.88 43.04L2316.71 43.04C2317.98 43.04 2319.01 43.4931 2319.81 44.3994C2320.6 45.3056 2321 46.3992 2321 47.68L2321 52.32C2321 53.6008 2320.6 54.6944 2319.81 55.6006C2319.01 56.5069 2317.98 56.96 2316.71 56.96L2290.88 56.96L2301.63 67.6175C2302.56 68.4875 2303.02 69.575 2303.02 70.88C2303.02 72.185 2302.56 73.2725 2301.63 74.1425L2298.88 76.8613C2297.95 77.7796 2296.85 78.2388 2295.58 78.2388C2294.28 78.2388 2293.17 77.7796 2292.24 76.8613L2268.36 53.2625C2267.45 52.4167 2267 51.3292 2267 50C2267 48.695 2267.45 47.5954 2268.36 46.7013L2292.24 23.1025C2293.19 22.2083 2294.31 21.7613 2295.58 21.7613Z" fill="#0800EE"/>
<path d="M2393.58 21.7613C2394.82 21.7613 2395.93 22.2083 2396.88 23.1025L2399.63 25.8213C2400.56 26.7396 2401.02 27.8392 2401.02 29.12C2401.02 30.425 2400.56 31.5125 2399.63 32.3825L2388.88 43.04L2414.71 43.04C2415.98 43.04 2417.01 43.4931 2417.81 44.3994C2418.6 45.3056 2419 46.3992 2419 47.68L2419 52.32C2419 53.6008 2418.6 54.6944 2417.81 55.6006C2417.01 56.5069 2415.98 56.96 2414.71 56.96L2388.88 56.96L2399.63 67.6175C2400.56 68.4875 2401.02 69.575 2401.02 70.88C2401.02 72.185 2400.56 73.2725 2399.63 74.1425L2396.88 76.8613C2395.95 77.7796 2394.85 78.2388 2393.58 78.2388C2392.28 78.2388 2391.17 77.7796 2390.24 76.8613L2366.36 53.2625C2365.45 52.4167 2365 51.3292 2365 50C2365 48.695 2365.45 47.5954 2366.36 46.7013L2390.24 23.1025C2391.19 22.2083 2392.31 21.7613 2393.58 21.7613Z" fill="#0800EE"/>
</svg>
