<svg width="78" height="97" viewBox="0 0 78 97" fill="none" xmlns="http://www.w3.org/2000/svg">
<path id="Vector 1" d="M0.0278697 0.440028C-0.00784322 0.24748 -0.010709 0.0964466 0.0278697 0V0.440028C0.313369 1.97931 2.69808 6.17171 2.78966 6.33853C6.05497 12.2867 9.96267 16.212 16.825 17.3404C18.7813 17.6621 22.1019 17.0647 23.2993 19.242C24.3497 21.1518 24.0263 23.1226 25.8574 24.675C27.7043 26.2409 29.6411 27.5235 31.064 29.5421C33.9221 33.5965 34.7218 39.0215 36.8366 43.4642C39.5446 49.1531 45.3736 53.3873 48.9478 58.5862C51.547 62.3669 49.9425 66.9649 52.6377 70.5841C55.3852 74.2736 59.8405 76.0477 63.1642 79.1185C65.259 81.0539 66.604 83.3097 68.9368 85.0269C71.0016 86.5468 73.0213 87.1743 75.2753 88.1962C76.8055 88.8898 77.8792 94.8188 77.8792 96.1485H0.0278697V0.440028Z" fill="#0800EE"/>
</svg>
