<svg width="142" height="27" viewBox="0 0 142 27" fill="none" xmlns="http://www.w3.org/2000/svg">
<path id="Vector 2" d="M9.7311 4.79621C7.05755 3.0745 3.77312 0.553223 0.622292 0.553223L141.116 0.55327C138.393 3.27633 135.869 3.51025 132.264 4.54017C130.664 4.99726 133.215 8.1312 133.215 8.81969C133.215 11.7371 131.296 14.1176 129.338 16.2083C127.339 18.3419 124.234 16.2474 121.511 16.6472C119.071 17.0052 116.508 18.0912 114.341 19.2807C111.62 20.775 107.867 27.5073 104.393 26.4498C102.117 25.7573 101.142 22.5916 99.2717 21.329C97.2152 19.9409 94.4421 21.3882 92.4684 22.0606C88.8224 23.3026 83.1117 26.6126 79.5933 23.5968C78.5694 22.7192 78.0455 20.3998 76.594 20.4878C71.1679 20.8166 66.1469 22.3846 60.5732 22.2435C54.4149 22.0876 49.9249 23.1621 43.8209 23.9626C36.1667 24.9664 32.0685 25.5785 27.1418 19.7197C22.1444 13.7769 16.262 9.00196 9.7311 4.79621Z" fill="#0800EE"/>
</svg>
