<svg width="122" height="82" viewBox="0 0 122 82" fill="none" xmlns="http://www.w3.org/2000/svg">
<rect x="1" y="1" width="120" height="80" rx="12" fill="#0034EE" fill-opacity="0.2"/>
<rect x="1" y="1" width="120" height="80" rx="12" stroke="#0034EE" stroke-width="1.5"/>
<path d="M62.5774 12.7613C63.8247 12.7613 64.9253 13.2083 65.8791 14.1025L68.6304 16.8213C69.5598 17.7396 70.0245 18.8392 70.0245 20.12C70.0245 21.425 69.5598 22.5125 68.6304 23.3825L57.8818 34.04L83.7079 34.04C84.9796 34.04 86.0129 34.4931 86.8077 35.3994C87.6026 36.3056 88 37.3992 88 38.68L88 43.32C88 44.6008 87.6026 45.6944 86.8077 46.6006C86.0129 47.5069 84.9796 47.96 83.7079 47.96L57.8818 47.96L68.6304 58.6175C69.5598 59.4875 70.0245 60.575 70.0245 61.88C70.0245 63.185 69.5598 64.2725 68.6304 65.1425L65.8791 67.8613C64.9497 68.7796 63.8492 69.2388 62.5774 69.2388C61.2812 69.2388 60.1685 68.7796 59.2391 67.8613L35.3573 44.2625C34.4524 43.4167 34 42.3292 34 41C34 39.695 34.4524 38.5954 35.3573 37.7013L59.2391 14.1025C60.1929 13.2083 61.3057 12.7613 62.5774 12.7613Z" fill="#0034EE"/>
</svg>
