<svg width="1680" height="41" viewBox="0 0 1680 41" fill="none" xmlns="http://www.w3.org/2000/svg">
<g clip-path="url(#clip0_271_268)">
<rect x="73" y="0.085022" width="105" height="40" rx="12" fill="#0800EE"/>
<rect x="522" y="0.085022" width="105" height="40" rx="12" fill="#0800EE"/>
<rect x="850" y="0.085022" width="105" height="40" rx="12" fill="#0800EE"/>
<rect x="1056" y="0.085022" width="105" height="40" rx="12" fill="#0800EE"/>
<rect x="1470" y="0.085022" width="105" height="40" rx="12" fill="#0800EE"/>
<rect x="1575" y="0.085022" width="105" height="40" rx="12" fill="#0800EE"/>
<rect x="637" y="0.085022" width="38" height="40" rx="12" fill="#0800EE"/>
<rect x="268" y="0.085022" width="38" height="40" rx="12" fill="#0800EE"/>
<rect x="1018" y="0.085022" width="38" height="40" rx="12" fill="#0800EE"/>
<rect x="41" y="0.085022" width="14" height="40" rx="7" fill="#0800EE"/>
<rect y="0.085022" width="14" height="40" rx="7" fill="#0800EE"/>
<rect x="826" y="0.085022" width="14" height="40" rx="7" fill="#0800EE"/>
<rect x="1289" y="0.085022" width="14" height="40" rx="7" fill="#0800EE"/>
<rect x="1313" y="0.085022" width="14" height="40" rx="7" fill="#0800EE"/>
<rect x="464" y="0.085022" width="14" height="40" rx="7" fill="#0800EE"/>
<rect x="306" y="0.085022" width="14" height="40" rx="7" fill="#0800EE"/>
</g>
<defs>
<clipPath id="clip0_271_268">
<rect width="1680" height="40" fill="white" transform="translate(0 0.085022)"/>
</clipPath>
</defs>
</svg>
