<svg width="2426" height="52" viewBox="0 0 2426 52" fill="none" xmlns="http://www.w3.org/2000/svg">
<rect x="49" width="136.5" height="52" rx="12" fill="#0800EE"/>
<rect x="344" width="136.5" height="52" rx="12" fill="#0800EE"/>
<rect x="480" width="136.5" height="52" rx="12" fill="#0800EE"/>
<rect x="1531" width="136.5" height="52" rx="12" fill="#0800EE"/>
<rect x="828" width="213.2" height="52" rx="12" fill="#0800EE"/>
<rect x="2212.63" width="213.2" height="52" rx="12" fill="#0800EE"/>
<rect x="1839" width="123.5" height="52" rx="12" fill="#0800EE"/>
<rect width="49.4" height="52" rx="12" fill="#0800EE"/>
<rect x="779" width="49.4" height="52" rx="12" fill="#0800EE"/>
<rect x="1080.3" width="49.4" height="52" rx="12" fill="#0800EE"/>
<rect x="1790" width="49.4" height="52" rx="12" fill="#0800EE"/>
<rect x="237" width="18.2" height="52" rx="9.1" fill="#0800EE"/>
<rect x="265" width="18.2" height="52" rx="9.1" fill="#0800EE"/>
<rect x="1233.7" width="18.2" height="52" rx="9.1" fill="#0800EE"/>
<rect x="2178" width="18.2" height="52" rx="9.1" fill="#0800EE"/>
<rect x="1338" width="18.2" height="52" rx="9.1" fill="#0800EE"/>
</svg>
