<svg width="1680" height="41" viewBox="0 0 1680 41" fill="none" xmlns="http://www.w3.org/2000/svg">
<g clip-path="url(#clip0_271_285)">
<rect x="38" y="0.085022" width="105" height="40" rx="12" fill="#0800EE"/>
<rect x="722" y="0.085022" width="105" height="40" rx="12" fill="#0800EE"/>
<rect x="617" y="0.085022" width="105" height="40" rx="12" fill="#0800EE"/>
<rect x="1014" y="0.085022" width="105" height="40" rx="12" fill="#0800EE"/>
<rect x="1575" y="0.085022" width="105" height="40" rx="12" fill="#0800EE"/>
<rect y="0.085022" width="38" height="40" rx="12" fill="#0800EE"/>
<rect x="365" y="0.085022" width="38" height="40" rx="12" fill="#0800EE"/>
<rect x="1149" y="0.085022" width="38" height="40" rx="12" fill="#0800EE"/>
<rect x="561" y="0.085022" width="38" height="40" rx="12" fill="#0800EE"/>
<rect x="282" y="0.085022" width="14" height="40" rx="7" fill="#0800EE"/>
<rect x="306" y="0.085022" width="14" height="40" rx="7" fill="#0800EE"/>
<rect x="990" y="0.085022" width="14" height="40" rx="7" fill="#0800EE"/>
<rect x="1279" y="0.085022" width="14" height="40" rx="7" fill="#0800EE"/>
<rect x="1303" y="0.085022" width="14" height="40" rx="7" fill="#0800EE"/>
<rect x="1409" y="0.085022" width="14" height="40" rx="7" fill="#0800EE"/>
</g>
<defs>
<clipPath id="clip0_271_285">
<rect width="1680" height="40" fill="white" transform="translate(0 0.085022)"/>
</clipPath>
</defs>
</svg>
