<svg width="1680" height="41" viewBox="0 0 1680 41" fill="none" xmlns="http://www.w3.org/2000/svg">
<g clip-path="url(#clip0_271_239)">
<rect y="0.085022" width="105" height="40" rx="12" fill="#0800EE"/>
<rect x="373" y="0.085022" width="105" height="40" rx="12" fill="#0800EE"/>
<rect x="478" y="0.085022" width="105" height="40" rx="12" fill="#0800EE"/>
<rect x="1094" y="0.085022" width="105" height="40" rx="12" fill="#0800EE"/>
<rect x="1333" y="0.085022" width="164" height="40" rx="12" fill="#0800EE"/>
<rect x="1497" y="0.085022" width="95" height="40" rx="12" fill="#0800EE"/>
<rect x="710" y="0.085022" width="105" height="40" rx="12" fill="#0800EE"/>
<rect x="151" y="0.085022" width="38" height="40" rx="12" fill="#0800EE"/>
<rect x="831" y="0.085022" width="38" height="40" rx="12" fill="#0800EE"/>
<rect x="295" y="0.085022" width="14" height="40" rx="7" fill="#0800EE"/>
<rect x="949" y="0.085022" width="14" height="40" rx="7" fill="#0800EE"/>
<rect x="979" y="0.085022" width="14" height="40" rx="7" fill="#0800EE"/>
</g>
<defs>
<clipPath id="clip0_271_239">
<rect width="1680" height="40" fill="white" transform="translate(0 0.085022)"/>
</clipPath>
</defs>
</svg>
