<svg width="72" height="72" viewBox="0 0 72 72" fill="none" xmlns="http://www.w3.org/2000/svg">
<g id="mingcute:close-fill">
<rect width="72" height="72" rx="12" fill="white" fill-opacity="0.8"/>
<g id="Group">
<path id="Vector" fill-rule="evenodd" clip-rule="evenodd" d="M36.0228 41.3841L49.4934 54.8394C50.2082 55.5533 51.1776 55.9544 52.1885 55.9544C53.1994 55.9544 54.1688 55.5533 54.8836 54.8394C55.5984 54.1254 56 53.157 56 52.1473C56 51.1376 55.5984 50.1692 54.8836 49.4552L41.408 36L54.8811 22.5448C55.2349 22.1912 55.5154 21.7716 55.7068 21.3097C55.8982 20.8479 55.9967 20.3529 55.9966 19.8531C55.9964 19.3532 55.8978 18.8583 55.7062 18.3966C55.5145 17.9348 55.2338 17.5153 54.8798 17.1619C54.5259 16.8086 54.1058 16.5283 53.6434 16.3371C53.181 16.1459 52.6855 16.0476 52.1851 16.0477C51.6847 16.0478 51.1892 16.1464 50.7269 16.3378C50.2646 16.5292 49.8446 16.8097 49.4908 17.1632L36.0228 30.6184L22.5522 17.1632C22.2009 16.7995 21.7806 16.5094 21.3158 16.3097C20.851 16.11 20.3511 16.0048 19.8452 16.0002C19.3392 15.9955 18.8375 16.0916 18.3691 16.2827C17.9008 16.4739 17.4752 16.7563 17.1173 17.1135C16.7593 17.4706 16.4762 17.8954 16.2844 18.3631C16.0926 18.8307 15.996 19.3318 16.0001 19.8372C16.0043 20.3425 16.1092 20.842 16.3086 21.3064C16.5081 21.7709 16.7982 22.191 17.1619 22.5422L30.6376 36L17.1645 49.4578C16.8007 49.809 16.5106 50.2291 16.3112 50.6936C16.1117 51.158 16.0068 51.6575 16.0027 52.1628C15.9985 52.6682 16.0952 53.1693 16.287 53.6369C16.4788 54.1046 16.7619 54.5294 17.1198 54.8865C17.4777 55.2437 17.9033 55.5261 18.3717 55.7173C18.84 55.9084 19.3418 56.0045 19.8477 55.9998C20.3536 55.9952 20.8536 55.89 21.3183 55.6903C21.7831 55.4906 22.2034 55.2005 22.5547 54.8368L36.0228 41.3841Z" fill="#0800EE"/>
</g>
</g>
</svg>
