<svg width="2427" height="52" viewBox="0 0 2427 52" fill="none" xmlns="http://www.w3.org/2000/svg">
<rect x="18" width="136.5" height="52" rx="12" fill="#0800EE"/>
<rect x="1077" width="136.5" height="52" rx="12" fill="#0800EE"/>
<rect x="2154" width="136.5" height="52" rx="12" fill="#0800EE"/>
<rect x="2290" width="136.5" height="52" rx="12" fill="#0800EE"/>
<rect x="605" width="136.5" height="52" rx="12" fill="#0800EE"/>
<rect x="1438" width="213.2" height="52" rx="12" fill="#0800EE"/>
<rect x="1651" width="123.5" height="52" rx="12" fill="#0800EE"/>
<rect x="741" width="91" height="52" rx="12" fill="#0800EE"/>
<rect x="344" width="49.4" height="52" rx="12" fill="#0800EE"/>
<rect x="1997" width="49.4" height="52" rx="12" fill="#0800EE"/>
<rect x="274" width="49.4" height="52" rx="12" fill="#0800EE"/>
<rect x="883" width="49.4" height="52" rx="12" fill="#0800EE"/>
<rect width="18.2" height="52" rx="9.1" fill="#0800EE"/>
<rect x="1233.7" width="18.2" height="52" rx="9.1" fill="#0800EE"/>
<rect x="1963" width="18.2" height="52" rx="9.1" fill="#0800EE"/>
<rect x="540" width="18.2" height="52" rx="9.1" fill="#0800EE"/>
<rect x="1380" width="18.2" height="52" rx="9.1" fill="#0800EE"/>
</svg>
