<svg width="122" height="82" viewBox="0 0 122 82" fill="none" xmlns="http://www.w3.org/2000/svg">
<rect x="1" y="1" width="120" height="80" rx="12" stroke="#0800EE" stroke-width="1.5"/>
<path d="M85 42.3438C85 43.4062 84.62 44.3438 83.8601 45.1562L81.5494 47.5C80.7689 48.2917 79.8344 48.6875 78.7458 48.6875C77.6367 48.6875 76.7125 48.2917 75.973 47.5L66.9153 38.3438V60.3438C66.9153 61.4271 66.5302 62.3073 65.7599 62.9844C64.9897 63.6615 64.0603 64 62.9718 64H59.0282C57.9397 64 57.0103 63.6615 56.2401 62.9844C55.4698 62.3073 55.0847 61.4271 55.0847 60.3438V38.3438L46.027 47.5C45.2875 48.2917 44.3633 48.6875 43.2542 48.6875C42.1451 48.6875 41.2208 48.2917 40.4814 47.5L38.1707 45.1562C37.3902 44.3646 37 43.4271 37 42.3438C37 41.2396 37.3902 40.2917 38.1707 39.5L58.2272 19.1562C58.9461 18.3854 59.8703 18 61 18C62.1091 18 63.0436 18.3854 63.8036 19.1562L83.8601 39.5C84.62 40.3125 85 41.2604 85 42.3438Z" fill="#0800EE"/>
</svg>
