<svg width="48" height="46" viewBox="0 0 48 46" fill="none" xmlns="http://www.w3.org/2000/svg">
<path d="M48 24.3437C48 25.4062 47.62 26.3437 46.8601 27.1562L44.5494 29.5C43.7689 30.2917 42.8344 30.6875 41.7458 30.6875C40.6367 30.6875 39.7125 30.2917 38.973 29.5L29.9153 20.3437V42.3437C29.9153 43.4271 29.5302 44.3073 28.7599 44.9844C27.9897 45.6615 27.0603 46 25.9718 46H22.0282C20.9397 46 20.0103 45.6615 19.2401 44.9844C18.4698 44.3073 18.0847 43.4271 18.0847 42.3437V20.3437L9.02696 29.5C8.28755 30.2917 7.36329 30.6875 6.25417 30.6875C5.14506 30.6875 4.2208 30.2917 3.48139 29.5L1.17073 27.1562C0.390244 26.3646 0 25.4271 0 24.3437C0 23.2396 0.390244 22.2917 1.17073 21.5L21.2272 1.15625C21.9461 0.385417 22.8703 0 24 0C25.1091 0 26.0436 0.385417 26.8036 1.15625L46.8601 21.5C47.62 22.3125 48 23.2604 48 24.3437Z" fill="#0800EE"/>
</svg>
