<svg width="74" height="74" viewBox="0 0 74 74" fill="none" xmlns="http://www.w3.org/2000/svg">
<path fill-rule="evenodd" clip-rule="evenodd" d="M62.382 15.8637C62.7281 16.1603 63.0123 16.5222 63.2184 16.9287C63.4245 17.3352 63.5485 17.7783 63.5833 18.2327C63.6181 18.6872 63.563 19.144 63.4212 19.5771C63.2793 20.0102 63.0535 20.4112 62.7566 20.757L35.0066 53.132C34.6955 53.495 34.3127 53.7897 33.8823 53.9977C33.4518 54.2057 32.983 54.3225 32.5053 54.3408C32.0276 54.359 31.5513 54.2783 31.1062 54.1037C30.6612 53.9291 30.257 53.6644 29.9191 53.3262L13.7316 37.1387C13.1001 36.4842 12.7508 35.6078 12.7592 34.6983C12.7675 33.7889 13.1327 32.919 13.7762 32.2762C14.4196 31.6333 15.2898 31.269 16.1993 31.2615C17.1088 31.254 17.9848 31.6041 18.6388 32.2362L32.1808 45.7736L57.4934 16.243C58.0922 15.5455 58.9435 15.1142 59.8602 15.044C60.7768 14.9737 61.6839 15.2656 62.382 15.8637Z" fill="#E8E8E8"/>
</svg>
